<svg fill="none" height="60" viewBox="0 0 59 60" width="59" xmlns="http://www.w3.org/2000/svg" xmlns:xlink="http://www.w3.org/1999/xlink"><linearGradient id="a"><stop offset=".00800497" stop-color="#38dbff"/><stop offset="1" stop-color="#243aff"/></linearGradient><linearGradient id="b" gradientUnits="userSpaceOnUse" x1="51.6399" x2="58.879" xlink:href="#a" y1="16.4989" y2="18.0607"/><linearGradient id="c" gradientUnits="userSpaceOnUse" x1="41.4581" x2="64.7158" xlink:href="#a" y1="8.86836" y2="12.2709"/><linearGradient id="d" gradientUnits="userSpaceOnUse" x1="19.7523" x2="62.4161" xlink:href="#a" y1="11.0994" y2="25.294"/><linearGradient id="e" gradientUnits="userSpaceOnUse" x1="11.5928" x2="12.3742" xlink:href="#a" y1="43.5762" y2="44.3152"/><linearGradient id="f" gradientUnits="userSpaceOnUse" x1="-1.70335" x2="30.6878" xlink:href="#a" y1="26.8149" y2="40.5825"/><linearGradient id="g" gradientUnits="userSpaceOnUse" x1="12.2955" x2="31.704" xlink:href="#a" y1="45.4746" y2="51.0845"/><linearGradient id="h" gradientUnits="userSpaceOnUse" x1="23.5748" x2="28.6386" xlink:href="#a" y1="41.811" y2="41.7987"/><path d="m57.2115 19.4311c0 1.61-.78 3.03-1.98 3.9l-3.24-8.74c.12-.01.25-.01.37-.01 2.68 0 4.85 2.17 4.85 4.85z" fill="url(#b)"/><path d="m58.2815 40.251-.42.15c-.51.19-1.08-.08-1.27-.59l-13.97-38.33004c-.19-.510004.08-1.080004.59-1.270004l.42-.1499999c.51-.1900001 1.08.0799999 1.27.5899999l13.97 38.330044c.18.51-.08 1.08-.59 1.27z" fill="url(#c)"/><path d="m41.8015 3.3208 12.8 35.49s-10.37-4.98-26.65-1.09c-1.15-3.13-6-16.34-6-16.34s13.92-5.93 19.85-18.06z" fill="url(#d)"/><path d="m12.6815 43.4907c-.33.15-.67.29-1.02.39z" fill="url(#e)"/><path d="m26.4215 38.1109-13.66 5.34-.08.04-1.02.39-.01.01c-.86.28-1.76998.43-2.71998.43-4.89 0-8.8600021-3.96-8.8600021-8.85 0-3.63 2.1800021-6.74 5.3100021-8.11l1.04-.37 14.12998-5.09z" fill="url(#f)"/><path d="m27.7615 57.071-5.81-15.57-8.68 3.19 4.5 12.89s.99 2.81 3.86 1.85c2.88-.96 6.13-2.36 6.13-2.36z" fill="url(#g)"/><path d="m27.0171 39.6911-3.4859 1.2703 1.2703 3.4859 3.4859-1.2703z" fill="url(#h)"/></svg>