<svg width="28" height="28" viewBox="0 0 28 28" fill="none" xmlns="http://www.w3.org/2000/svg">
<path d="M13.8112 27.2809C21.327 27.2809 27.4198 21.1881 27.4198 13.6723C27.4198 6.15651 21.327 0.063736 13.8112 0.063736C6.29538 0.063736 0.202606 6.15651 0.202606 13.6723C0.202606 21.1881 6.29538 27.2809 13.8112 27.2809Z" fill="url(#paint0_linear_839_221)"/>
<path d="M21.045 10.1093C20.9483 9.1605 20.5851 8.32084 19.8794 7.64966C19.1378 6.9412 18.2304 6.62909 17.2361 6.57523C15.5416 6.4827 11.5187 6.4247 10.1059 6.65533C8.49149 6.91772 7.43362 7.85958 6.98755 9.45466C6.64368 10.681 6.71273 16.3349 6.91298 17.5461C7.18642 19.2033 8.16557 20.2667 9.80898 20.6906C10.9456 20.9848 16.5346 20.9461 17.7885 20.7431C19.4471 20.4752 20.5147 19.5002 20.9455 17.8609C21.2756 16.6014 21.161 11.2445 21.045 10.1093ZM19.7178 17.3127C19.5245 18.5722 18.6889 19.3524 17.4239 19.4905C16.2611 19.6176 11.0685 19.688 9.98989 19.387C8.95827 19.0983 8.36858 18.3899 8.19733 17.3513C8.03437 16.3598 7.99294 11.4033 8.19457 10.0761C8.38515 8.82767 9.21928 8.04878 10.4788 7.90791C11.7562 7.76429 16.3509 7.7491 17.5745 7.93691C18.8312 8.13026 19.6101 8.96716 19.7482 10.2349C19.8766 11.4171 19.9139 16.0407 19.7178 17.3127ZM13.9562 10.0043C11.915 10.0029 10.2592 11.6574 10.2578 13.6985C10.2564 15.7397 11.9109 17.3955 13.952 17.3969C15.9932 17.3983 17.649 15.7438 17.6504 13.7027C17.6518 11.6601 15.9973 10.0043 13.9562 10.0043ZM13.9299 16.0877C12.6097 16.0753 11.5491 14.9967 11.5615 13.6764C11.5739 12.3562 12.6525 11.2956 13.9728 11.308C15.293 11.3204 16.3536 12.399 16.3412 13.7193C16.3302 15.0395 15.2502 16.1001 13.9299 16.0877ZM18.6613 9.86344C18.6599 10.3413 18.2719 10.728 17.794 10.7266C17.3162 10.7252 16.9295 10.3371 16.9309 9.8593C16.9323 9.38146 17.3204 8.99478 17.7982 8.99616C18.276 8.99754 18.6627 9.38561 18.6613 9.86344Z" fill="white"/>
<path d="M21.045 10.1093C20.9483 9.1605 20.5851 8.32084 19.8794 7.64966C19.1378 6.9412 18.2304 6.62909 17.2361 6.57523C15.5416 6.4827 11.5187 6.4247 10.1059 6.65533C8.49149 6.91772 7.43362 7.85958 6.98755 9.45466C6.64368 10.681 6.71273 16.3349 6.91298 17.5461C7.18642 19.2033 8.16557 20.2667 9.80898 20.6906C10.9456 20.9848 16.5346 20.9461 17.7885 20.7431C19.4471 20.4752 20.5147 19.5002 20.9455 17.8609C21.2756 16.6014 21.161 11.2445 21.045 10.1093ZM19.7178 17.3127C19.5245 18.5722 18.6889 19.3524 17.4239 19.4905C16.2611 19.6176 11.0685 19.688 9.98989 19.387C8.95827 19.0983 8.36858 18.3899 8.19733 17.3513C8.03437 16.3598 7.99294 11.4033 8.19457 10.0761C8.38515 8.82767 9.21928 8.04878 10.4788 7.90791C11.7562 7.76429 16.3509 7.7491 17.5745 7.93691C18.8312 8.13026 19.6101 8.96716 19.7482 10.2349C19.8766 11.4171 19.9139 16.0407 19.7178 17.3127ZM13.9562 10.0043C11.915 10.0029 10.2592 11.6574 10.2578 13.6985C10.2564 15.7397 11.9109 17.3955 13.952 17.3969C15.9932 17.3983 17.649 15.7438 17.6504 13.7027C17.6518 11.6601 15.9973 10.0043 13.9562 10.0043ZM13.9299 16.0877C12.6097 16.0753 11.5491 14.9967 11.5615 13.6764C11.5739 12.3562 12.6525 11.2956 13.9728 11.308C15.293 11.3204 16.3536 12.399 16.3412 13.7193C16.3302 15.0395 15.2502 16.1001 13.9299 16.0877ZM18.6613 9.86344C18.6599 10.3413 18.2719 10.728 17.794 10.7266C17.3162 10.7252 16.9295 10.3371 16.9309 9.8593C16.9323 9.38146 17.3204 8.99478 17.7982 8.99616C18.276 8.99754 18.6627 9.38561 18.6613 9.86344Z" fill="white"/>
<defs>
<linearGradient id="paint0_linear_839_221" x1="27.0855" y1="-2.67916" x2="5.295" y2="24.1621" gradientUnits="userSpaceOnUse">
<stop offset="0.0108" stop-color="#3542E0"/>
<stop offset="0.1748" stop-color="#3841DF"/>
<stop offset="0.2744" stop-color="#403FDA"/>
<stop offset="0.357" stop-color="#4E3CD2"/>
<stop offset="0.4301" stop-color="#6337C7"/>
<stop offset="0.4971" stop-color="#7D31B9"/>
<stop offset="0.5595" stop-color="#9E2AA8"/>
<stop offset="0.6173" stop-color="#C32193"/>
<stop offset="0.6236" stop-color="#C82091"/>
<stop offset="0.7612" stop-color="#F62B37"/>
<stop offset="1" stop-color="#FFC658"/>
</linearGradient>
</defs>
</svg>
