<svg fill="none" height="59" viewBox="0 0 60 59" width="60" xmlns="http://www.w3.org/2000/svg" xmlns:xlink="http://www.w3.org/1999/xlink"><linearGradient id="a" gradientUnits="userSpaceOnUse" x1="-3.47409" x2="72.2512" y1="12.9315" y2="40.3175"><stop offset=".00800497" stop-color="#38dbff"/><stop offset="1" stop-color="#243aff"/></linearGradient><path d="m30 5.57963c-13.1825 0-23.92129 10.73077-23.92129 23.92527 0 13.1847 10.73879 23.9155 23.92129 23.9155 13.1922 0 23.9213-10.7308 23.9213-23.9155 0-13.1945-10.7291-23.92527-23.9213-23.92527zm1.8401 40.89787v3.7684h-4.2352v-3.8658c-6.1531-.7887-9.9696-4.7033-10.3882-10.4387h6.4744c.0973 3.3108 2.2782 5.3654 6.1531 5.3654 3.2129 0 5.6761-1.4509 5.6761-4.0119 0-2.0059-1.6259-3.1647-4.0015-3.6808l-4.7511-.9835c-4.5175-1.0224-8.3925-3.1647-8.3925-8.7541 0-5.0343 3.7776-8.8125 9.2297-9.6012v-3.9145h4.2352v3.9145c5.7345.7498 9.736 4.5669 10.1644 10.2537h-6.4842c-.185-3.0771-2.3756-5.1317-5.5885-5.1317-2.9792 0-4.9848 1.5385-4.9848 3.9632 0 2.1422 1.9083 3.1257 4.0113 3.5444l4.6537.9738c5.5009 1.1685 8.8111 3.8269 8.8111 8.5788 0 5.5407-3.9625 9.5039-10.583 10.02zm-1.8401-40.89787c-13.1825 0-23.92129 10.73077-23.92129 23.92527 0 13.1847 10.73879 23.9155 23.92129 23.9155 13.1922 0 23.9213-10.7308 23.9213-23.9155 0-13.1945-10.7291-23.92527-23.9213-23.92527zm1.8401 40.89787v3.7684h-4.2352v-3.8658c-6.1531-.7887-9.9696-4.7033-10.3882-10.4387h6.4744c.0973 3.3108 2.2782 5.3654 6.1531 5.3654 3.2129 0 5.6761-1.4509 5.6761-4.0119 0-2.0059-1.6259-3.1647-4.0015-3.6808l-4.7511-.9835c-4.5175-1.0224-8.3925-3.1647-8.3925-8.7541 0-5.0343 3.7776-8.8125 9.2297-9.6012v-3.9145h4.2352v3.9145c5.7345.7498 9.736 4.5669 10.1644 10.2537h-6.4842c-.185-3.0771-2.3756-5.1317-5.5885-5.1317-2.9792 0-4.9848 1.5385-4.9848 3.9632 0 2.1422 1.9083 3.1257 4.0113 3.5444l4.6537.9738c5.5009 1.1685 8.8111 3.8269 8.8111 8.5788 0 5.5407-3.9625 9.5039-10.583 10.02zm-1.8401-46.4775c-16.2883 0-29.5 13.2042-29.5 29.5049 0 16.2909 13.2117 29.4951 29.5 29.4951s29.5-13.2042 29.5-29.4951c0-16.3007-13.2117-29.5049-29.5-29.5049zm0 55.8158c-14.5066 0-26.3066-11.8019-26.3066-26.3109s11.8-26.31097 26.3066-26.31097 26.3066 11.80197 26.3066 26.31097-11.8 26.3109-26.3066 26.3109zm0-51.64812c-13.9711 0-25.333 11.36372-25.333 25.33722 0 13.9637 11.3619 25.3372 25.333 25.3372s25.333-11.3735 25.333-25.3372c0-13.9735-11.3619-25.33722-25.333-25.33722zm0 49.73952c-13.4551 0-24.40808-10.945-24.40808-24.4023 0-13.4671 10.95298-24.41214 24.40808-24.41214s24.4081 10.94504 24.4081 24.41214c0 13.4573-10.953 24.4023-24.4081 24.4023zm0-48.32757c-13.1825 0-23.92129 10.73077-23.92129 23.92527 0 13.1847 10.73879 23.9155 23.92129 23.9155 13.1922 0 23.9213-10.7308 23.9213-23.9155 0-13.1945-10.7291-23.92527-23.9213-23.92527zm1.8401 40.89787v3.7684h-4.2352v-3.8658c-6.1531-.7887-9.9696-4.7033-10.3882-10.4387h6.4744c.0973 3.3108 2.2782 5.3654 6.1531 5.3654 3.2129 0 5.6761-1.4509 5.6761-4.0119 0-2.0059-1.6259-3.1647-4.0015-3.6808l-4.7511-.9835c-4.5175-1.0224-8.3925-3.1647-8.3925-8.7541 0-5.0343 3.7776-8.8125 9.2297-9.6012v-3.9145h4.2352v3.9145c5.7345.7498 9.736 4.5669 10.1644 10.2537h-6.4842c-.185-3.0771-2.3756-5.1317-5.5885-5.1317-2.9792 0-4.9848 1.5385-4.9848 3.9632 0 2.1422 1.9083 3.1257 4.0113 3.5444l4.6537.9738c5.5009 1.1685 8.8111 3.8269 8.8111 8.5788 0 5.5407-3.9625 9.5039-10.583 10.02z" fill="url(#a)"/></svg>