<svg fill="none" height="60" viewBox="0 0 62 60" width="62" xmlns="http://www.w3.org/2000/svg" xmlns:xlink="http://www.w3.org/1999/xlink"><linearGradient id="a"><stop offset=".00800497" stop-color="#38dbff"/><stop offset="1" stop-color="#243aff"/></linearGradient><linearGradient id="b" gradientUnits="userSpaceOnUse" x1="-3.94117" x2="49.3234" xlink:href="#a" y1="5.92822" y2="49.7893"/><linearGradient id="c" gradientUnits="userSpaceOnUse" x1="6.78481" x2="14.3225" xlink:href="#a" y1="33.8909" y2="34.5218"/><linearGradient id="d" gradientUnits="userSpaceOnUse" x1="48.6548" x2="56.1925" xlink:href="#a" y1="33.8909" y2="34.5218"/><linearGradient id="e" gradientUnits="userSpaceOnUse" x1="27.7148" x2="35.2525" xlink:href="#a" y1="33.8909" y2="34.5218"/><linearGradient id="f" gradientUnits="userSpaceOnUse" x1="-3.53526" x2="1.22391" xlink:href="#a" y1="55.4739" y2="75.3214"/><path d="m59.1771 27.0475h-56.35002c-1.12 0-2.110002-.71-2.480002-1.77-.3599999-1.06-.010001-2.23.870002-2.92l28.18002-21.81c.94-.73 2.26-.73 3.2 0l28.18 21.81c.89.68 1.24 1.86.87 2.92-.35 1.05-1.35 1.77-2.47 1.77zm-48.7-5.24h41.04l-20.52-15.88z" fill="url(#b)"/><path d="m12.3671 28.9375h-5.23002v22.6h5.23002z" fill="url(#c)"/><path d="m54.2371 28.9375h-5.23v22.6h5.23z" fill="url(#d)"/><path d="m33.2971 28.9375h-5.23v22.6h5.23z" fill="url(#e)"/><path d="m60.8371 54.3276h-60.310031v5.23h60.310031z" fill="url(#f)"/></svg>