<svg width="60" height="57" viewBox="0 0 60 57" fill="none" xmlns="http://www.w3.org/2000/svg">
<path d="M43.404 8.60738H15.9951C15.9951 8.60738 18.7363 2.0091 24.4219 0.586922C27.8726 -0.131981 40.0564 -1.95112 43.404 8.60738Z" fill="url(#paint0_linear_790_631)"/>
<path d="M16.5046 30.4309H43.1008C43.1008 30.4309 40.7316 39.2953 29.8043 40.0392C20.0241 40.0798 16.5046 30.4309 16.5046 30.4309Z" fill="url(#paint1_linear_790_631)"/>
<path d="M42.6601 11.3455H17.4172C14.6354 11.3455 12.3756 13.6022 12.3756 16.3903V22.8198C12.3756 25.6016 14.6323 27.8615 17.4172 27.8615H42.6601C45.4451 27.8615 47.7018 25.6047 47.7018 22.8198V16.3903C47.7018 13.6053 45.4451 11.3455 42.6601 11.3455ZM25.7815 23.2636C25.4502 23.5949 24.9939 23.7981 24.4906 23.7981H20.0241C19.0145 23.7981 18.1987 22.9823 18.1987 21.9727C18.1987 21.4695 18.405 21.0131 18.7332 20.6818C19.0645 20.3505 19.5208 20.1473 20.0241 20.1473H24.4906C25.4971 20.1473 26.316 20.9663 26.316 21.9727C26.3191 22.4759 26.1128 22.9354 25.7815 23.2636Z" fill="url(#paint2_linear_790_631)"/>
<path d="M57.5633 56.4864C54.4282 56.6177 31.6328 56.4958 30.0418 56.4864C29.9855 56.4864 29.9543 56.4864 29.9543 56.4864C28.3602 56.4958 5.56786 56.6177 2.43282 56.4864C-0.814745 56.352 0.335498 53.3045 0.335498 53.3045C0.335498 53.3045 1.34821 49.3099 2.29841 45.2746C3.24549 41.2363 6.49618 40.9862 6.49618 40.9862C6.49618 40.9862 13.9384 39.0921 16.0045 38.6857C18.0674 38.2794 18.2018 40.0392 19.3552 40.9175C24.6594 45.4747 29.276 45.3121 29.9574 45.2559C29.9762 45.2528 29.9887 45.2528 30.0012 45.2528C30.0137 45.2559 30.0262 45.2559 30.0449 45.2559C30.7295 45.309 35.3461 45.4716 40.6503 40.9175C41.8006 40.0392 41.935 38.2763 44.001 38.6857C46.064 39.0921 53.5093 40.9862 53.5093 40.9862C53.5093 40.9862 56.7569 41.2363 57.7039 45.2746C58.651 49.3099 59.6668 53.3045 59.6668 53.3045C59.6668 53.3045 60.8108 56.352 57.5633 56.4864Z" fill="url(#paint3_linear_790_631)"/>
<path d="M30.0387 45.2527V45.2621C30.0199 45.2589 30.0074 45.2589 29.9949 45.2589C30.0262 45.2558 30.0387 45.2527 30.0387 45.2527Z" fill="url(#paint4_linear_790_631)"/>
<path d="M29.9949 45.2558C29.9824 45.2589 29.9699 45.2589 29.9512 45.2589V45.2495C29.9512 45.2526 29.9668 45.2558 29.9949 45.2558Z" fill="url(#paint5_linear_790_631)"/>
<defs>
<linearGradient id="paint0_linear_790_631" x1="14.1489" y1="1.88655" x2="31.2495" y2="21.5799" gradientUnits="userSpaceOnUse">
<stop offset="0.00800497" stop-color="#38DBFF"/>
<stop offset="1" stop-color="#243AFF"/>
</linearGradient>
<linearGradient id="paint1_linear_790_631" x1="14.7131" y1="32.5369" x2="33.993" y2="51.837" gradientUnits="userSpaceOnUse">
<stop offset="0.00800497" stop-color="#38DBFF"/>
<stop offset="1" stop-color="#243AFF"/>
</linearGradient>
<linearGradient id="paint2_linear_790_631" x1="9.99607" y1="14.9654" x2="42.0732" y2="39.7781" gradientUnits="userSpaceOnUse">
<stop offset="0.00800497" stop-color="#38DBFF"/>
<stop offset="1" stop-color="#243AFF"/>
</linearGradient>
<linearGradient id="paint3_linear_790_631" x1="-3.88516" y1="42.5531" x2="31.4589" y2="85.1495" gradientUnits="userSpaceOnUse">
<stop offset="0.00800497" stop-color="#38DBFF"/>
<stop offset="1" stop-color="#243AFF"/>
</linearGradient>
<linearGradient id="paint4_linear_790_631" x1="29.992" y1="45.2547" x2="30.0085" y2="45.2826" gradientUnits="userSpaceOnUse">
<stop offset="0.00800497" stop-color="#38DBFF"/>
<stop offset="1" stop-color="#243AFF"/>
</linearGradient>
<linearGradient id="paint5_linear_790_631" x1="29.9482" y1="45.2516" x2="29.9647" y2="45.2794" gradientUnits="userSpaceOnUse">
<stop offset="0.00800497" stop-color="#38DBFF"/>
<stop offset="1" stop-color="#243AFF"/>
</linearGradient>
</defs>
</svg>
