<svg fill="none" height="58" viewBox="0 0 49 58" width="49" xmlns="http://www.w3.org/2000/svg" xmlns:xlink="http://www.w3.org/1999/xlink"><linearGradient id="a" gradientUnits="userSpaceOnUse" x1="-2.38415" x2="60.7013" y1="12.5105" y2="31.4505"><stop offset=".00800497" stop-color="#38dbff"/><stop offset="1" stop-color="#243aff"/></linearGradient><path d="m48.1882 27.4247v-18.10983c-16.3473 3.01393-23.2916-8.636303-23.6706-9.2884326l-.0176-.0264374-.0617.105751c-.7314 1.233759-7.7374 12.143749-23.626454 9.209119v18.10983s-.8988823 21.7229 23.397354 29.5132l.2908.141.2908-.141c24.2962-7.7903 23.3974-29.5132 23.3974-29.5132zm-23.4767 21.3881-.2115.0881v-20.3658h-16.89367c-.02644-.5024-.01763-.7932-.01763-.7932v-12.9368c11.3418 2.0974 16.3473-5.6841 16.8584-6.56536l.0441-.07931v20.37467h16.8937c-.1322 3.2342-1.6832 15.4748-16.6734 20.2777z" fill="url(#a)"/></svg>