<svg width="28" height="29" viewBox="0 0 28 29" fill="none" xmlns="http://www.w3.org/2000/svg">
<path d="M14.1741 0.868279C10.5389 0.868279 7.05266 2.31233 4.48223 4.88276C1.9118 7.45319 0.467743 10.9394 0.467743 14.5746C0.467743 18.2097 1.9118 21.696 4.48223 24.2664C7.05266 26.8368 10.5389 28.2809 14.1741 28.2809C17.8092 28.2809 21.2954 26.8368 23.8659 24.2664C26.4363 21.696 27.8804 18.2097 27.8804 14.5746C27.8804 10.9394 26.4363 7.45319 23.8659 4.88276C21.2954 2.31233 17.8092 0.868279 14.1741 0.868279Z" fill="#0A9EE5"/>
<path d="M20.9929 8.40682L18.4257 21.5142C18.4257 21.5142 18.3154 22.1131 17.5725 22.1131C17.1778 22.1131 16.9742 21.9254 16.9742 21.9254L11.4136 17.3111L8.69288 15.9398L5.2012 15.0112C5.2012 15.0112 4.57962 14.8317 4.57962 14.3177C4.57962 13.8893 5.21902 13.6851 5.21902 13.6851L19.8272 7.88187C19.8272 7.88187 20.2733 7.72082 20.5989 7.72151C20.799 7.72151 21.0272 7.80717 21.0272 8.06416C21.0272 8.23549 20.9929 8.40682 20.9929 8.40682Z" fill="white"/>
<path d="M13.4887 19.0325L11.1408 21.3448C11.1408 21.3448 11.0387 21.4236 10.9023 21.427C10.8551 21.4284 10.8043 21.4208 10.7523 21.3975L11.4129 17.3096L13.4887 19.0325Z" fill="#B0BEC5"/>
<path d="M18.2154 10.597C18.0996 10.4463 17.8857 10.4189 17.735 10.5333L8.69156 15.9452C8.69156 15.9452 10.1348 19.9831 10.3548 20.6821C10.5755 21.3818 10.7523 21.3983 10.7523 21.3983L11.4129 17.3104L18.151 11.0768C18.3017 10.9623 18.3298 10.7478 18.2154 10.597Z" fill="#CFD8DC"/>
</svg>
