<svg width="29" height="29" viewBox="0 0 29 29" fill="none" xmlns="http://www.w3.org/2000/svg">
<path d="M14.4043 28.2809C21.979 28.2809 28.1194 22.1404 28.1194 14.5658C28.1194 6.99115 21.979 0.850685 14.4043 0.850685C6.82967 0.850685 0.689209 6.99115 0.689209 14.5658C0.689209 22.1404 6.82967 28.2809 14.4043 28.2809Z" fill="#1BA5D4"/>
<path fill-rule="evenodd" clip-rule="evenodd" d="M11.9032 18.6285C10.2275 18.57 9.1808 17.3675 8.90243 16.3904C9.3687 16.4795 9.828 16.4614 10.2845 16.3487C10.297 16.3459 10.3082 16.3375 10.3305 16.3278C9.42298 16.1162 8.72149 15.6305 8.23575 14.8483C7.91284 14.3277 7.75835 13.7585 7.76391 13.1335C8.21765 13.3757 8.69087 13.5107 9.19889 13.5246C8.5169 13.0333 8.05898 12.3903 7.87109 11.5691C7.68458 10.7493 7.80567 9.96851 8.21765 9.23362C9.96301 11.2907 12.1732 12.4181 14.8678 12.6032C14.8483 12.4752 14.8289 12.3639 14.8163 12.2497C14.7272 11.4912 14.8776 10.7827 15.2882 10.1411C15.8003 9.33662 16.5338 8.83695 17.4747 8.68385C18.559 8.50569 19.5054 8.81468 20.2974 9.58297C20.3502 9.63447 20.3948 9.65117 20.4686 9.63447C21.1311 9.49111 21.756 9.25172 22.3447 8.9135C22.3587 8.90515 22.3726 8.89819 22.3879 8.89123C22.3907 8.88845 22.3962 8.88984 22.4088 8.88984C22.1541 9.64004 21.6892 10.2176 21.0281 10.6449C21.653 10.5767 22.2487 10.4111 22.8235 10.162C22.8291 10.1675 22.8319 10.1731 22.8361 10.1773C22.7122 10.3387 22.5939 10.5044 22.4658 10.6602C22.1234 11.082 21.7309 11.4536 21.2939 11.7737C21.2577 11.8016 21.2396 11.828 21.241 11.8753C21.2591 12.3541 21.2396 12.8315 21.1812 13.3075C21.0573 14.3096 20.7775 15.2658 20.3502 16.1789C19.9076 17.1211 19.3328 17.9729 18.6077 18.7203C17.3801 19.9897 15.8992 20.8095 14.1761 21.1895C13.5846 21.3189 12.9847 21.3857 12.3792 21.4024C10.5197 21.4567 8.80083 20.9946 7.21832 20.0175C7.19883 20.0064 7.17795 19.9911 7.14316 19.9688C8.26915 20.0899 9.33947 19.9452 10.3694 19.5234C10.9164 19.298 11.423 19.0043 11.9032 18.6285Z" fill="white"/>
</svg>
