<svg fill="none" height="852" viewBox="0 0 1416 852" width="1416" xmlns="http://www.w3.org/2000/svg"><g fill="#542cea" fill-opacity=".28"><path d="m1415.3 7.92227h-7v-7.787504h-1.1v7.787504h-7v1.1125h7v7.78753h1.1v-7.78753h7z"/><path d="m1415.3 63.5473h-7v-7.7875h-1.1v7.7875h-7v1.1125h7v7.7875h1.1v-7.7875h7z"/><path d="m1415.3 119.172h-7v-7.787h-1.1v7.787h-7v1.113h7v7.787h1.1v-7.787h7z"/><path d="m1415.3 174.797h-7v-7.787h-1.1v7.787h-7v1.113h7v7.787h1.1v-7.787h7z"/><path d="m1415.3 230.422h-7v-7.787h-1.1v7.787h-7v1.113h7v7.787h1.1v-7.787h7z"/><path d="m1415.3 286.047h-7v-7.787h-1.1v7.787h-7v1.113h7v7.787h1.1v-7.787h7z"/><path d="m1415.3 341.672h-7v-7.787h-1.1v7.787h-7v1.113h7v7.787h1.1v-7.787h7z"/><path d="m1415.3 397.297h-7v-7.787h-1.1v7.787h-7v1.113h7v7.787h1.1v-7.787h7z"/><path d="m1415.3 452.922h-7v-7.787h-1.1v7.787h-7v1.113h7v7.787h1.1v-7.787h7z"/><path d="m1415.3 508.547h-7v-7.787h-1.1v7.787h-7v1.113h7v7.787h1.1v-7.787h7z"/><path d="m1415.3 564.172h-7v-7.787h-1.1v7.787h-7v1.113h7v7.787h1.1v-7.787h7z"/><path d="m1415.3 619.797h-7v-7.787h-1.1v7.787h-7v1.113h7v7.787h1.1v-7.787h7z"/><path d="m1415.3 675.422h-7v-7.787h-1.1v7.787h-7v1.113h7v7.787h1.1v-7.787h7z"/><path d="m1415.3 731.047h-7v-7.787h-1.1v7.787h-7v1.113h7v7.787h1.1v-7.787h7z"/><path d="m1415.3 786.672h-7v-7.787h-1.1v7.787h-7v1.113h7v7.787h1.1v-7.787h7z"/><path d="m1415.3 842.297h-7v-7.787h-1.1v7.787h-7v1.113h7v7.787h1.1v-7.787h7z"/><path d="m1365.3 7.92227h-7v-7.787504h-1.1v7.787504h-7v1.1125h7v7.78753h1.1v-7.78753h7z"/><path d="m1365.3 63.5473h-7v-7.7875h-1.1v7.7875h-7v1.1125h7v7.7875h1.1v-7.7875h7z"/><path d="m1365.3 119.172h-7v-7.787h-1.1v7.787h-7v1.113h7v7.787h1.1v-7.787h7z"/><path d="m1365.3 174.797h-7v-7.787h-1.1v7.787h-7v1.113h7v7.787h1.1v-7.787h7z"/><path d="m1365.3 230.422h-7v-7.787h-1.1v7.787h-7v1.113h7v7.787h1.1v-7.787h7z"/><path d="m1365.3 286.047h-7v-7.787h-1.1v7.787h-7v1.113h7v7.787h1.1v-7.787h7z"/><path d="m1365.3 341.672h-7v-7.787h-1.1v7.787h-7v1.113h7v7.787h1.1v-7.787h7z"/><path d="m1365.3 397.297h-7v-7.787h-1.1v7.787h-7v1.113h7v7.787h1.1v-7.787h7z"/><path d="m1365.3 452.922h-7v-7.787h-1.1v7.787h-7v1.113h7v7.787h1.1v-7.787h7z"/><path d="m1365.3 508.547h-7v-7.787h-1.1v7.787h-7v1.113h7v7.787h1.1v-7.787h7z"/><path d="m1365.3 564.172h-7v-7.787h-1.1v7.787h-7v1.113h7v7.787h1.1v-7.787h7z"/><path d="m1365.3 619.797h-7v-7.787h-1.1v7.787h-7v1.113h7v7.787h1.1v-7.787h7z"/><path d="m1365.3 675.422h-7v-7.787h-1.1v7.787h-7v1.113h7v7.787h1.1v-7.787h7z"/><path d="m1365.3 731.047h-7v-7.787h-1.1v7.787h-7v1.113h7v7.787h1.1v-7.787h7z"/><path d="m1365.3 786.672h-7v-7.787h-1.1v7.787h-7v1.113h7v7.787h1.1v-7.787h7z"/><path d="m1365.3 842.297h-7v-7.787h-1.1v7.787h-7v1.113h7v7.787h1.1v-7.787h7z"/><path d="m1315.3 7.92227h-7v-7.787504h-1.1v7.787504h-7v1.1125h7v7.78753h1.1v-7.78753h7z"/><path d="m1315.3 63.5473h-7v-7.7875h-1.1v7.7875h-7v1.1125h7v7.7875h1.1v-7.7875h7z"/><path d="m1315.3 119.172h-7v-7.787h-1.1v7.787h-7v1.113h7v7.787h1.1v-7.787h7z"/><path d="m1315.3 174.797h-7v-7.787h-1.1v7.787h-7v1.113h7v7.787h1.1v-7.787h7z"/><path d="m1315.3 230.422h-7v-7.787h-1.1v7.787h-7v1.113h7v7.787h1.1v-7.787h7z"/><path d="m1315.3 286.047h-7v-7.787h-1.1v7.787h-7v1.113h7v7.787h1.1v-7.787h7z"/><path d="m1315.3 341.672h-7v-7.787h-1.1v7.787h-7v1.113h7v7.787h1.1v-7.787h7z"/><path d="m1315.3 397.297h-7v-7.787h-1.1v7.787h-7v1.113h7v7.787h1.1v-7.787h7z"/><path d="m1315.3 452.922h-7v-7.787h-1.1v7.787h-7v1.113h7v7.787h1.1v-7.787h7z"/><path d="m1315.3 508.547h-7v-7.787h-1.1v7.787h-7v1.113h7v7.787h1.1v-7.787h7z"/><path d="m1315.3 564.172h-7v-7.787h-1.1v7.787h-7v1.113h7v7.787h1.1v-7.787h7z"/><path d="m1315.3 619.797h-7v-7.787h-1.1v7.787h-7v1.113h7v7.787h1.1v-7.787h7z"/><path d="m1315.3 675.422h-7v-7.787h-1.1v7.787h-7v1.113h7v7.787h1.1v-7.787h7z"/><path d="m1315.3 731.047h-7v-7.787h-1.1v7.787h-7v1.113h7v7.787h1.1v-7.787h7z"/><path d="m1315.3 786.672h-7v-7.787h-1.1v7.787h-7v1.113h7v7.787h1.1v-7.787h7z"/><path d="m1315.3 842.297h-7v-7.787h-1.1v7.787h-7v1.113h7v7.787h1.1v-7.787h7z"/><path d="m1265.3 7.92227h-7v-7.787504h-1.1v7.787504h-7v1.1125h7v7.78753h1.1v-7.78753h7z"/><path d="m1265.3 63.5473h-7v-7.7875h-1.1v7.7875h-7v1.1125h7v7.7875h1.1v-7.7875h7z"/><path d="m1265.3 119.172h-7v-7.787h-1.1v7.787h-7v1.113h7v7.787h1.1v-7.787h7z"/><path d="m1265.3 174.797h-7v-7.787h-1.1v7.787h-7v1.113h7v7.787h1.1v-7.787h7z"/><path d="m1265.3 230.422h-7v-7.787h-1.1v7.787h-7v1.113h7v7.787h1.1v-7.787h7z"/><path d="m1265.3 286.047h-7v-7.787h-1.1v7.787h-7v1.113h7v7.787h1.1v-7.787h7z"/><path d="m1265.3 341.672h-7v-7.787h-1.1v7.787h-7v1.113h7v7.787h1.1v-7.787h7z"/><path d="m1265.3 397.297h-7v-7.787h-1.1v7.787h-7v1.113h7v7.787h1.1v-7.787h7z"/><path d="m1265.3 452.922h-7v-7.787h-1.1v7.787h-7v1.113h7v7.787h1.1v-7.787h7z"/><path d="m1265.3 508.547h-7v-7.787h-1.1v7.787h-7v1.113h7v7.787h1.1v-7.787h7z"/><path d="m1265.3 564.172h-7v-7.787h-1.1v7.787h-7v1.113h7v7.787h1.1v-7.787h7z"/><path d="m1265.3 619.797h-7v-7.787h-1.1v7.787h-7v1.113h7v7.787h1.1v-7.787h7z"/><path d="m1265.3 675.422h-7v-7.787h-1.1v7.787h-7v1.113h7v7.787h1.1v-7.787h7z"/><path d="m1265.3 731.047h-7v-7.787h-1.1v7.787h-7v1.113h7v7.787h1.1v-7.787h7z"/><path d="m1265.3 786.672h-7v-7.787h-1.1v7.787h-7v1.113h7v7.787h1.1v-7.787h7z"/><path d="m1265.3 842.297h-7v-7.787h-1.1v7.787h-7v1.113h7v7.787h1.1v-7.787h7z"/><path d="m1215.3 7.92227h-7v-7.787504h-1.1v7.787504h-7v1.1125h7v7.78753h1.1v-7.78753h7z"/><path d="m1215.3 63.5473h-7v-7.7875h-1.1v7.7875h-7v1.1125h7v7.7875h1.1v-7.7875h7z"/><path d="m1215.3 119.172h-7v-7.787h-1.1v7.787h-7v1.113h7v7.787h1.1v-7.787h7z"/><path d="m1215.3 174.797h-7v-7.787h-1.1v7.787h-7v1.113h7v7.787h1.1v-7.787h7z"/><path d="m1215.3 230.422h-7v-7.787h-1.1v7.787h-7v1.113h7v7.787h1.1v-7.787h7z"/><path d="m1215.3 286.047h-7v-7.787h-1.1v7.787h-7v1.113h7v7.787h1.1v-7.787h7z"/><path d="m1215.3 341.672h-7v-7.787h-1.1v7.787h-7v1.113h7v7.787h1.1v-7.787h7z"/><path d="m1215.3 397.297h-7v-7.787h-1.1v7.787h-7v1.113h7v7.787h1.1v-7.787h7z"/><path d="m1215.3 452.922h-7v-7.787h-1.1v7.787h-7v1.113h7v7.787h1.1v-7.787h7z"/><path d="m1215.3 508.547h-7v-7.787h-1.1v7.787h-7v1.113h7v7.787h1.1v-7.787h7z"/><path d="m1215.3 564.172h-7v-7.787h-1.1v7.787h-7v1.113h7v7.787h1.1v-7.787h7z"/><path d="m1215.3 619.797h-7v-7.787h-1.1v7.787h-7v1.113h7v7.787h1.1v-7.787h7z"/><path d="m1215.3 675.422h-7v-7.787h-1.1v7.787h-7v1.113h7v7.787h1.1v-7.787h7z"/><path d="m1215.3 731.047h-7v-7.787h-1.1v7.787h-7v1.113h7v7.787h1.1v-7.787h7z"/><path d="m1215.3 786.672h-7v-7.787h-1.1v7.787h-7v1.113h7v7.787h1.1v-7.787h7z"/><path d="m1215.3 842.297h-7v-7.787h-1.1v7.787h-7v1.113h7v7.787h1.1v-7.787h7z"/><path d="m1165.3 7.92227h-7v-7.787504h-1.1v7.787504h-7v1.1125h7v7.78753h1.1v-7.78753h7z"/><path d="m1165.3 63.5473h-7v-7.7875h-1.1v7.7875h-7v1.1125h7v7.7875h1.1v-7.7875h7z"/><path d="m1165.3 119.172h-7v-7.787h-1.1v7.787h-7v1.113h7v7.787h1.1v-7.787h7z"/><path d="m1165.3 174.797h-7v-7.787h-1.1v7.787h-7v1.113h7v7.787h1.1v-7.787h7z"/><path d="m1165.3 230.422h-7v-7.787h-1.1v7.787h-7v1.113h7v7.787h1.1v-7.787h7z"/><path d="m1165.3 286.047h-7v-7.787h-1.1v7.787h-7v1.113h7v7.787h1.1v-7.787h7z"/><path d="m1165.3 341.672h-7v-7.787h-1.1v7.787h-7v1.113h7v7.787h1.1v-7.787h7z"/><path d="m1165.3 397.297h-7v-7.787h-1.1v7.787h-7v1.113h7v7.787h1.1v-7.787h7z"/><path d="m1165.3 452.922h-7v-7.787h-1.1v7.787h-7v1.113h7v7.787h1.1v-7.787h7z"/><path d="m1165.3 508.547h-7v-7.787h-1.1v7.787h-7v1.113h7v7.787h1.1v-7.787h7z"/><path d="m1165.3 564.172h-7v-7.787h-1.1v7.787h-7v1.113h7v7.787h1.1v-7.787h7z"/><path d="m1165.3 619.797h-7v-7.787h-1.1v7.787h-7v1.113h7v7.787h1.1v-7.787h7z"/><path d="m1165.3 675.422h-7v-7.787h-1.1v7.787h-7v1.113h7v7.787h1.1v-7.787h7z"/><path d="m1165.3 731.047h-7v-7.787h-1.1v7.787h-7v1.113h7v7.787h1.1v-7.787h7z"/><path d="m1165.3 786.672h-7v-7.787h-1.1v7.787h-7v1.113h7v7.787h1.1v-7.787h7z"/><path d="m1165.3 842.297h-7v-7.787h-1.1v7.787h-7v1.113h7v7.787h1.1v-7.787h7z"/><path d="m1115.3 7.92227h-7v-7.787504h-1.1v7.787504h-7v1.1125h7v7.78753h1.1v-7.78753h7z"/><path d="m1115.3 63.5473h-7v-7.7875h-1.1v7.7875h-7v1.1125h7v7.7875h1.1v-7.7875h7z"/><path d="m1115.3 119.172h-7v-7.787h-1.1v7.787h-7v1.113h7v7.787h1.1v-7.787h7z"/><path d="m1115.3 174.797h-7v-7.787h-1.1v7.787h-7v1.113h7v7.787h1.1v-7.787h7z"/><path d="m1115.3 230.422h-7v-7.787h-1.1v7.787h-7v1.113h7v7.787h1.1v-7.787h7z"/><path d="m1115.3 286.047h-7v-7.787h-1.1v7.787h-7v1.113h7v7.787h1.1v-7.787h7z"/><path d="m1115.3 341.672h-7v-7.787h-1.1v7.787h-7v1.113h7v7.787h1.1v-7.787h7z"/><path d="m1115.3 397.297h-7v-7.787h-1.1v7.787h-7v1.113h7v7.787h1.1v-7.787h7z"/><path d="m1115.3 452.922h-7v-7.787h-1.1v7.787h-7v1.113h7v7.787h1.1v-7.787h7z"/><path d="m1115.3 508.547h-7v-7.787h-1.1v7.787h-7v1.113h7v7.787h1.1v-7.787h7z"/><path d="m1115.3 564.172h-7v-7.787h-1.1v7.787h-7v1.113h7v7.787h1.1v-7.787h7z"/><path d="m1115.3 619.797h-7v-7.787h-1.1v7.787h-7v1.113h7v7.787h1.1v-7.787h7z"/><path d="m1115.3 675.422h-7v-7.787h-1.1v7.787h-7v1.113h7v7.787h1.1v-7.787h7z"/><path d="m1115.3 731.047h-7v-7.787h-1.1v7.787h-7v1.113h7v7.787h1.1v-7.787h7z"/><path d="m1115.3 786.672h-7v-7.787h-1.1v7.787h-7v1.113h7v7.787h1.1v-7.787h7z"/><path d="m1115.3 842.297h-7v-7.787h-1.1v7.787h-7v1.113h7v7.787h1.1v-7.787h7z"/><path d="m1065.3 7.92227h-7v-7.787504h-1.1v7.787504h-7v1.1125h7v7.78753h1.1v-7.78753h7z"/><path d="m1065.3 63.5473h-7v-7.7875h-1.1v7.7875h-7v1.1125h7v7.7875h1.1v-7.7875h7z"/><path d="m1065.3 119.172h-7v-7.787h-1.1v7.787h-7v1.113h7v7.787h1.1v-7.787h7z"/><path d="m1065.3 174.797h-7v-7.787h-1.1v7.787h-7v1.113h7v7.787h1.1v-7.787h7z"/><path d="m1065.3 230.422h-7v-7.787h-1.1v7.787h-7v1.113h7v7.787h1.1v-7.787h7z"/><path d="m1065.3 286.047h-7v-7.787h-1.1v7.787h-7v1.113h7v7.787h1.1v-7.787h7z"/><path d="m1065.3 341.672h-7v-7.787h-1.1v7.787h-7v1.113h7v7.787h1.1v-7.787h7z"/><path d="m1065.3 397.297h-7v-7.787h-1.1v7.787h-7v1.113h7v7.787h1.1v-7.787h7z"/><path d="m1065.3 452.922h-7v-7.787h-1.1v7.787h-7v1.113h7v7.787h1.1v-7.787h7z"/><path d="m1065.3 508.547h-7v-7.787h-1.1v7.787h-7v1.113h7v7.787h1.1v-7.787h7z"/><path d="m1065.3 564.172h-7v-7.787h-1.1v7.787h-7v1.113h7v7.787h1.1v-7.787h7z"/><path d="m1065.3 619.797h-7v-7.787h-1.1v7.787h-7v1.113h7v7.787h1.1v-7.787h7z"/><path d="m1065.3 675.422h-7v-7.787h-1.1v7.787h-7v1.113h7v7.787h1.1v-7.787h7z"/><path d="m1065.3 731.047h-7v-7.787h-1.1v7.787h-7v1.113h7v7.787h1.1v-7.787h7z"/><path d="m1065.3 786.672h-7v-7.787h-1.1v7.787h-7v1.113h7v7.787h1.1v-7.787h7z"/><path d="m1065.3 842.297h-7v-7.787h-1.1v7.787h-7v1.113h7v7.787h1.1v-7.787h7z"/><path d="m1015.3 7.92227h-7v-7.787504h-1.1v7.787504h-7v1.1125h7v7.78753h1.1v-7.78753h7z"/><path d="m1015.3 63.5473h-7v-7.7875h-1.1v7.7875h-7v1.1125h7v7.7875h1.1v-7.7875h7z"/><path d="m1015.3 119.172h-7v-7.787h-1.1v7.787h-7v1.113h7v7.787h1.1v-7.787h7z"/><path d="m1015.3 174.797h-7v-7.787h-1.1v7.787h-7v1.113h7v7.787h1.1v-7.787h7z"/><path d="m1015.3 230.422h-7v-7.787h-1.1v7.787h-7v1.113h7v7.787h1.1v-7.787h7z"/><path d="m1015.3 286.047h-7v-7.787h-1.1v7.787h-7v1.113h7v7.787h1.1v-7.787h7z"/><path d="m1015.3 341.672h-7v-7.787h-1.1v7.787h-7v1.113h7v7.787h1.1v-7.787h7z"/><path d="m1015.3 397.297h-7v-7.787h-1.1v7.787h-7v1.113h7v7.787h1.1v-7.787h7z"/><path d="m1015.3 452.922h-7v-7.787h-1.1v7.787h-7v1.113h7v7.787h1.1v-7.787h7z"/><path d="m1015.3 508.547h-7v-7.787h-1.1v7.787h-7v1.113h7v7.787h1.1v-7.787h7z"/><path d="m1015.3 564.172h-7v-7.787h-1.1v7.787h-7v1.113h7v7.787h1.1v-7.787h7z"/><path d="m1015.3 619.797h-7v-7.787h-1.1v7.787h-7v1.113h7v7.787h1.1v-7.787h7z"/><path d="m1015.3 675.422h-7v-7.787h-1.1v7.787h-7v1.113h7v7.787h1.1v-7.787h7z"/><path d="m1015.3 731.047h-7v-7.787h-1.1v7.787h-7v1.113h7v7.787h1.1v-7.787h7z"/><path d="m1015.3 786.672h-7v-7.787h-1.1v7.787h-7v1.113h7v7.787h1.1v-7.787h7z"/><path d="m1015.3 842.297h-7v-7.787h-1.1v7.787h-7v1.113h7v7.787h1.1v-7.787h7z"/><path d="m965.3 7.92227h-7v-7.787504h-1.1v7.787504h-7v1.1125h7v7.78753h1.1v-7.78753h7z"/><path d="m965.3 63.5473h-7v-7.7875h-1.1v7.7875h-7v1.1125h7v7.7875h1.1v-7.7875h7z"/><path d="m965.3 119.172h-7v-7.787h-1.1v7.787h-7v1.113h7v7.787h1.1v-7.787h7z"/><path d="m965.3 174.797h-7v-7.787h-1.1v7.787h-7v1.113h7v7.787h1.1v-7.787h7z"/><path d="m965.3 230.422h-7v-7.787h-1.1v7.787h-7v1.113h7v7.787h1.1v-7.787h7z"/><path d="m965.3 286.047h-7v-7.787h-1.1v7.787h-7v1.113h7v7.787h1.1v-7.787h7z"/><path d="m965.3 341.672h-7v-7.787h-1.1v7.787h-7v1.113h7v7.787h1.1v-7.787h7z"/><path d="m965.3 397.297h-7v-7.787h-1.1v7.787h-7v1.113h7v7.787h1.1v-7.787h7z"/><path d="m965.3 452.922h-7v-7.787h-1.1v7.787h-7v1.113h7v7.787h1.1v-7.787h7z"/><path d="m965.3 508.547h-7v-7.787h-1.1v7.787h-7v1.113h7v7.787h1.1v-7.787h7z"/><path d="m965.3 564.172h-7v-7.787h-1.1v7.787h-7v1.113h7v7.787h1.1v-7.787h7z"/><path d="m965.3 619.797h-7v-7.787h-1.1v7.787h-7v1.113h7v7.787h1.1v-7.787h7z"/><path d="m965.3 675.422h-7v-7.787h-1.1v7.787h-7v1.113h7v7.787h1.1v-7.787h7z"/><path d="m965.3 731.047h-7v-7.787h-1.1v7.787h-7v1.113h7v7.787h1.1v-7.787h7z"/><path d="m965.3 786.672h-7v-7.787h-1.1v7.787h-7v1.113h7v7.787h1.1v-7.787h7z"/><path d="m965.3 842.297h-7v-7.787h-1.1v7.787h-7v1.113h7v7.787h1.1v-7.787h7z"/><path d="m915.3 7.92227h-7v-7.787504h-1.1v7.787504h-7v1.1125h7v7.78753h1.1v-7.78753h7z"/><path d="m915.3 63.5473h-7v-7.7875h-1.1v7.7875h-7v1.1125h7v7.7875h1.1v-7.7875h7z"/><path d="m915.3 119.172h-7v-7.787h-1.1v7.787h-7v1.113h7v7.787h1.1v-7.787h7z"/><path d="m915.3 174.797h-7v-7.787h-1.1v7.787h-7v1.113h7v7.787h1.1v-7.787h7z"/><path d="m915.3 230.422h-7v-7.787h-1.1v7.787h-7v1.113h7v7.787h1.1v-7.787h7z"/><path d="m915.3 286.047h-7v-7.787h-1.1v7.787h-7v1.113h7v7.787h1.1v-7.787h7z"/><path d="m915.3 341.672h-7v-7.787h-1.1v7.787h-7v1.113h7v7.787h1.1v-7.787h7z"/><path d="m915.3 397.297h-7v-7.787h-1.1v7.787h-7v1.113h7v7.787h1.1v-7.787h7z"/><path d="m915.3 452.922h-7v-7.787h-1.1v7.787h-7v1.113h7v7.787h1.1v-7.787h7z"/><path d="m915.3 508.547h-7v-7.787h-1.1v7.787h-7v1.113h7v7.787h1.1v-7.787h7z"/><path d="m915.3 564.172h-7v-7.787h-1.1v7.787h-7v1.113h7v7.787h1.1v-7.787h7z"/><path d="m915.3 619.797h-7v-7.787h-1.1v7.787h-7v1.113h7v7.787h1.1v-7.787h7z"/><path d="m915.3 675.422h-7v-7.787h-1.1v7.787h-7v1.113h7v7.787h1.1v-7.787h7z"/><path d="m915.3 731.047h-7v-7.787h-1.1v7.787h-7v1.113h7v7.787h1.1v-7.787h7z"/><path d="m915.3 786.672h-7v-7.787h-1.1v7.787h-7v1.113h7v7.787h1.1v-7.787h7z"/><path d="m915.3 842.297h-7v-7.787h-1.1v7.787h-7v1.113h7v7.787h1.1v-7.787h7z"/><path d="m865.3 7.92227h-7v-7.787504h-1.1v7.787504h-7v1.1125h7v7.78753h1.1v-7.78753h7z"/><path d="m865.3 63.5473h-7v-7.7875h-1.1v7.7875h-7v1.1125h7v7.7875h1.1v-7.7875h7z"/><path d="m865.3 119.172h-7v-7.787h-1.1v7.787h-7v1.113h7v7.787h1.1v-7.787h7z"/><path d="m865.3 174.797h-7v-7.787h-1.1v7.787h-7v1.113h7v7.787h1.1v-7.787h7z"/><path d="m865.3 230.422h-7v-7.787h-1.1v7.787h-7v1.113h7v7.787h1.1v-7.787h7z"/><path d="m865.3 286.047h-7v-7.787h-1.1v7.787h-7v1.113h7v7.787h1.1v-7.787h7z"/><path d="m865.3 341.672h-7v-7.787h-1.1v7.787h-7v1.113h7v7.787h1.1v-7.787h7z"/><path d="m865.3 397.297h-7v-7.787h-1.1v7.787h-7v1.113h7v7.787h1.1v-7.787h7z"/><path d="m865.3 452.922h-7v-7.787h-1.1v7.787h-7v1.113h7v7.787h1.1v-7.787h7z"/><path d="m865.3 508.547h-7v-7.787h-1.1v7.787h-7v1.113h7v7.787h1.1v-7.787h7z"/><path d="m865.3 564.172h-7v-7.787h-1.1v7.787h-7v1.113h7v7.787h1.1v-7.787h7z"/><path d="m865.3 619.797h-7v-7.787h-1.1v7.787h-7v1.113h7v7.787h1.1v-7.787h7z"/><path d="m865.3 675.422h-7v-7.787h-1.1v7.787h-7v1.113h7v7.787h1.1v-7.787h7z"/><path d="m865.3 731.047h-7v-7.787h-1.1v7.787h-7v1.113h7v7.787h1.1v-7.787h7z"/><path d="m865.3 786.672h-7v-7.787h-1.1v7.787h-7v1.113h7v7.787h1.1v-7.787h7z"/><path d="m865.3 842.297h-7v-7.787h-1.1v7.787h-7v1.113h7v7.787h1.1v-7.787h7z"/><path d="m815.3 7.92227h-7v-7.787504h-1.1v7.787504h-7v1.1125h7v7.78753h1.1v-7.78753h7z"/><path d="m815.3 63.5473h-7v-7.7875h-1.1v7.7875h-7v1.1125h7v7.7875h1.1v-7.7875h7z"/><path d="m815.3 119.172h-7v-7.787h-1.1v7.787h-7v1.113h7v7.787h1.1v-7.787h7z"/><path d="m815.3 174.797h-7v-7.787h-1.1v7.787h-7v1.113h7v7.787h1.1v-7.787h7z"/><path d="m815.3 230.422h-7v-7.787h-1.1v7.787h-7v1.113h7v7.787h1.1v-7.787h7z"/><path d="m815.3 286.047h-7v-7.787h-1.1v7.787h-7v1.113h7v7.787h1.1v-7.787h7z"/><path d="m815.3 341.672h-7v-7.787h-1.1v7.787h-7v1.113h7v7.787h1.1v-7.787h7z"/><path d="m815.3 397.297h-7v-7.787h-1.1v7.787h-7v1.113h7v7.787h1.1v-7.787h7z"/><path d="m815.3 452.922h-7v-7.787h-1.1v7.787h-7v1.113h7v7.787h1.1v-7.787h7z"/><path d="m815.3 508.547h-7v-7.787h-1.1v7.787h-7v1.113h7v7.787h1.1v-7.787h7z"/><path d="m815.3 564.172h-7v-7.787h-1.1v7.787h-7v1.113h7v7.787h1.1v-7.787h7z"/><path d="m815.3 619.797h-7v-7.787h-1.1v7.787h-7v1.113h7v7.787h1.1v-7.787h7z"/><path d="m815.3 675.422h-7v-7.787h-1.1v7.787h-7v1.113h7v7.787h1.1v-7.787h7z"/><path d="m815.3 731.047h-7v-7.787h-1.1v7.787h-7v1.113h7v7.787h1.1v-7.787h7z"/><path d="m815.3 786.672h-7v-7.787h-1.1v7.787h-7v1.113h7v7.787h1.1v-7.787h7z"/><path d="m815.3 842.297h-7v-7.787h-1.1v7.787h-7v1.113h7v7.787h1.1v-7.787h7z"/><path d="m765.3 7.92227h-7v-7.787504h-1.1v7.787504h-7v1.1125h7v7.78753h1.1v-7.78753h7z"/><path d="m765.3 63.5473h-7v-7.7875h-1.1v7.7875h-7v1.1125h7v7.7875h1.1v-7.7875h7z"/><path d="m765.3 119.172h-7v-7.787h-1.1v7.787h-7v1.113h7v7.787h1.1v-7.787h7z"/><path d="m765.3 174.797h-7v-7.787h-1.1v7.787h-7v1.113h7v7.787h1.1v-7.787h7z"/><path d="m765.3 230.422h-7v-7.787h-1.1v7.787h-7v1.113h7v7.787h1.1v-7.787h7z"/><path d="m765.3 286.047h-7v-7.787h-1.1v7.787h-7v1.113h7v7.787h1.1v-7.787h7z"/><path d="m765.3 341.672h-7v-7.787h-1.1v7.787h-7v1.113h7v7.787h1.1v-7.787h7z"/><path d="m765.3 397.297h-7v-7.787h-1.1v7.787h-7v1.113h7v7.787h1.1v-7.787h7z"/><path d="m765.3 452.922h-7v-7.787h-1.1v7.787h-7v1.113h7v7.787h1.1v-7.787h7z"/><path d="m765.3 508.547h-7v-7.787h-1.1v7.787h-7v1.113h7v7.787h1.1v-7.787h7z"/><path d="m765.3 564.172h-7v-7.787h-1.1v7.787h-7v1.113h7v7.787h1.1v-7.787h7z"/><path d="m765.3 619.797h-7v-7.787h-1.1v7.787h-7v1.113h7v7.787h1.1v-7.787h7z"/><path d="m765.3 675.422h-7v-7.787h-1.1v7.787h-7v1.113h7v7.787h1.1v-7.787h7z"/><path d="m765.3 731.047h-7v-7.787h-1.1v7.787h-7v1.113h7v7.787h1.1v-7.787h7z"/><path d="m765.3 786.672h-7v-7.787h-1.1v7.787h-7v1.113h7v7.787h1.1v-7.787h7z"/><path d="m765.3 842.297h-7v-7.787h-1.1v7.787h-7v1.113h7v7.787h1.1v-7.787h7z"/><path d="m715.3 7.92227h-7v-7.787504h-1.1v7.787504h-7v1.1125h7v7.78753h1.1v-7.78753h7z"/><path d="m715.3 63.5473h-7v-7.7875h-1.1v7.7875h-7v1.1125h7v7.7875h1.1v-7.7875h7z"/><path d="m715.3 119.172h-7v-7.787h-1.1v7.787h-7v1.113h7v7.787h1.1v-7.787h7z"/><path d="m715.3 174.797h-7v-7.787h-1.1v7.787h-7v1.113h7v7.787h1.1v-7.787h7z"/><path d="m715.3 230.422h-7v-7.787h-1.1v7.787h-7v1.113h7v7.787h1.1v-7.787h7z"/><path d="m715.3 286.047h-7v-7.787h-1.1v7.787h-7v1.113h7v7.787h1.1v-7.787h7z"/><path d="m715.3 341.672h-7v-7.787h-1.1v7.787h-7v1.113h7v7.787h1.1v-7.787h7z"/><path d="m715.3 397.297h-7v-7.787h-1.1v7.787h-7v1.113h7v7.787h1.1v-7.787h7z"/><path d="m715.3 452.922h-7v-7.787h-1.1v7.787h-7v1.113h7v7.787h1.1v-7.787h7z"/><path d="m715.3 508.547h-7v-7.787h-1.1v7.787h-7v1.113h7v7.787h1.1v-7.787h7z"/><path d="m715.3 564.172h-7v-7.787h-1.1v7.787h-7v1.113h7v7.787h1.1v-7.787h7z"/><path d="m715.3 619.797h-7v-7.787h-1.1v7.787h-7v1.113h7v7.787h1.1v-7.787h7z"/><path d="m715.3 675.422h-7v-7.787h-1.1v7.787h-7v1.113h7v7.787h1.1v-7.787h7z"/><path d="m715.3 731.047h-7v-7.787h-1.1v7.787h-7v1.113h7v7.787h1.1v-7.787h7z"/><path d="m715.3 786.672h-7v-7.787h-1.1v7.787h-7v1.113h7v7.787h1.1v-7.787h7z"/><path d="m715.3 842.297h-7v-7.787h-1.1v7.787h-7v1.113h7v7.787h1.1v-7.787h7z"/><path d="m665.3 7.92227h-7v-7.787504h-1.1v7.787504h-7v1.1125h7v7.78753h1.1v-7.78753h7z"/><path d="m665.3 63.5473h-7v-7.7875h-1.1v7.7875h-7v1.1125h7v7.7875h1.1v-7.7875h7z"/><path d="m665.3 119.172h-7v-7.787h-1.1v7.787h-7v1.113h7v7.787h1.1v-7.787h7z"/><path d="m665.3 174.797h-7v-7.787h-1.1v7.787h-7v1.113h7v7.787h1.1v-7.787h7z"/><path d="m665.3 230.422h-7v-7.787h-1.1v7.787h-7v1.113h7v7.787h1.1v-7.787h7z"/><path d="m665.3 286.047h-7v-7.787h-1.1v7.787h-7v1.113h7v7.787h1.1v-7.787h7z"/><path d="m665.3 341.672h-7v-7.787h-1.1v7.787h-7v1.113h7v7.787h1.1v-7.787h7z"/><path d="m665.3 397.297h-7v-7.787h-1.1v7.787h-7v1.113h7v7.787h1.1v-7.787h7z"/><path d="m665.3 452.922h-7v-7.787h-1.1v7.787h-7v1.113h7v7.787h1.1v-7.787h7z"/><path d="m665.3 508.547h-7v-7.787h-1.1v7.787h-7v1.113h7v7.787h1.1v-7.787h7z"/><path d="m665.3 564.172h-7v-7.787h-1.1v7.787h-7v1.113h7v7.787h1.1v-7.787h7z"/><path d="m665.3 619.797h-7v-7.787h-1.1v7.787h-7v1.113h7v7.787h1.1v-7.787h7z"/><path d="m665.3 675.422h-7v-7.787h-1.1v7.787h-7v1.113h7v7.787h1.1v-7.787h7z"/><path d="m665.3 731.047h-7v-7.787h-1.1v7.787h-7v1.113h7v7.787h1.1v-7.787h7z"/><path d="m665.3 786.672h-7v-7.787h-1.1v7.787h-7v1.113h7v7.787h1.1v-7.787h7z"/><path d="m665.3 842.297h-7v-7.787h-1.1v7.787h-7v1.113h7v7.787h1.1v-7.787h7z"/><path d="m615.3 7.92227h-7v-7.787504h-1.1v7.787504h-7v1.1125h7v7.78753h1.1v-7.78753h7z"/><path d="m615.3 63.5473h-7v-7.7875h-1.1v7.7875h-7v1.1125h7v7.7875h1.1v-7.7875h7z"/><path d="m615.3 119.172h-7v-7.787h-1.1v7.787h-7v1.113h7v7.787h1.1v-7.787h7z"/><path d="m615.3 174.797h-7v-7.787h-1.1v7.787h-7v1.113h7v7.787h1.1v-7.787h7z"/><path d="m615.3 230.422h-7v-7.787h-1.1v7.787h-7v1.113h7v7.787h1.1v-7.787h7z"/><path d="m615.3 286.047h-7v-7.787h-1.1v7.787h-7v1.113h7v7.787h1.1v-7.787h7z"/><path d="m615.3 341.672h-7v-7.787h-1.1v7.787h-7v1.113h7v7.787h1.1v-7.787h7z"/><path d="m615.3 397.297h-7v-7.787h-1.1v7.787h-7v1.113h7v7.787h1.1v-7.787h7z"/><path d="m615.3 452.922h-7v-7.787h-1.1v7.787h-7v1.113h7v7.787h1.1v-7.787h7z"/><path d="m615.3 508.547h-7v-7.787h-1.1v7.787h-7v1.113h7v7.787h1.1v-7.787h7z"/><path d="m615.3 564.172h-7v-7.787h-1.1v7.787h-7v1.113h7v7.787h1.1v-7.787h7z"/><path d="m615.3 619.797h-7v-7.787h-1.1v7.787h-7v1.113h7v7.787h1.1v-7.787h7z"/><path d="m615.3 675.422h-7v-7.787h-1.1v7.787h-7v1.113h7v7.787h1.1v-7.787h7z"/><path d="m615.3 731.047h-7v-7.787h-1.1v7.787h-7v1.113h7v7.787h1.1v-7.787h7z"/><path d="m615.3 786.672h-7v-7.787h-1.1v7.787h-7v1.113h7v7.787h1.1v-7.787h7z"/><path d="m615.3 842.297h-7v-7.787h-1.1v7.787h-7v1.113h7v7.787h1.1v-7.787h7z"/><path d="m565.3 7.92227h-7v-7.787504h-1.1v7.787504h-7v1.1125h7v7.78753h1.1v-7.78753h7z"/><path d="m565.3 63.5473h-7v-7.7875h-1.1v7.7875h-7v1.1125h7v7.7875h1.1v-7.7875h7z"/><path d="m565.3 119.172h-7v-7.787h-1.1v7.787h-7v1.113h7v7.787h1.1v-7.787h7z"/><path d="m565.3 174.797h-7v-7.787h-1.1v7.787h-7v1.113h7v7.787h1.1v-7.787h7z"/><path d="m565.3 230.422h-7v-7.787h-1.1v7.787h-7v1.113h7v7.787h1.1v-7.787h7z"/><path d="m565.3 286.047h-7v-7.787h-1.1v7.787h-7v1.113h7v7.787h1.1v-7.787h7z"/><path d="m565.3 341.672h-7v-7.787h-1.1v7.787h-7v1.113h7v7.787h1.1v-7.787h7z"/><path d="m565.3 397.297h-7v-7.787h-1.1v7.787h-7v1.113h7v7.787h1.1v-7.787h7z"/><path d="m565.3 452.922h-7v-7.787h-1.1v7.787h-7v1.113h7v7.787h1.1v-7.787h7z"/><path d="m565.3 508.547h-7v-7.787h-1.1v7.787h-7v1.113h7v7.787h1.1v-7.787h7z"/><path d="m565.3 564.172h-7v-7.787h-1.1v7.787h-7v1.113h7v7.787h1.1v-7.787h7z"/><path d="m565.3 619.797h-7v-7.787h-1.1v7.787h-7v1.113h7v7.787h1.1v-7.787h7z"/><path d="m565.3 675.422h-7v-7.787h-1.1v7.787h-7v1.113h7v7.787h1.1v-7.787h7z"/><path d="m565.3 731.047h-7v-7.787h-1.1v7.787h-7v1.113h7v7.787h1.1v-7.787h7z"/><path d="m565.3 786.672h-7v-7.787h-1.1v7.787h-7v1.113h7v7.787h1.1v-7.787h7z"/><path d="m565.3 842.297h-7v-7.787h-1.1v7.787h-7v1.113h7v7.787h1.1v-7.787h7z"/><path d="m515.3 7.92227h-7v-7.787504h-1.1v7.787504h-7v1.1125h7v7.78753h1.1v-7.78753h7z"/><path d="m515.3 63.5473h-7v-7.7875h-1.1v7.7875h-7v1.1125h7v7.7875h1.1v-7.7875h7z"/><path d="m515.3 119.172h-7v-7.787h-1.1v7.787h-7v1.113h7v7.787h1.1v-7.787h7z"/><path d="m515.3 174.797h-7v-7.787h-1.1v7.787h-7v1.113h7v7.787h1.1v-7.787h7z"/><path d="m515.3 230.422h-7v-7.787h-1.1v7.787h-7v1.113h7v7.787h1.1v-7.787h7z"/><path d="m515.3 286.047h-7v-7.787h-1.1v7.787h-7v1.113h7v7.787h1.1v-7.787h7z"/><path d="m515.3 341.672h-7v-7.787h-1.1v7.787h-7v1.113h7v7.787h1.1v-7.787h7z"/><path d="m515.3 397.297h-7v-7.787h-1.1v7.787h-7v1.113h7v7.787h1.1v-7.787h7z"/><path d="m515.3 452.922h-7v-7.787h-1.1v7.787h-7v1.113h7v7.787h1.1v-7.787h7z"/><path d="m515.3 508.547h-7v-7.787h-1.1v7.787h-7v1.113h7v7.787h1.1v-7.787h7z"/><path d="m515.3 564.172h-7v-7.787h-1.1v7.787h-7v1.113h7v7.787h1.1v-7.787h7z"/><path d="m515.3 619.797h-7v-7.787h-1.1v7.787h-7v1.113h7v7.787h1.1v-7.787h7z"/><path d="m515.3 675.422h-7v-7.787h-1.1v7.787h-7v1.113h7v7.787h1.1v-7.787h7z"/><path d="m515.3 731.047h-7v-7.787h-1.1v7.787h-7v1.113h7v7.787h1.1v-7.787h7z"/><path d="m515.3 786.672h-7v-7.787h-1.1v7.787h-7v1.113h7v7.787h1.1v-7.787h7z"/><path d="m515.3 842.297h-7v-7.787h-1.1v7.787h-7v1.113h7v7.787h1.1v-7.787h7z"/><path d="m465.3 7.92227h-7v-7.787504h-1.1v7.787504h-7v1.1125h7v7.78753h1.1v-7.78753h7z"/><path d="m465.3 63.5473h-7v-7.7875h-1.1v7.7875h-7v1.1125h7v7.7875h1.1v-7.7875h7z"/><path d="m465.3 119.172h-7v-7.787h-1.1v7.787h-7v1.113h7v7.787h1.1v-7.787h7z"/><path d="m465.3 174.797h-7v-7.787h-1.1v7.787h-7v1.113h7v7.787h1.1v-7.787h7z"/><path d="m465.3 230.422h-7v-7.787h-1.1v7.787h-7v1.113h7v7.787h1.1v-7.787h7z"/><path d="m465.3 286.047h-7v-7.787h-1.1v7.787h-7v1.113h7v7.787h1.1v-7.787h7z"/><path d="m465.3 341.672h-7v-7.787h-1.1v7.787h-7v1.113h7v7.787h1.1v-7.787h7z"/><path d="m465.3 397.297h-7v-7.787h-1.1v7.787h-7v1.113h7v7.787h1.1v-7.787h7z"/><path d="m465.3 452.922h-7v-7.787h-1.1v7.787h-7v1.113h7v7.787h1.1v-7.787h7z"/><path d="m465.3 508.547h-7v-7.787h-1.1v7.787h-7v1.113h7v7.787h1.1v-7.787h7z"/><path d="m465.3 564.172h-7v-7.787h-1.1v7.787h-7v1.113h7v7.787h1.1v-7.787h7z"/><path d="m465.3 619.797h-7v-7.787h-1.1v7.787h-7v1.113h7v7.787h1.1v-7.787h7z"/><path d="m465.3 675.422h-7v-7.787h-1.1v7.787h-7v1.113h7v7.787h1.1v-7.787h7z"/><path d="m465.3 731.047h-7v-7.787h-1.1v7.787h-7v1.113h7v7.787h1.1v-7.787h7z"/><path d="m465.3 786.672h-7v-7.787h-1.1v7.787h-7v1.113h7v7.787h1.1v-7.787h7z"/><path d="m465.3 842.297h-7v-7.787h-1.1v7.787h-7v1.113h7v7.787h1.1v-7.787h7z"/><path d="m415.3 7.92227h-7v-7.787504h-1.1v7.787504h-7v1.1125h7v7.78753h1.1v-7.78753h7z"/><path d="m415.3 63.5473h-7v-7.7875h-1.1v7.7875h-7v1.1125h7v7.7875h1.1v-7.7875h7z"/><path d="m415.3 119.172h-7v-7.787h-1.1v7.787h-7v1.113h7v7.787h1.1v-7.787h7z"/><path d="m415.3 174.797h-7v-7.787h-1.1v7.787h-7v1.113h7v7.787h1.1v-7.787h7z"/><path d="m415.3 230.422h-7v-7.787h-1.1v7.787h-7v1.113h7v7.787h1.1v-7.787h7z"/><path d="m415.3 286.047h-7v-7.787h-1.1v7.787h-7v1.113h7v7.787h1.1v-7.787h7z"/><path d="m415.3 341.672h-7v-7.787h-1.1v7.787h-7v1.113h7v7.787h1.1v-7.787h7z"/><path d="m415.3 397.297h-7v-7.787h-1.1v7.787h-7v1.113h7v7.787h1.1v-7.787h7z"/><path d="m415.3 452.922h-7v-7.787h-1.1v7.787h-7v1.113h7v7.787h1.1v-7.787h7z"/><path d="m415.3 508.547h-7v-7.787h-1.1v7.787h-7v1.113h7v7.787h1.1v-7.787h7z"/><path d="m415.3 564.172h-7v-7.787h-1.1v7.787h-7v1.113h7v7.787h1.1v-7.787h7z"/><path d="m415.3 619.797h-7v-7.787h-1.1v7.787h-7v1.113h7v7.787h1.1v-7.787h7z"/><path d="m415.3 675.422h-7v-7.787h-1.1v7.787h-7v1.113h7v7.787h1.1v-7.787h7z"/><path d="m415.3 731.047h-7v-7.787h-1.1v7.787h-7v1.113h7v7.787h1.1v-7.787h7z"/><path d="m415.3 786.672h-7v-7.787h-1.1v7.787h-7v1.113h7v7.787h1.1v-7.787h7z"/><path d="m415.3 842.297h-7v-7.787h-1.1v7.787h-7v1.113h7v7.787h1.1v-7.787h7z"/><path d="m365.3 7.92227h-7v-7.787504h-1.1v7.787504h-7v1.1125h7v7.78753h1.1v-7.78753h7z"/><path d="m365.3 63.5473h-7v-7.7875h-1.1v7.7875h-7v1.1125h7v7.7875h1.1v-7.7875h7z"/><path d="m365.3 119.172h-7v-7.787h-1.1v7.787h-7v1.113h7v7.787h1.1v-7.787h7z"/><path d="m365.3 174.797h-7v-7.787h-1.1v7.787h-7v1.113h7v7.787h1.1v-7.787h7z"/><path d="m365.3 230.422h-7v-7.787h-1.1v7.787h-7v1.113h7v7.787h1.1v-7.787h7z"/><path d="m365.3 286.047h-7v-7.787h-1.1v7.787h-7v1.113h7v7.787h1.1v-7.787h7z"/><path d="m365.3 341.672h-7v-7.787h-1.1v7.787h-7v1.113h7v7.787h1.1v-7.787h7z"/><path d="m365.3 397.297h-7v-7.787h-1.1v7.787h-7v1.113h7v7.787h1.1v-7.787h7z"/><path d="m365.3 452.922h-7v-7.787h-1.1v7.787h-7v1.113h7v7.787h1.1v-7.787h7z"/><path d="m365.3 508.547h-7v-7.787h-1.1v7.787h-7v1.113h7v7.787h1.1v-7.787h7z"/><path d="m365.3 564.172h-7v-7.787h-1.1v7.787h-7v1.113h7v7.787h1.1v-7.787h7z"/><path d="m365.3 619.797h-7v-7.787h-1.1v7.787h-7v1.113h7v7.787h1.1v-7.787h7z"/><path d="m365.3 675.422h-7v-7.787h-1.1v7.787h-7v1.113h7v7.787h1.1v-7.787h7z"/><path d="m365.3 731.047h-7v-7.787h-1.1v7.787h-7v1.113h7v7.787h1.1v-7.787h7z"/><path d="m365.3 786.672h-7v-7.787h-1.1v7.787h-7v1.113h7v7.787h1.1v-7.787h7z"/><path d="m365.3 842.297h-7v-7.787h-1.1v7.787h-7v1.113h7v7.787h1.1v-7.787h7z"/><path d="m315.3 7.92227h-7v-7.787504h-1.1v7.787504h-7v1.1125h7v7.78753h1.1v-7.78753h7z"/><path d="m315.3 63.5473h-7v-7.7875h-1.1v7.7875h-7v1.1125h7v7.7875h1.1v-7.7875h7z"/><path d="m315.3 119.172h-7v-7.787h-1.1v7.787h-7v1.113h7v7.787h1.1v-7.787h7z"/><path d="m315.3 174.797h-7v-7.787h-1.1v7.787h-7v1.113h7v7.787h1.1v-7.787h7z"/><path d="m315.3 230.422h-7v-7.787h-1.1v7.787h-7v1.113h7v7.787h1.1v-7.787h7z"/><path d="m315.3 286.047h-7v-7.787h-1.1v7.787h-7v1.113h7v7.787h1.1v-7.787h7z"/><path d="m315.3 341.672h-7v-7.787h-1.1v7.787h-7v1.113h7v7.787h1.1v-7.787h7z"/><path d="m315.3 397.297h-7v-7.787h-1.1v7.787h-7v1.113h7v7.787h1.1v-7.787h7z"/><path d="m315.3 452.922h-7v-7.787h-1.1v7.787h-7v1.113h7v7.787h1.1v-7.787h7z"/><path d="m315.3 508.547h-7v-7.787h-1.1v7.787h-7v1.113h7v7.787h1.1v-7.787h7z"/><path d="m315.3 564.172h-7v-7.787h-1.1v7.787h-7v1.113h7v7.787h1.1v-7.787h7z"/><path d="m315.3 619.797h-7v-7.787h-1.1v7.787h-7v1.113h7v7.787h1.1v-7.787h7z"/><path d="m315.3 675.422h-7v-7.787h-1.1v7.787h-7v1.113h7v7.787h1.1v-7.787h7z"/><path d="m315.3 731.047h-7v-7.787h-1.1v7.787h-7v1.113h7v7.787h1.1v-7.787h7z"/><path d="m315.3 786.672h-7v-7.787h-1.1v7.787h-7v1.113h7v7.787h1.1v-7.787h7z"/><path d="m315.3 842.297h-7v-7.787h-1.1v7.787h-7v1.113h7v7.787h1.1v-7.787h7z"/><path d="m265.3 7.92227h-7v-7.787504h-1.1v7.787504h-7v1.1125h7v7.78753h1.1v-7.78753h7z"/><path d="m265.3 63.5473h-7v-7.7875h-1.1v7.7875h-7v1.1125h7v7.7875h1.1v-7.7875h7z"/><path d="m265.3 119.172h-7v-7.787h-1.1v7.787h-7v1.113h7v7.787h1.1v-7.787h7z"/><path d="m265.3 174.797h-7v-7.787h-1.1v7.787h-7v1.113h7v7.787h1.1v-7.787h7z"/><path d="m265.3 230.422h-7v-7.787h-1.1v7.787h-7v1.113h7v7.787h1.1v-7.787h7z"/><path d="m265.3 286.047h-7v-7.787h-1.1v7.787h-7v1.113h7v7.787h1.1v-7.787h7z"/><path d="m265.3 341.672h-7v-7.787h-1.1v7.787h-7v1.113h7v7.787h1.1v-7.787h7z"/><path d="m265.3 397.297h-7v-7.787h-1.1v7.787h-7v1.113h7v7.787h1.1v-7.787h7z"/><path d="m265.3 452.922h-7v-7.787h-1.1v7.787h-7v1.113h7v7.787h1.1v-7.787h7z"/><path d="m265.3 508.547h-7v-7.787h-1.1v7.787h-7v1.113h7v7.787h1.1v-7.787h7z"/><path d="m265.3 564.172h-7v-7.787h-1.1v7.787h-7v1.113h7v7.787h1.1v-7.787h7z"/><path d="m265.3 619.797h-7v-7.787h-1.1v7.787h-7v1.113h7v7.787h1.1v-7.787h7z"/><path d="m265.3 675.422h-7v-7.787h-1.1v7.787h-7v1.113h7v7.787h1.1v-7.787h7z"/><path d="m265.3 731.047h-7v-7.787h-1.1v7.787h-7v1.113h7v7.787h1.1v-7.787h7z"/><path d="m265.3 786.672h-7v-7.787h-1.1v7.787h-7v1.113h7v7.787h1.1v-7.787h7z"/><path d="m265.3 842.297h-7v-7.787h-1.1v7.787h-7v1.113h7v7.787h1.1v-7.787h7z"/><path d="m215.3 7.92227h-7v-7.787504h-1.1v7.787504h-7v1.1125h7v7.78753h1.1v-7.78753h7z"/><path d="m215.3 63.5473h-7v-7.7875h-1.1v7.7875h-7v1.1125h7v7.7875h1.1v-7.7875h7z"/><path d="m215.3 119.172h-7v-7.787h-1.1v7.787h-7v1.113h7v7.787h1.1v-7.787h7z"/><path d="m215.3 174.797h-7v-7.787h-1.1v7.787h-7v1.113h7v7.787h1.1v-7.787h7z"/><path d="m215.3 230.422h-7v-7.787h-1.1v7.787h-7v1.113h7v7.787h1.1v-7.787h7z"/><path d="m215.3 286.047h-7v-7.787h-1.1v7.787h-7v1.113h7v7.787h1.1v-7.787h7z"/><path d="m215.3 341.672h-7v-7.787h-1.1v7.787h-7v1.113h7v7.787h1.1v-7.787h7z"/><path d="m215.3 397.297h-7v-7.787h-1.1v7.787h-7v1.113h7v7.787h1.1v-7.787h7z"/><path d="m215.3 452.922h-7v-7.787h-1.1v7.787h-7v1.113h7v7.787h1.1v-7.787h7z"/><path d="m215.3 508.547h-7v-7.787h-1.1v7.787h-7v1.113h7v7.787h1.1v-7.787h7z"/><path d="m215.3 564.172h-7v-7.787h-1.1v7.787h-7v1.113h7v7.787h1.1v-7.787h7z"/><path d="m215.3 619.797h-7v-7.787h-1.1v7.787h-7v1.113h7v7.787h1.1v-7.787h7z"/><path d="m215.3 675.422h-7v-7.787h-1.1v7.787h-7v1.113h7v7.787h1.1v-7.787h7z"/><path d="m215.3 731.047h-7v-7.787h-1.1v7.787h-7v1.113h7v7.787h1.1v-7.787h7z"/><path d="m215.3 786.672h-7v-7.787h-1.1v7.787h-7v1.113h7v7.787h1.1v-7.787h7z"/><path d="m215.3 842.297h-7v-7.787h-1.1v7.787h-7v1.113h7v7.787h1.1v-7.787h7z"/><path d="m165.3 7.92227h-7v-7.787504h-1.1v7.787504h-7v1.1125h7v7.78753h1.1v-7.78753h7z"/><path d="m165.3 63.5473h-7v-7.7875h-1.1v7.7875h-7v1.1125h7v7.7875h1.1v-7.7875h7z"/><path d="m165.3 119.172h-7v-7.787h-1.1v7.787h-7v1.113h7v7.787h1.1v-7.787h7z"/><path d="m165.3 174.797h-7v-7.787h-1.1v7.787h-7v1.113h7v7.787h1.1v-7.787h7z"/><path d="m165.3 230.422h-7v-7.787h-1.1v7.787h-7v1.113h7v7.787h1.1v-7.787h7z"/><path d="m165.3 286.047h-7v-7.787h-1.1v7.787h-7v1.113h7v7.787h1.1v-7.787h7z"/><path d="m165.3 341.672h-7v-7.787h-1.1v7.787h-7v1.113h7v7.787h1.1v-7.787h7z"/><path d="m165.3 397.297h-7v-7.787h-1.1v7.787h-7v1.113h7v7.787h1.1v-7.787h7z"/><path d="m165.3 452.922h-7v-7.787h-1.1v7.787h-7v1.113h7v7.787h1.1v-7.787h7z"/><path d="m165.3 508.547h-7v-7.787h-1.1v7.787h-7v1.113h7v7.787h1.1v-7.787h7z"/><path d="m165.3 564.172h-7v-7.787h-1.1v7.787h-7v1.113h7v7.787h1.1v-7.787h7z"/><path d="m165.3 619.797h-7v-7.787h-1.1v7.787h-7v1.113h7v7.787h1.1v-7.787h7z"/><path d="m165.3 675.422h-7v-7.787h-1.1v7.787h-7v1.113h7v7.787h1.1v-7.787h7z"/><path d="m165.3 731.047h-7v-7.787h-1.1v7.787h-7v1.113h7v7.787h1.1v-7.787h7z"/><path d="m165.3 786.672h-7v-7.787h-1.1v7.787h-7v1.113h7v7.787h1.1v-7.787h7z"/><path d="m165.3 842.297h-7v-7.787h-1.1v7.787h-7v1.113h7v7.787h1.1v-7.787h7z"/><path d="m115.3 7.92227h-7v-7.787504h-1.1v7.787504h-7v1.1125h7v7.78753h1.1v-7.78753h7z"/><path d="m115.3 63.5473h-7v-7.7875h-1.1v7.7875h-7v1.1125h7v7.7875h1.1v-7.7875h7z"/><path d="m115.3 119.172h-7v-7.787h-1.1v7.787h-7v1.113h7v7.787h1.1v-7.787h7z"/><path d="m115.3 174.797h-7v-7.787h-1.1v7.787h-7v1.113h7v7.787h1.1v-7.787h7z"/><path d="m115.3 230.422h-7v-7.787h-1.1v7.787h-7v1.113h7v7.787h1.1v-7.787h7z"/><path d="m115.3 286.047h-7v-7.787h-1.1v7.787h-7v1.113h7v7.787h1.1v-7.787h7z"/><path d="m115.3 341.672h-7v-7.787h-1.1v7.787h-7v1.113h7v7.787h1.1v-7.787h7z"/><path d="m115.3 397.297h-7v-7.787h-1.1v7.787h-7v1.113h7v7.787h1.1v-7.787h7z"/><path d="m115.3 452.922h-7v-7.787h-1.1v7.787h-7v1.113h7v7.787h1.1v-7.787h7z"/><path d="m115.3 508.547h-7v-7.787h-1.1v7.787h-7v1.113h7v7.787h1.1v-7.787h7z"/><path d="m115.3 564.172h-7v-7.787h-1.1v7.787h-7v1.113h7v7.787h1.1v-7.787h7z"/><path d="m115.3 619.797h-7v-7.787h-1.1v7.787h-7v1.113h7v7.787h1.1v-7.787h7z"/><path d="m115.3 675.422h-7v-7.787h-1.1v7.787h-7v1.113h7v7.787h1.1v-7.787h7z"/><path d="m115.3 731.047h-7v-7.787h-1.1v7.787h-7v1.113h7v7.787h1.1v-7.787h7z"/><path d="m115.3 786.672h-7v-7.787h-1.1v7.787h-7v1.113h7v7.787h1.1v-7.787h7z"/><path d="m115.3 842.297h-7v-7.787h-1.1v7.787h-7v1.113h7v7.787h1.1v-7.787h7z"/><path d="m65.3003 7.92227h-7v-7.787504h-1.1001v7.787504h-7v1.1125h7v7.78753h1.1001v-7.78753h7z"/><path d="m65.3003 63.5473h-7v-7.7875h-1.1001v7.7875h-7v1.1125h7v7.7875h1.1001v-7.7875h7z"/><path d="m65.3003 119.172h-7v-7.787h-1.1001v7.787h-7v1.113h7v7.787h1.1001v-7.787h7z"/><path d="m65.3003 174.797h-7v-7.787h-1.1001v7.787h-7v1.113h7v7.787h1.1001v-7.787h7z"/><path d="m65.3003 230.422h-7v-7.787h-1.1001v7.787h-7v1.113h7v7.787h1.1001v-7.787h7z"/><path d="m65.3003 286.047h-7v-7.787h-1.1001v7.787h-7v1.113h7v7.787h1.1001v-7.787h7z"/><path d="m65.3003 341.672h-7v-7.787h-1.1001v7.787h-7v1.113h7v7.787h1.1001v-7.787h7z"/><path d="m65.3003 397.297h-7v-7.787h-1.1001v7.787h-7v1.113h7v7.787h1.1001v-7.787h7z"/><path d="m65.3003 452.922h-7v-7.787h-1.1001v7.787h-7v1.113h7v7.787h1.1001v-7.787h7z"/><path d="m65.3003 508.547h-7v-7.787h-1.1001v7.787h-7v1.113h7v7.787h1.1001v-7.787h7z"/><path d="m65.3003 564.172h-7v-7.787h-1.1001v7.787h-7v1.113h7v7.787h1.1001v-7.787h7z"/><path d="m65.3003 619.797h-7v-7.787h-1.1001v7.787h-7v1.113h7v7.787h1.1001v-7.787h7z"/><path d="m65.3003 675.422h-7v-7.787h-1.1001v7.787h-7v1.113h7v7.787h1.1001v-7.787h7z"/><path d="m65.3003 731.047h-7v-7.787h-1.1001v7.787h-7v1.113h7v7.787h1.1001v-7.787h7z"/><path d="m65.3003 786.672h-7v-7.787h-1.1001v7.787h-7v1.113h7v7.787h1.1001v-7.787h7z"/><path d="m65.3003 842.297h-7v-7.787h-1.1001v7.787h-7v1.113h7v7.787h1.1001v-7.787h7z"/><path d="m15.3003 7.92227h-7.00001v-7.787504h-1.10009v7.787504h-7.000005v1.1125h7.000005v7.78753h1.10009v-7.78753h7.00001z"/><path d="m15.3003 63.5473h-7.00001v-7.7875h-1.10009v7.7875h-7.000005v1.1125h7.000005v7.7875h1.10009v-7.7875h7.00001z"/><path d="m15.3003 119.172h-7.00001v-7.787h-1.10009v7.787h-7.000005v1.113h7.000005v7.787h1.10009v-7.787h7.00001z"/><path d="m15.3003 174.797h-7.00001v-7.787h-1.10009v7.787h-7.000005v1.113h7.000005v7.787h1.10009v-7.787h7.00001z"/><path d="m15.3003 230.422h-7.00001v-7.787h-1.10009v7.787h-7.000005v1.113h7.000005v7.787h1.10009v-7.787h7.00001z"/><path d="m15.3003 286.047h-7.00001v-7.787h-1.10009v7.787h-7.000005v1.113h7.000005v7.787h1.10009v-7.787h7.00001z"/><path d="m15.3003 341.672h-7.00001v-7.787h-1.10009v7.787h-7.000005v1.113h7.000005v7.787h1.10009v-7.787h7.00001z"/><path d="m15.3003 397.297h-7.00001v-7.787h-1.10009v7.787h-7.000005v1.113h7.000005v7.787h1.10009v-7.787h7.00001z"/><path d="m15.3003 452.922h-7.00001v-7.787h-1.10009v7.787h-7.000005v1.113h7.000005v7.787h1.10009v-7.787h7.00001z"/><path d="m15.3003 508.547h-7.00001v-7.787h-1.10009v7.787h-7.000005v1.113h7.000005v7.787h1.10009v-7.787h7.00001z"/><path d="m15.3003 564.172h-7.00001v-7.787h-1.10009v7.787h-7.000005v1.113h7.000005v7.787h1.10009v-7.787h7.00001z"/><path d="m15.3003 619.797h-7.00001v-7.787h-1.10009v7.787h-7.000005v1.113h7.000005v7.787h1.10009v-7.787h7.00001z"/><path d="m15.3003 675.422h-7.00001v-7.787h-1.10009v7.787h-7.000005v1.113h7.000005v7.787h1.10009v-7.787h7.00001z"/><path d="m15.3003 731.047h-7.00001v-7.787h-1.10009v7.787h-7.000005v1.113h7.000005v7.787h1.10009v-7.787h7.00001z"/><path d="m15.3003 786.672h-7.00001v-7.787h-1.10009v7.787h-7.000005v1.113h7.000005v7.787h1.10009v-7.787h7.00001z"/><path d="m15.3003 842.297h-7.00001v-7.787h-1.10009v7.787h-7.000005v1.113h7.000005v7.787h1.10009v-7.787h7.00001z"/></g></svg>