<svg fill="none" height="72" viewBox="0 0 74 72" width="74" xmlns="http://www.w3.org/2000/svg" xmlns:xlink="http://www.w3.org/1999/xlink"><linearGradient id="a"><stop offset=".00800497" stop-color="#38dbff"/><stop offset="1" stop-color="#243aff"/></linearGradient><linearGradient id="b" gradientUnits="userSpaceOnUse" x1="7.52809" x2="54.6177" xlink:href="#a" y1="42.8945" y2="88.0054"/><linearGradient id="c" gradientUnits="userSpaceOnUse" x1="-1.39841" x2="27.258" xlink:href="#a" y1="52.0921" y2="60.9705"/><linearGradient id="d" gradientUnits="userSpaceOnUse" x1="44.3076" x2="68.3175" xlink:href="#a" y1="8.10959" y2="12.0992"/><linearGradient id="e" gradientUnits="userSpaceOnUse" x1="32.4712" x2="80.8327" xlink:href="#a" y1="8.31429" y2="25.8042"/><path d="m11.7192 47.4455 9.65 13.79 3.98-2.92s1.78-1.05 4.54-.89 14.28.08 15.9-.65 11.52-3.81 12.82-4.54 3.98-1.78 7.14-4.38 9.9-6.73 7.79-9.57c-1.3-1.62-5.35.81-7.79 2.03-2.43 1.22-6.65 3.25-6.65 3.25s-1.78.57-1.54 2.52-2.11 4.54-6.33 5.27-8.6.32-12.74-.24-5.35-.49-5.35-.49-2.03 0-.89-.65c.59-.11 4.81.16 6.54.22 1.73.05 11.95 1.15 15.36-1.24 3.42-2.39 1.89-4.71.11-5.35-1.78-.65-4.92-.49-7.14-.49s-5.84.27-10.87-2.6-11.52-2.76-14.55-1.35-5.41 3.95-6.54 5.41c-1.14 1.44-2.27 2.19-3.44 2.87z" fill="url(#b)"/><path d="m8.9892 46.5557-8.9299959 5.73 13.4699959 19.53 8.17-7.09zm7.45 19.86c-1.22 0-2.22-.99-2.22-2.22s.99-2.22 2.22-2.22 2.22.99 2.22 2.22c-.01 1.22-1 2.22-2.22 2.22z" fill="url(#c)"/><path d="m54.9359 31.4535v-2.233c3.9146-.3032 6.2578-2.6464 6.2578-5.927 0-2.8119-1.9573-4.3832-5.2102-5.0724l-2.7568-.579c-1.2405-.2481-2.3708-.827-2.3708-2.0951 0-1.4335 1.1854-2.3432 2.9497-2.3432 1.9022 0 3.1979 1.2129 3.3081 3.0324h3.8319c-.2481-3.3632-2.6189-5.6238-6.0097-6.0649v-2.31565h-2.5087v2.31565c-3.2254.4687-5.4583 2.7017-5.4583 5.679 0 3.3081 2.2881 4.5762 4.9621 5.1827l2.8119.5789c1.406.3032 2.3708.9924 2.3708 2.1778 0 1.5162-1.4611 2.3708-3.3632 2.3708-2.2881 0-3.5838-1.2129-3.6389-3.1702h-3.8319c.2481 3.3908 2.5086 5.7065 6.1475 6.1751v2.2881z" fill="url(#d)"/><path d="m53.8492 37.7357c-10.39 0-18.84-8.45-18.84-18.84 0-10.39004 8.45-18.8400359 18.84-18.8400359s18.84 8.4499959 18.84 18.8400359c0 10.39-8.45 18.84-18.84 18.84zm0-34.60004c-8.69 0-15.76 7.07004-15.76 15.76004s7.07 15.76 15.76 15.76 15.76-7.07 15.76-15.76-7.07-15.76004-15.76-15.76004z" fill="url(#e)"/></svg>