<svg fill="none" height="68" viewBox="0 0 254 68" width="254" xmlns="http://www.w3.org/2000/svg" xmlns:xlink="http://www.w3.org/1999/xlink"><linearGradient id="a"><stop offset=".00800497" stop-color="#38dbff"/><stop offset="1" stop-color="#243aff"/></linearGradient><linearGradient id="b" gradientUnits="userSpaceOnUse" x1="24.5696" x2="46.3131" xlink:href="#a" y1="18.9383" y2="30.0006"/><linearGradient id="c" gradientUnits="userSpaceOnUse" x1="21.3481" x2="52.0017" xlink:href="#a" y1="34.7495" y2="47.0558"/><linearGradient id="d" gradientUnits="userSpaceOnUse" x1="47.4145" x2="94.5218" xlink:href="#a" y1="25.5753" y2="123.25"/><linearGradient id="e" gradientUnits="userSpaceOnUse" x1="-17.1088" x2="113.391" xlink:href="#a" y1="14.9041" y2="191.192"/><path d="m28.81 23.9559c0-3.0053 2.8979-5.4503 6.4596-5.4503 3.5618 0 6.4596 2.445 6.4596 5.4503v5.4502h2.9701v-5.4502c0-4.3868-4.2302-7.9559-9.4297-7.9559-5.1994 0-9.4297 3.5691-9.4297 7.9559v5.4502h2.9701z" fill="url(#b)"/><path d="m44.8145 29.9072h-.1152-2.9701-12.9192-2.9701-.1291c-1.4908 0-2.7108 1.1841-2.7108 2.6312v14.7842s10.9716 10.524 24.5249 0v-14.7845c.0004-1.4468-1.2196-2.6309-2.7104-2.6309zm-6.3491 16.0996h-6.3583l1.4869-6.7522c-.893-.5278-1.4869-1.4603-1.4869-2.5234 0-1.6466 1.4232-2.9813 3.1791-2.9813 1.756 0 3.1792 1.3347 3.1792 2.9813 0 1.1636-.711 2.1706-1.7478 2.6622z" fill="url(#c)"/><path d="m68.384 43.36c4.32 0 7.776-2.88 8.424-7.152h-2.808c-.48 2.784-2.736 4.776-5.592 4.776-3.408 0-5.808-2.76-5.808-6.624 0-3.816 2.4-6.576 5.808-6.576 2.856 0 5.112 1.968 5.592 4.752h2.808c-.648-4.248-4.104-7.128-8.424-7.128-4.8 0-8.52 3.888-8.52 8.952 0 5.088 3.72 9 8.52 9zm16.3037-.12c3.6 0 6.24-2.832 6.24-6.6s-2.64-6.6-6.24-6.6-6.24 2.832-6.24 6.6 2.64 6.6 6.24 6.6zm0-2.136c-2.088 0-3.72-1.68-3.72-4.464s1.632-4.44 3.72-4.44 3.744 1.656 3.744 4.44-1.656 4.464-3.744 4.464zm11.1351-5.28c0-2.256 1.392-3.648 3.048-3.648 1.8002 0 2.7602 1.224 2.7602 3.408v7.416h2.424v-8.232c0-3.048-1.728-4.728-4.3442-4.728-1.752 0-3.192.936-4.056 2.352v-2.112h-2.256v12.72h2.424zm13.8752 0c0-2.256 1.392-3.648 3.048-3.648 1.8 0 2.76 1.224 2.76 3.408v7.416h2.424v-8.232c0-3.048-1.728-4.728-4.344-4.728-1.752 0-3.192.936-4.056 2.352v-2.112h-2.256v12.72h2.424zm16.683 7.416c3 0 5.184-1.704 5.808-4.536h-2.4c-.408 1.656-1.656 2.64-3.456 2.64-2.136 0-3.432-1.512-3.624-4.104h9.48c.432-4.128-2.088-7.2-5.88-7.2-3.504 0-6.072 2.76-6.072 6.528 0 4.008 2.472 6.672 6.144 6.672zm-.12-11.376c1.968 0 3.24 1.416 3.36 3.768h-6.888c.264-2.376 1.584-3.768 3.528-3.768zm13.287 11.4c3.192 0 5.448-2.064 5.88-5.424h-2.52c-.288 2.064-1.536 3.264-3.336 3.264-2.088 0-3.456-1.752-3.456-4.464 0-2.688 1.368-4.464 3.456-4.464 1.776 0 3.048 1.224 3.312 3.264h2.544c-.456-3.312-2.736-5.4-5.88-5.4-3.432 0-5.928 2.76-5.928 6.6 0 3.888 2.448 6.624 5.928 6.624zm15.496-2.616c-.504.24-1.008.336-1.584.336-1.296 0-2.136-.624-2.136-2.376v-6.264h3.84v-2.064h-3.84v-3.768h-2.424v3.768h-2.809v2.064h2.809v6.816c0 2.808 1.632 4.08 3.984 4.08.768 0 1.416-.12 2.16-.456zm20.768 2.352h2.737l4.488-17.232h-2.592l-3.312 13.296-3.576-13.296h-2.736l-3.624 13.272-3.312-13.272h-2.592l4.488 17.232h2.712l3.672-13.512zm16.135 0h2.016v-8.16c0-3.024-1.824-4.8-4.968-4.8-2.976 0-5.016 1.896-5.136 4.752h2.208c.072-1.776 1.152-2.832 2.928-2.832 1.68 0 2.664 1.032 2.664 2.856v.936c-1.032-.12-1.632-.144-2.376-.144-3.792 0-5.784 1.296-5.784 3.792 0 2.328 1.728 3.84 4.368 3.84 1.872 0 3.288-.792 4.08-2.208zm-6.144-3.672c0-1.488 1.2-2.208 3.624-2.208.624 0 1.296.024 2.232.144v1.032c0 1.944-1.272 3.216-3.312 3.216-1.56 0-2.544-.864-2.544-2.184zm13.848 3.672v-17.232h-2.448v17.232zm5.813 0v-17.232h-2.448v17.232zm8.596.24c3 0 5.184-1.704 5.808-4.536h-2.4c-.408 1.656-1.656 2.64-3.456 2.64-2.136 0-3.432-1.512-3.624-4.104h9.48c.432-4.128-2.088-7.2-5.88-7.2-3.504 0-6.072 2.76-6.072 6.528 0 4.008 2.472 6.672 6.144 6.672zm-.12-11.376c1.968 0 3.24 1.416 3.36 3.768h-6.888c.264-2.376 1.584-3.768 3.528-3.768zm15.635 8.784c-.504.24-1.008.336-1.584.336-1.296 0-2.136-.624-2.136-2.376v-6.264h3.84v-2.064h-3.84v-3.768h-2.424v3.768h-2.808v2.064h2.808v6.816c0 2.808 1.632 4.08 3.984 4.08.768 0 1.416-.12 2.16-.456z" fill="url(#d)"/><rect height="67" rx="19.5" stroke="url(#e)" width="253" x=".5" y=".5"/></svg>