<svg width="28" height="29" viewBox="0 0 28 29" fill="none" xmlns="http://www.w3.org/2000/svg">
<path d="M13.8825 28.2809C21.4572 28.2809 27.5976 22.1404 27.5976 14.5658C27.5976 6.99115 21.4572 0.850685 13.8825 0.850685C6.30788 0.850685 0.167419 6.99115 0.167419 14.5658C0.167419 22.1404 6.30788 28.2809 13.8825 28.2809Z" fill="#148EFF"/>
<path d="M11.2083 9.29882C10.7165 9.29882 9.2337 9.89479 8.96767 10.0139C8.70165 10.133 8.40637 10.5048 8.07132 11.1184C7.73581 11.7321 7.46659 12.4494 7.02915 13.5046C6.59217 14.5598 6.49024 16.5941 6.50487 17.2149C6.51949 17.8358 6.59126 18.3209 7.23347 18.6881C7.87523 19.055 8.44293 19.439 9.04035 19.6699C9.63823 19.9009 10.046 20.0671 10.3229 19.8361C10.5999 19.6052 10.7823 19.2008 10.7823 19.2008C10.7823 19.2008 11.0447 18.8398 10.5492 18.6234C10.0537 18.4064 9.80598 18.2547 9.82746 18.031C9.8494 17.8073 9.88551 17.6846 10.0094 17.7136C10.1333 17.7425 10.4253 18.262 11.5475 18.5002C12.6697 18.7384 13.7635 18.7026 13.7635 18.7026C13.7635 18.7026 14.8577 18.7388 15.9799 18.5002C17.1021 18.262 17.3937 17.7425 17.5176 17.7136C17.6414 17.6846 17.6775 17.8073 17.6995 18.0306C17.7214 18.2547 17.4737 18.4064 16.9782 18.6234C16.4827 18.8398 16.7451 19.2008 16.7451 19.2008C16.7451 19.2008 16.9275 19.6047 17.2045 19.8361C17.481 20.0671 17.8892 19.9009 18.4866 19.6699C19.084 19.439 19.6522 19.0554 20.2939 18.6881C20.9361 18.3209 21.0079 17.8358 21.0225 17.2149C21.0372 16.5945 20.9352 14.5598 20.4978 13.5046C20.0608 12.4494 19.7911 11.7321 19.4556 11.1184C19.121 10.5048 18.8253 10.133 18.5597 10.0134C18.2937 9.89479 16.8104 9.29882 16.3186 9.29882C15.8268 9.29882 15.6814 9.63847 15.6814 9.63847L15.51 10.0139C15.51 10.0139 14.3581 9.79697 13.7712 9.79652C13.1843 9.79652 12.0174 10.0139 12.0174 10.0139L11.846 9.63802C11.846 9.63802 11.7006 9.29882 11.2083 9.29882ZM11.2618 13.8039H11.2801C11.9973 13.8039 12.5782 14.4257 12.5782 15.1924C12.5782 15.9596 11.9973 16.5809 11.2801 16.5809C10.5629 16.5809 9.98196 15.9596 9.98196 15.1924C9.9815 14.433 10.552 13.8144 11.2618 13.8039ZM16.2473 13.8039H16.2656C16.9755 13.8144 17.5454 14.4334 17.5454 15.1924C17.5454 15.9596 16.9645 16.5809 16.2473 16.5809C15.5297 16.5809 14.9492 15.9596 14.9492 15.1924C14.9492 14.4257 15.5297 13.8039 16.2473 13.8039Z" fill="white"/>
</svg>
