<svg width="29" height="22" viewBox="0 0 29 22" fill="none" xmlns="http://www.w3.org/2000/svg">
<path d="M9.73909 0.637589C8.79068 0.637589 5.93134 1.79754 5.41835 2.02936C4.90537 2.26117 4.33597 2.98482 3.68988 4.17915C3.04292 5.37347 2.52376 6.76965 1.68024 8.82337C0.837598 10.8771 0.64104 14.8364 0.669246 16.0449C0.697451 17.2533 0.835835 18.1973 2.07423 18.9121C3.31175 19.6261 4.40648 20.3735 5.5585 20.8231C6.7114 21.2726 7.49763 21.5961 8.03177 21.1465C8.56592 20.697 8.91761 19.9099 8.91761 19.9099C8.91761 19.9099 9.42354 19.2074 8.46808 18.7861C7.51262 18.3639 7.03488 18.0686 7.07631 17.6332C7.11862 17.1978 7.18825 16.9589 7.42712 17.0153C7.66598 17.0717 8.22921 18.0827 10.3931 18.5463C12.557 19.01 14.6662 18.9403 14.6662 18.9403C14.6662 18.9403 16.7764 19.0109 18.9403 18.5463C21.1042 18.0827 21.6665 17.0717 21.9054 17.0153C22.1442 16.9589 22.2139 17.1978 22.2562 17.6323C22.2985 18.0686 21.8208 18.3639 20.8653 18.7861C19.9098 19.2074 20.4158 19.9099 20.4158 19.9099C20.4158 19.9099 20.7675 20.6961 21.3016 21.1465C21.8349 21.5961 22.622 21.2726 23.774 20.8231C24.926 20.3735 26.0216 19.627 27.2591 18.9121C28.4975 18.1973 28.6359 17.2533 28.6641 16.0449C28.6923 14.8373 28.4958 10.8771 27.6523 8.82337C26.8096 6.76965 26.2896 5.37347 25.6426 4.17915C24.9974 2.98482 24.4271 2.26117 23.915 2.02847C23.402 1.79754 20.5418 0.637589 19.5934 0.637589C18.645 0.637589 18.3647 1.29866 18.3647 1.29866L18.0342 2.02936C18.0342 2.02936 15.813 1.60715 14.6812 1.60627C13.5495 1.60627 11.2992 2.02936 11.2992 2.02936L10.9687 1.29777C10.9687 1.29777 10.6884 0.637589 9.73909 0.637589ZM9.84222 9.40599H9.87747C11.2604 9.40599 12.3807 10.6162 12.3807 12.1084C12.3807 13.6016 11.2604 14.8109 9.87747 14.8109C8.49452 14.8109 7.37423 13.6016 7.37423 12.1084C7.37335 10.6303 8.47337 9.42626 9.84222 9.40599ZM19.4559 9.40599H19.4912C20.86 9.42626 21.9591 10.6312 21.9591 12.1084C21.9591 13.6016 20.8389 14.8109 19.4559 14.8109C18.0721 14.8109 16.9527 13.6016 16.9527 12.1084C16.9527 10.6162 18.0721 9.40599 19.4559 9.40599Z" fill="#949494"/>
</svg>
