<svg width="28" height="28" viewBox="0 0 28 28" fill="none" xmlns="http://www.w3.org/2000/svg">
<path d="M13.7851 27.2809C21.3009 27.2809 27.3937 21.1881 27.3937 13.6723C27.3937 6.15651 21.3009 0.063736 13.7851 0.063736C6.26931 0.063736 0.176544 6.15651 0.176544 13.6723C0.176544 21.1881 6.26931 27.2809 13.7851 27.2809Z" fill="#1E4FAD"/>
<path fill-rule="evenodd" clip-rule="evenodd" d="M15.5349 8.61917C16.0293 8.6026 16.5251 8.61502 17.0209 8.61502C17.0817 8.61502 17.1424 8.61502 17.2253 8.61502V6.03942C16.9602 6.01318 16.6839 5.97451 16.4077 5.9607C15.8995 5.93861 15.3913 5.91237 14.8831 5.9248C14.107 5.94137 13.3736 6.13057 12.7315 6.58907C11.9954 7.118 11.5921 7.86099 11.4388 8.73794C11.3753 9.09976 11.3587 9.4754 11.3491 9.84275C11.3353 10.42 11.3463 10.9987 11.3477 11.5759V11.7928H8.88394V14.668H11.3339V21.8963H14.3265V14.6818H16.7682C16.8939 13.7262 17.0154 12.7788 17.1438 11.7928C16.9477 11.7928 16.771 11.7928 16.5956 11.7928C15.9009 11.7955 14.3072 11.7928 14.3072 11.7928C14.3072 11.7928 14.3141 10.3675 14.3307 9.74884C14.3542 8.90228 14.8569 8.64403 15.5349 8.61917Z" fill="white"/>
</svg>
