<svg fill="none" height="32" viewBox="0 0 32 32" width="32" xmlns="http://www.w3.org/2000/svg"><path d="m16 3.33333c-3.3594 0-6.58121 1.33452-8.95668 3.70998-2.37546 2.37546-3.70998 5.59729-3.70998 8.95669s1.33452 6.5812 3.70998 8.9567c2.37547 2.3754 5.59728 3.71 8.95668 3.71s6.5812-1.3346 8.9567-3.71c2.3755-2.3755 3.71-5.5973 3.71-8.9567s-1.3345-6.58123-3.71-8.95669-5.5973-3.70998-8.9567-3.70998z" fill="#949494"/><path d="m17.7147 19.3573h3.278l.5146-3.33h-3.7933v-1.82c0-1.3833.452-2.61 1.746-2.61h2.0793v-2.90597c-.3653-.04933-1.138-.15733-2.598-.15733-3.0486 0-4.836 1.61-4.836 5.278v2.2153h-3.134v3.33h3.134v9.1527c.6207.0933 1.2494.1567 1.8947.1567.5833 0 1.1527-.0534 1.7147-.1294z" fill="#fff"/></svg>