<svg fill="none" height="61" viewBox="0 0 51 61" width="51" xmlns="http://www.w3.org/2000/svg" xmlns:xlink="http://www.w3.org/1999/xlink"><linearGradient id="a" gradientUnits="userSpaceOnUse" x1="-2.88256" x2="63.7186" y1="13.2072" y2="33.2035"><stop offset=".00800497" stop-color="#38dbff"/><stop offset="1" stop-color="#243aff"/></linearGradient><path d="m50.5085 28.9572v-19.11754c-17.2556 3.17824-24.5912-9.117338-24.9924-9.807559l-.0161-.032101-.0642.112361c-.7705 1.300179-8.1703 12.825239-24.944261 9.727299v19.11754s-.947048 22.9378 24.703461 31.1562l.305.1445.305-.1445c25.6505-8.2184 24.7035-31.1562 24.7035-31.1562zm-20.8351-7.8974-1.7496 18.4593h-4.9118l-1.7175-18.4593zm-4.1895 27.5767c-2.4398 0-4.2376-1.6855-4.2376-4.0129 0-2.3275 1.7657-4.045 4.2376-4.045 2.5202 0 4.2698 1.7175 4.2698 4.045 0 2.3274-1.8299 4.0129-4.2698 4.0129z" fill="url(#a)"/></svg>