<svg fill="none" height="48" viewBox="0 0 48 48" width="48" xmlns="http://www.w3.org/2000/svg" xmlns:xlink="http://www.w3.org/1999/xlink"><linearGradient id="a"><stop offset=".00800497" stop-color="#38dbff"/><stop offset="1" stop-color="#243aff"/></linearGradient><linearGradient id="b" gradientUnits="userSpaceOnUse" x1="-3.23316" x2="58.3738" xlink:href="#a" y1="10.5205" y2="32.8007"/><linearGradient id="c" gradientUnits="userSpaceOnUse" x1="14.0628" x2="39.8788" xlink:href="#a" y1="16.2521" y2="26.044"/><linearGradient id="d" gradientUnits="userSpaceOnUse" x1="11.1804" x2="35.4496" xlink:href="#a" y1="14.9492" y2="30.1169"/><linearGradient id="e" gradientUnits="userSpaceOnUse" x1="10.5043" x2="39.7549" xlink:href="#a" y1="17.4397" y2="30.0277"/><linearGradient id="f" gradientUnits="userSpaceOnUse" x1="10.3834" x2="38.8569" xlink:href="#a" y1="18.4318" y2="31.8876"/><linearGradient id="g" gradientUnits="userSpaceOnUse" x1="10.3834" x2="36.8843" xlink:href="#a" y1="19.1731" y2="34.0321"/><linearGradient id="h" gradientUnits="userSpaceOnUse" x1="10.3834" x2="33.442" xlink:href="#a" y1="19.8088" y2="36.2856"/><linearGradient id="i" gradientUnits="userSpaceOnUse" x1="10.3834" x2="35.4028" xlink:href="#a" y1="21.5572" y2="37.226"/><linearGradient id="j" gradientUnits="userSpaceOnUse" x1="10.3915" x2="35.0622" xlink:href="#a" y1="22.8617" y2="38.5587"/><linearGradient id="k" gradientUnits="userSpaceOnUse" x1="10.4607" x2="34.953" xlink:href="#a" y1="24.3034" y2="38.8804"/><linearGradient id="l" gradientUnits="userSpaceOnUse" x1="10.5455" x2="33.5245" xlink:href="#a" y1="25.4646" y2="39.3251"/><linearGradient id="m" gradientUnits="userSpaceOnUse" x1="10.8586" x2="32.1125" xlink:href="#a" y1="26.6199" y2="39.4892"/><linearGradient id="n" gradientUnits="userSpaceOnUse" x1="11.9113" x2="30.7838" xlink:href="#a" y1="27.7022" y2="39.1004"/><linearGradient id="o" gradientUnits="userSpaceOnUse" x1="13.3913" x2="29.6377" xlink:href="#a" y1="28.7698" y2="38.3339"/><linearGradient id="p" gradientUnits="userSpaceOnUse" x1="14.9493" x2="28.5114" xlink:href="#a" y1="29.8419" y2="37.512"/><linearGradient id="q" gradientUnits="userSpaceOnUse" x1="16.5004" x2="27.3017" xlink:href="#a" y1="30.9613" y2="36.7683"/><linearGradient id="r" gradientUnits="userSpaceOnUse" x1="18.0584" x2="26.0925" xlink:href="#a" y1="32.0333" y2="35.9531"/><circle cx="24" cy="24" fill="url(#b)" r="24"/><path d="m35.78 16.9867c-.2667.1733-.6466.3333-.8066.5133-.0601.06-.0934.1267-.08.1933v.6867l-.2.6733-.2.6667-.2201.7333-.4533 1.5-.44 1.48-.3333 1.1134c0 .1733-.0067.3466-.02.5133-.0467.64-.18 1.2533-.3933 1.8267-.1267.3533-.2801.6933-.4667 1.0133-.0667.1267-.1467.2533-.2267.3733-.2667.42-.5866.8067-.94 1.1467-.2733.2733-.5733.5267-.9.74 0 0 0 0-.0067 0-.0533.0467-.1133.0867-.18.12-.2066.14-.4266.26-.6533.3667-.1533.08-.3066.1466-.4666.2066-.0334.02-.0734.0334-.1067.0467-.38.18-.82.3-1.26.36-.0267.0067-.0467.0067-.0733.0133-.2667.0467-.5267.0867-.7934.1067-.12.0133-.2466.02-.3666.02l-.4734-.0267-2.28-.12c0-.0066-.0067 0-.0067 0l-1.1466-.06c-.0867 0-.18 0-.2667-.0066-.36-.0134-.7066-.0534-1.0533-.1267-.0067 0-.0067 0-.0067 0-.6333-.12-1.24-.3333-1.8067-.62-.3133-.16-.62-.34-.9066-.5467-.12-.0866-.2333-.18-.3467-.28-.32-.2666-.6067-.5533-.8733-.8466-.04-.04-.0734-.08-.1067-.12-.04-.04-.08-.0867-.1133-.1267-.2534-.32-.4667-.6467-.64-.9933-.16-.3067-.2867-.6334-.3867-.9934-.04-.1266-.0733-.2466-.1-.38-.0066-.0066-.0133-.02-.0133-.0333-.0667-.2733-.1267-.56-.16-.8467-.04-.22-.06-.44-.06-.6666-.0134-.0867-.0134-.18-.0134-.2667l1.2734-1.9667 1.2467-1.92.5666-.8733.5133-.7867.1734-.2733v-.6867c.0133-.1533.02-.3133.0133-.46-.0067-.4666-.1-.92-.2533-1.3533-.1467-.46-.3533-.8933-.5667-1.2933-.2533-.46-.52-.8734-.74-1.2467-.3267-.5467-.5533-.9933-.4933-1.3067.48-.1133.9866-.1733 1.5-.1733h10.6667c2.7866 0 5.1866 1.7333 6.18 4.1733.1066.26.1999.5334.2666.8134z" fill="url(#c)"/><path d="m36 18.6667v.18l-.92.5333-.5866.34-.6467.3733-1.2933.7534-1.2667.7333-1.2933.7467-.5134.3c0 .32-.08.6133-.2266.88-.2067.3866-.5534.7066-.9934.98-.4466.2733-.9933.4933-1.6066.6533 0 0 0-.0067-.0067 0-2.3733.6133-5.6133.3333-7.1867-.84-.44-.3267-.7466-.7267-.88-1.1867-.04-.1533-.06-.32-.06-.4866v-4.7934c.0067-.1-.06-.2-.18-.3-.36-.2866-1.2066-.56-2.1533-.8333-.74-.2067-1.5333-.4133-2.2-.6133-.5267-.16-.9733-.32-1.24-.4734.12-.2333.26-.4666.4067-.6866.9333-1.3667 2.36-2.3734 4.0133-2.7534.48-.1133.9867-.1733 1.5-.1733h7.2c3.58.6267 6.88 2.0867 9.6467 4.1733.1066.26.2.5334.2666.8134.12.44.1934.8933.2134 1.3666.0066.1.0066.2067.0066.3134z" fill="url(#d)"/><path d="m35.9999 18.6667v2.94l-.1466.4533-.5 1.5534-.52 1.6-.2734.8533-.2533.7933-.2467.7534-.24.7466-.1266.3934-.1667.52c0 .5066-.0133.9533-.0467 1.3333-.0066.04-.0133.08-.0133.12-.04.3533-.0933.6533-.18.9067-.0067.04-.02.08-.0333.1133-.1734.48-.4334.7867-.82.9867-.0934.0533-.2.0933-.3134.1333-.3533.12-.8.18-1.3466.2133-.4.0267-.86.0334-1.38.0334h-.46l-.7934-.0334-.14-.0066-1.4466-.06-1.4667-.06-4.8333-.2-1.2534-.0534h-.1733c-.52-.0066-.9667-.04-1.3533-.0933-.56-.0867-.9934-.2333-1.32-.4533-.4667-.3-.74-.74-.9-1.3534-.04-.1466-.0734-.3-.0934-.4666-.0666-.3867-.1-.8334-.12-1.3334 0-.1 0-.2-.0066-.3066-.0067-.0067 0-.0067 0-.0067v-.3867c-.0067-.1933-.0067-.3933-.0067-.6l.0333-1.0733.02-.7667.0267-.8933v-.1267l.0467-1.64.0466-1.64.0467-1.54.04-1.5133.0133-.4c0-.2067-.7-.3267-1.48-.4267-.62-.08-1.3-.1533-1.7066-.2466.0333-.1534.0666-.3067.1066-.4534.12-.48.3-.9333.5267-1.3666.12-.2334.26-.4667.4067-.6867 1.44-.6333 2.94-1.1267 4.5066-1.4467 1.3734-.2866 2.8067-.44 4.2867-.44 4.9067 0 9.44 1.66 13.0267 4.46.3466.2667.6866.5534 1.02.8534.0066.1.0066.2066.0066.3133z" fill="url(#e)"/><path d="m36 20.2463v3.0266l-.3667.7067-.7 1.3667-.3733.72-.34.6599-.1467.2867c0 .2067 0 .4067-.0133.6 0 .2867-.0133.56-.0333.8133-.0267.3-.0667.5734-.1067.8267-.1.5267-.24.98-.44 1.3534-.0267.0466-.0533.0933-.08.1333-.0733.12-.16.2333-.2533.34-.12.1466-.2534.2733-.4067.38-.2267.1733-.4933.3133-.8.42-.38.14-.82.2333-1.34.2867-.34.0333-.7133.0533-1.12.0533l-.28.0133-1.3867.08h-.0066l-1.4734.0867-1.5.0866-2.0666.1201-2.5134.1466-.3666.02c-.34 0-.66-.02-.9667-.06-.0333-.0067-.06-.0133-.0933-.0133-.4534-.0734-.8667-.1934-1.24-.36-.4534-.2-.8467-.4667-1.18-.7867-.2934-.2866-.5467-.6133-.7534-.98-.0466-.0867-.0933-.1667-.1333-.26-.2-.3933-.36-.8333-.48-1.3133-.02-.08-.04-.1667-.0533-.2533-.04-.1534-.0734-.3134-.0934-.48-.0733-.4267-.1133-.88-.1333-1.3534v-.0067c-.0067-.1933-.0133-.3799-.0133-.5799l-.3267-.7801-.0467-.12-.04-.0999-.5-1.1934-.08-.1933-.48-1.1533-.5333-1.2867s0 0-.0067 0l-.54-1.3-.1933-.4733v-1.06c0-.42.04-.8334.1133-1.2334.0334-.1533.0667-.3066.1067-.4533.5667-.3267 1.16-.6267 1.7667-.8933 1.3866-.62 2.8733-1.08 4.4133-1.36 1.1467-.2067 2.34-.3201 3.5467-.3201 4.8733 0 9.2933 1.7667 12.7466 4.6467.1334.1067.26.2134.3867.3267.3133.2733.62.56.92.8667z" fill="url(#f)"/><path d="m36 22.2336v3.4267l-.38.7933-.72 1.5-.0067.02c0 .2867-.0133.5467-.0333.78-.0667.7667-.2533 1.2533-.56 1.5533-.22.2267-.4933.3534-.8333.42-.02.0067-.0467.0067-.0667.0134-.1067.02-.22.0333-.34.0333-.4133.04-.9.0133-1.46-.0267-.06 0-.1267-.0066-.1933-.0133-.4067-.0267-.84-.0533-1.32-.0733-.26-.0067-.5334-.0134-.8134-.0134h-.0133l-.6733.0534h-.0067l-1.5133.1066-1.7267.1334-.2533.02-2.02.1466-1.0467.08-1.0333.0734c-.18 0-.3534 0-.5267-.0067 0 0-.0067-.0067-.0067 0-.7533-.0133-1.4266-.06-2.0266-.1733-.5534-.0934-1.04-.24-1.4534-.46-.4266-.2067-.78-.5-1.0666-.8734-.2734-.3666-.4734-.8266-.6-1.38 0-.0066 0-.0066 0-.0066-.0934-.4467-.1467-.9667-.1467-1.5534l-.1-.18-.5933-1.06-.0867-.1466-.0467-.0934-.62-1.1-.3066-.5533-.3867-.6867-.6667-1.1933-.3533-.6267v-2.4533c.5867-.3867 1.1933-.7267 1.82-1.0333.76-.3867 1.5467-.7134 2.3667-.98.8933-.2934 1.8266-.5267 2.78-.68.9666-.16 1.96-.24 2.98-.24 4.5333 0 8.6933 1.62 11.9 4.3133.1466.1133.2866.24.4266.36.56.5 1.0934 1.04 1.58 1.6067.0534.06.1067.1133.1467.1733z" fill="url(#g)"/><path d="m36 24.4732v4.82c-.16-.0934-.38-.2067-.6533-.3267-.1467-.0733-.3134-.1467-.4867-.2133-.2533-.1134-.5267-.2201-.8333-.3267-.0667-.0267-.1334-.0467-.2067-.0667-.12-.0466-.2467-.0866-.3733-.1266-.3934-.12-.8267-.2334-1.28-.3334-.1734-.0333-.3534-.0666-.5334-.0933-.58-.1-1.2-.16-1.8466-.1667-.0534-.0066-.1134-.0066-.1667-.0066l-1.7133.0133-2.3334.0133h-.0066l-4.9934.04c-1.5866 0-2.56.38-3.1466.5334 0 0-.0067 0-.0067.0066-.62.16-.8133.06-.8667-1.0266-.0133-.3-.02-.6867-.02-1.16l-.3733-.2867-.6533-.4933-.4-.3067-.08-.06-1.1067-.84-.1667-.1267-.3466-.2666-.64-.48-.7667-.5867v-2.2667c.0667-.0533.1267-.1.1933-.14.9667-.6666 2-1.2333 3.0934-1.6933.9733-.4133 2-.74 3.0533-.9733.2867-.06.58-.12.88-.16.8867-.1534 1.8-.2267 2.7267-.2267 4.0066 0 7.6866 1.3933 10.6066 3.7.44.3467.8667.7133 1.2667 1.1067.5467.52 1.06 1.0733 1.5333 1.66.0934.12.1867.24.28.3666.1267.16.2467.3267.3667.4934z" fill="url(#h)"/><path d="m36 27.1462v2.1867c0 .4333-.04.86-.12 1.2733-.12.6133-.3267 1.2-.6067 1.7467-.1466.0333-.3133.0333-.5.0066-.42-.0733-.9133-.2933-1.4466-.58-.0267-.0066-.0534-.02-.0734-.0333-.1666-.0867-.34-.18-.5133-.2867-.3533-.1933-.7267-.4066-1.1-.6066-.08-.04-.16-.08-.2333-.12-.4267-.22-.8667-.42-1.3067-.5734 0 0 0 0-.0067 0-.0933-.0333-.1933-.0666-.2933-.0933-.38-.1067-.7667-.1733-1.14-.1733l-.7333-.2134-3.2467-.94s0 0-.0067 0l-1.9933-.58h-.0067l-.8666-.2533c-2.5067 0-4.0467 1.0667-4.7934.66-.2933-.1533-.4666-.54-.5266-1.3-.02-.2133-.0267-.4533-.0267-.7333l-.78-.38-.0333-.0134h-.0067l-.56-.28-.6133-.2933-.0467-.02-.1133-.06-1.3067-.6333-1-.4867v-2.2867c.1133-.1.2333-.1933.3533-.2866.1267-.1.2534-.1934.38-.2934h.0067c.7867-.5666 1.62-1.0666 2.5067-1.48 1.0333-.4933 2.1333-.8733 3.2733-1.12.1667-.04.34-.08.5133-.1066.9467-.18 1.92-.2734 2.9134-.2734 3.5133 0 6.74 1.14 9.34 3.06.7533.56 1.4533 1.18 2.0933 1.8534.5267.5533 1.0133 1.1533 1.4533 1.78.0334.0466.0667.0933.1.1333.2467.36.4734.7267.6867 1.1067.14.2266.26.46.38.6933z" fill="url(#i)"/><path d="m35.88 30.6067c-.12.6134-.3267 1.2-.6067 1.7467-.1266.2467-.2666.48-.42.7067-.0933.14-.1933.2733-.2933.4-.24-.0934-.5933-.2267-1.0267-.3734 0 0 0 0 0-.0066-.3266-.1134-.7-.2334-1.1-.3467-.1133-.0333-.2266-.0667-.3466-.1-.4734-.1267-.9667-.24-1.4467-.3067-.4-.0666-.7933-.1066-1.16-.1066l-.3067-.0867h-.0066l-1.6134-.4667-.9933-.2866-1.1067-.32h-.0066l-.36-.1-4.3534-1.2534-1.2533-.36-.9333-.22-1.52-.36-.1867-.0466s0 0-.0067 0l-1.5266-.3534c0-.0066 0-.0066 0-.0066l-.2734-.06-.14-.0334-1.1133-.26-.1267-.0333-.9466-.78-.7067-.5933v-2.72c.2467-.24.5-.4667.7667-.6867.08-.0733.1666-.14.2533-.2067.08-.0666.1667-.1333.2533-.2.6067-.46 1.2467-.8733 1.9267-1.2266.8667-.4667 1.7867-.84 2.7533-1.1067.1867-.06.3734-.1133.5667-.1533 1.0933-.2734 2.24-.4134 3.4267-.4134 2.98 0 5.7533.9 8.0466 2.44 1.14.7667 2.1667 1.6867 3.0334 2.7334.44.5266.84 1.08 1.1933 1.6666.0333.0467.06.0867.0867.1334.2133.3533.4133.72.5933 1.0933.1667.3333.3133.6667.4467 1.0133.2133.5334.3866 1.08.5333 1.64z" fill="url(#j)"/><path d="m34.8533 33.0598c-.0933.14-.1933.2733-.2933.4-.2933.3666-.6133.7-.9733.9933-.3134.26-.6467.4933-1 .6933-.1334-.0333-.2667-.0733-.4067-.1266-.44-.1534-.9-.4067-1.3267-.6734-.64-.4066-1.1933-.8466-1.44-1.0466-.0933-.08-.14-.12-.14-.12l-1.1333-.1-.14-.0134-1.4667-.1266-1.52-.1334-2.2466-.2-3.56-.3133-.0134-.0067-1.2533-.6066-1.2667-.6134-1.02-.4933-.22-.1067-.2733-.1333-.9467-.46-1.26-.6067-.3933-.1933-.56-.1733v-2.98c.3133-.3734.6467-.7267 1-1.0667.2267-.2133.4667-.4267.7133-.6267.04-.0333.08-.0666.12-.0933.0267-.0333.06-.0533.0867-.0667.3933-.32.8067-.6066 1.2333-.8666.4934-.3134 1.0134-.5934 1.5534-.8267.58-.26 1.1866-.48 1.8133-.6467 1.0867-.3066 2.24-.4666 3.4267-.4666 2.72 0 5.2333.8266 7.3066 2.2466 1.3267.9067 2.4734 2.0534 3.38 3.38.3.4267.5667.88.8134 1.3467.0866.1733.1733.3467.2466.52.08.1667.1534.3333.2267.5.14.3467.2667.6933.38 1.0533.2133.6667.3733 1.3467.4733 2.0534.0334.2333.06.4666.08.7z" fill="url(#k)"/><path d="m33.5933 34.2803c0 .0533 0 .1133-.0066.1733-.3134.26-.6467.4934-1 .6934-.1467.08-.2934.16-.4467.2266-.1533.0734-.3067.14-.4667.2-.2266-.12-.5333-.2666-.86-.4066-.46-.2067-.96-.3934-1.3466-.4534-.0934-.02-.18-.0266-.26-.0266l-1.0934-.14h-.0133l-1.36-.18-1.3733-.18-.64-.08-5.04-.6534c-.3267 0-.6734-.02-1.0334-.0666-.44-.04-.9-.1067-1.36-.2-.4533-.08-.9133-.1867-1.3533-.3-.46-.1067-.9133-.2334-1.3333-.3534-.4867-.1466-.94-.2866-1.32-.4133-.3134-.1-.58-.1933-.7867-.2667-.12-.2866-.22-.5866-.2933-.8933-.14-.52-.2067-1.0667-.2067-1.6267v-1.1133c.2133-.3533.4467-.7.7067-1.0267.4733-.6266 1.0133-1.2 1.6-1.7066.02-.0267.0466-.0467.0666-.06l.0067-.0067c.2067-.1867.42-.3533.6467-.5133.0266-.0267.0533-.0467.08-.0667.1066-.08.22-.16.34-.2333.9533-.6467 2.0066-1.1534 3.1333-1.4934 1.0667-.32 2.1933-.4866 3.3667-.4866 2.3266 0 4.5.6866 6.3133 1.86 1.34.86 2.4933 1.9933 3.3733 3.32.1067.1533.2067.3066.3067.4666.46.78.84 1.62 1.12 2.5.0333.1.06.2.0867.3067.0533.18.1.3667.14.5533.0133.0467.0266.0934.04.1467.0933.42.16.86.2066 1.3v.0067c.04.3933.06.7933.06 1.1933z" fill="url(#l)"/><path d="m32.22 34.28c0 .2333-.0133.4867-.04.74-.0133.12-.0267.24-.04.3533-.1533.0734-.3067.14-.4667.2-.3.1134-.6066.2067-.92.2734-.2133.0466-.4333.0866-.6533.1066h-.0067c-.2066-.1266-.4466-.28-.6933-.4533-.4467-.3133-.9133-.6667-1.2867-.9533-.0066-.0067-.0066-.0067-.0133-.0134-.3933-.3-.6733-.5266-.6733-.5266l-.7067.0266-1.36.0467-.6333.0267-2.5467.0933-2.1533.08c-.14.0067-.3067.0067-.5134 0h-.0066c-.28-.0067-.6134-.0267-.98-.06-.4267-.0333-.8934-.0733-1.3667-.12-.46-.0533-.9267-.1067-1.3733-.16-.4934-.0533-.96-.1133-1.36-.1667-.3134-.04-.5867-.0733-.8067-.1-.1867-.2133-.3533-.4333-.5133-.6733-.24-.36-.4467-.74-.6067-1.1467-.12-.2866-.22-.5866-.2933-.8933.1933-.5933.4466-1.1533.7466-1.6933.24-.44.52-.86.8267-1.26.3-.3934.6267-.76.98-1.0934v-.0066c.1-.1.2-.1934.3-.28.1867-.1734.38-.3334.58-.4867h.0067c.0066-.0133.0133-.0133.02-.02.16-.1267.3266-.24.4933-.3533.9867-.6734 2.1-1.1734 3.3-1.4667.7933-.1933 1.6267-.3 2.4867-.3 1.6933 0 3.2933.4067 4.7 1.14h.0066c1.2067.62 2.2734 1.4733 3.1334 2.5.4733.5467.88 1.1467 1.2133 1.78.2333.4267.4333.8733.6 1.3267.0133.04.0267.0733.04.1066.1133.3334.2133.68.3 1.0267.06.2467.1067.5.1467.7533.0133.08.0266.1534.0333.2334.0667.46.1.9333.1 1.4133z" fill="url(#m)"/><path d="m30.8534 34.2797v.0667c0 .2266-.02.5133-.04.82-.02.2266-.04.46-.06.68-.2134.0466-.4334.0866-.6534.1066h-.0066c-.2534.0334-.5.0467-.76.0467h-1.1667l-.2533-.0733-1.3134-.4-1.3333-.4-3.0867-.9267-1.3333-.4s-.5533.22-1.3333.48h-.0067c-.3.1-.6267.2067-.9733.3133-.4334.1267-.8934.2534-1.3467.3534-.4667.1066-.9267.1866-1.34.22-.1267.0133-.2533.02-.3667.02-.3733-.2067-.7333-.4534-1.06-.7267-.2866-.24-.5533-.5-.8-.7867-.1866-.2133-.3533-.4333-.5133-.6733.0467-.3.1-.5933.18-.88.2-.7933.5133-1.5533.9267-2.2467.2266-.3933.48-.7733.7733-1.1266.0067-.02.0267-.04.0467-.0534-.0067-.0066 0-.0066 0-.0066.0866-.1134.18-.22.2733-.32 0-.0067 0-.0067 0-.0067.2733-.2933.5533-.5733.86-.8333.1067-.0867.2067-.1734.32-.26.02-.02.04-.0334.0667-.0534 1.5-1.1466 3.3733-1.84 5.3933-1.84 2.2933 0 4.38.86 5.96 2.2734.76.6866 1.4067 1.5066 1.8933 2.42.04.0666.08.14.1134.2133.06.12.12.2467.1733.38.22.48.3933.9867.5133 1.5067.0134.0533.0267.1066.04.16.0534.2466.1.5.1334.7533.0533.3933.08.7933.08 1.2z" fill="url(#n)"/><path d="m29.4799 34.2802c0 .1334-.0066.28-.0133.4334-.0133.2466-.0333.5133-.0667.7866-.0133.1667-.04.3334-.0666.5h-3.6534l-.7066-.1133-2.76-.44-.3934-.06-.9-.1467c-.3933 0-1.2466.1734-2.1466.34-.4734.0867-.9534.18-1.3867.24-.0533.0067-.1066.0134-.1533.02h-.0067c-.4667-.1-.92-.2533-1.3467-.4533-.1333-.06-.2666-.1267-.4-.2-.3733-.2067-.7333-.4533-1.06-.7267-.0066-.08-.0133-.1466-.0133-.18 0-.1733.0067-.34.02-.5066.0267-.4267.0867-.84.18-1.24.1467-.6067.36-1.1934.6467-1.7334.0533-.1133.1133-.2266.18-.3333.0266-.0533.06-.1.0866-.1533.12-.1934.2534-.38.3867-.5667.28-.3667.5933-.7133.9267-1.0267h.0067c.0266-.0266.0533-.0533.08-.0733.0333-.0267.06-.06.0933-.08.1333-.12.2666-.2267.4067-.3267 0-.0066.0066-.0066.0066-.0066 1.26-.94 2.82-1.4934 4.52-1.4934 1.32 0 2.5467.3334 3.62.92h.0067c.92.5067 1.72 1.1934 2.3533 2.02.2467.32.4667.66.6534 1.02h.0066c.0334.0667.0667.1334.1.2.2.3934.36.8067.48 1.2334h.0067c.0067.0333.02.0666.0266.1.08.2866.1467.58.1934.88.0067.06.0133.1266.02.1866.0466.32.0666.6467.0666.98z" fill="url(#o)"/><path d="m28.1134 34.2066c0 .1067 0 .22-.0134.3267v.0066.0067c-.0133.48-.08.9533-.1866 1.38 0 .0267-.0067.0467-.02.0733h-3.1134l-2.5666-.5533-.34-.0733-.0534.0133-2.8466.5867-.1267.0266h-.18c-.4267 0-.8467-.04-1.2533-.12-.06-.0133-.12-.0266-.18-.04h-.0067c-.4667-.1-.92-.2533-1.3467-.4533-.0133-.0733-.0266-.1467-.0333-.22-.0467-.2867-.0667-.5867-.0667-.8867 0-.1133 0-.2266.0067-.34.02-.36.0733-.7133.1533-1.0533.0534-.2533.1267-.5.2134-.7333.0733-.2067.16-.4067.2533-.6.08-.1667.1733-.3267.2667-.4867.0933-.1533.1933-.3.3-.4467.2666-.3666.58-.7066.9266-1.0066.2-.1734.42-.34.6467-.4867.9733-.64 2.14-1.0133 3.4-1.0133.2467 0 .4867.0133.72.0466h.0133c.7134.08 1.38.28 1.9934.58h.0066c.9667.4734 1.7867 1.1867 2.3867 2.0667.1.1467.2.3067.2867.4667.0733.1266.14.26.2.3933.0933.2067.18.4267.2533.6467h.0067c.0733.2466.14.4933.1866.7533v.0067c.0734.3666.1134.7466.1134 1.1333z" fill="url(#p)"/><path d="m26.7399 34.3469v.02c0 .3933-.0466.78-.14 1.16-.0333.16-.08.32-.14.4733h-2.9866l-1.5267-.42-1.5267.42h-1.7533c-.4267 0-.8467-.04-1.2533-.12-.0134-.02-.02-.04-.0267-.06-.0933-.2867-.1667-.5733-.2-.8733-.0267-.1934-.04-.3934-.04-.6 0-.08 0-.1667.0133-.2467.0067-.3133.0534-.62.1334-.9133.04-.2.1-.3934.18-.58.0266-.0934.0666-.18.1133-.2667.1-.2267.22-.4467.3533-.66.1467-.2133.3067-.4133.4867-.6.2133-.24.4533-.46.7267-.64.4666-.34 1-.5933 1.58-.7333.3866-.1067.7933-.16 1.2133-.16 1.3333 0 2.5267.5333 3.3933 1.3933.0334.0333.0734.0733.1067.12h.0067c.0933.1.18.2.2666.3133.2467.3134.4534.6534.6134 1.0267.08.1733.1466.3533.2.54.0066.0267.0133.0467.02.0733.0933.3267.1533.6667.1666 1.02.0134.1.02.2067.02.3134z" fill="url(#q)"/><path d="m25.3734 34.3466c0 .2733-.0334.5333-.1067.78-.0667.2667-.1667.52-.2933.76-.02.04-.0667.1133-.0667.1133h-5.92c-.0067-.0066-.0133-.02-.0133-.0266-.08-.1267-.1467-.2534-.2-.3934-.1334-.3066-.2134-.64-.24-.9866-.0134-.08-.0134-.1667-.0134-.2467 0-.04 0-.0867.0067-.1267.0067-.2933.0467-.5733.1267-.8333.0666-.24.1533-.46.2666-.6733 0 0 .0067-.0067.0067-.0134.08-.14.1667-.28.2667-.4133.3266-.44.76-.8 1.26-1.0333h.0066c.16-.08.3267-.1467.5-.1934h.0067c.3067-.0933.64-.14.98-.14.3933 0 .7733.06 1.12.1867.1267.0333.2467.0867.3667.1467h.0066c.5734.2733 1.06.7 1.3934 1.2333.0666.1.1266.2067.18.32.0266.0467.0533.1.0733.1467.1533.3466.2467.7266.2733 1.1266.0067.0334.0067.0667.0067.1067.0067.0533.0067.1067.0067.16z" fill="url(#r)"/><path d="m28 15.333h-8c-2.6 0-4.6666 2.0667-4.6666 4.6667v8c0 2.6 2.0666 4.6666 4.6666 4.6666h8c2.6 0 4.6667-2.0666 4.6667-4.6666v-8c0-2.6-2.0667-4.6667-4.6667-4.6667z" stroke="#fff" stroke-linecap="round" stroke-linejoin="round" stroke-miterlimit="10" stroke-width="2"/><path d="m28.6667 19.3331c.3682 0 .6667-.2985.6667-.6667s-.2985-.6666-.6667-.6666-.6666.2984-.6666.6666.2984.6667.6666.6667z" fill="#fff"/><path d="m24 28c2.2091 0 4-1.7909 4-4s-1.7909-4-4-4-4 1.7909-4 4 1.7909 4 4 4z" stroke="#fff" stroke-linecap="round" stroke-linejoin="round" stroke-miterlimit="10" stroke-width="2"/></svg>