<svg fill="none" height="32" viewBox="0 0 33 32" width="33" xmlns="http://www.w3.org/2000/svg"><g fill="#949494"><path d="m27.98 8.98667c-.2667.17333-.6467.33333-.8067.51333-.06.06-.0933.12667-.08.19333v.68667l-.2.6733-.2.6667-.22.7333-.4533 1.5-.44 1.48-.3333 1.1134c0 .1733-.0067.3466-.02.5133-.0467.64-.18 1.2533-.3934 1.8267-.1266.3533-.28.6933-.4666 1.0133-.0667.1267-.1467.2533-.2267.3733-.2667.42-.5867.8067-.94 1.1467-.2733.2733-.5733.5267-.9.74 0 0 0 0-.0067 0-.0533.0467-.1133.0867-.18.12-.2066.14-.4266.26-.6533.3667-.1533.08-.3067.1466-.4667.2066-.0333.02-.0733.0334-.1066.0467-.38.18-.82.3-1.26.36-.0267.0067-.0467.0067-.0734.0133-.2666.0467-.5266.0867-.7933.1067-.12.0133-.2467.02-.3667.02l-.4733-.0267-2.28-.12c0-.0066-.0067 0-.0067 0l-1.1466-.06c-.0867 0-.18 0-.2667-.0066-.36-.0134-.7067-.0534-1.0533-.1267-.0067 0-.0067 0-.0067 0-.6333-.12-1.24-.3333-1.8067-.62-.3133-.16-.62-.34-.9066-.5467-.12-.0866-.2334-.18-.3467-.28-.32-.2666-.60667-.5533-.87334-.8466-.04-.04-.07333-.08-.10666-.12-.04-.04-.08-.0867-.11334-.1267-.25333-.32-.46666-.6467-.64-.9933-.16-.3067-.28666-.6334-.38666-.9934-.04-.1266-.07333-.2466-.1-.38-.00667-.0066-.01334-.02-.01334-.0333-.06666-.2733-.12666-.56-.15999-.8467-.04-.22-.06001-.44-.06001-.6666-.01333-.0867-.01333-.18-.01333-.2667l1.27334-1.9667 1.24663-1.92.5667-.8733.5133-.7867.1734-.2733v-.68667c.0133-.15333.02-.31333.0133-.46-.0067-.46666-.1-.92-.2533-1.35333-.1467-.46-.3534-.89333-.5667-1.29333-.2533-.46-.52-.87334-.74-1.24667-.32667-.54667-.55334-.99333-.49334-1.30667.48-.11333.98664-.17333 1.50004-.17333h10.6666c2.7867 0 5.1867 1.73333 6.18 4.17333.1067.26.2.53334.2667.81334z"/><path d="m28.2 10.6667v.18l-.92.5333-.5866.34-.6467.3733-1.2933.7534-1.2667.7333-1.2933.7467-.5134.3c0 .32-.08.6133-.2266.88-.2067.3866-.5534.7066-.9934.98-.4466.2733-.9933.4933-1.6066.6533 0 0 0-.0067-.0067 0-2.3733.6133-5.6133.3333-7.1867-.84-.44-.3267-.7466-.7267-.88-1.1867-.04-.1533-.06-.32-.06-.4866v-4.79337c.0067-.1-.06-.2-.18-.3-.36-.28666-1.20665-.56-2.15331-.83333-.74-.20667-1.53334-.41333-2.2-.61333-.52667-.16-.97334-.32-1.24-.47334.12-.23333.26-.46666.40666-.68666.93334-1.36667 2.36-2.37334 4.01334-2.75334.48-.11333.98671-.17333 1.50001-.17333h7.2c3.58.62667 6.88 2.08667 9.6467 4.17333.1066.26.2.53334.2666.81334.12.44.1934.89333.2134 1.36663.0066.1.0066.2067.0066.3134z"/><path d="m28.2 10.6667v2.94l-.1466.4533-.5 1.5533-.52 1.6-.2734.8534-.2533.7933-.2467.7533-.24.7467-.1266.3933-.1667.52c0 .5067-.0133.9534-.0467 1.3334-.0066.04-.0133.08-.0133.12-.04.3533-.0933.6533-.18.9066-.0067.04-.02.08-.0333.1134-.1734.48-.4334.7866-.82.9866-.0934.0534-.2.0934-.3134.1334-.3533.12-.8.18-1.3466.2133-.4.0267-.86.0333-1.38.0333h-.46l-.7934-.0333-.14-.0067-1.4466-.06-1.4667-.06-4.8333-.2-1.2534-.0533h-.1733c-.52-.0067-.9667-.04-1.35335-.0933-.56-.0867-.99333-.2334-1.32-.4534-.46666-.3-.74-.74-.9-1.3533-.04-.1467-.07333-.3-.09333-.4667-.06667-.3866-.1-.8333-.12-1.3333 0-.1 0-.2-.00667-.3067-.00666-.0066 0-.0066 0-.0066v-.3867c-.00666-.1933-.00666-.3933-.00666-.6l.03333-1.0733.02-.7667.02667-.8933v-.1267l.04666-1.64.04667-1.64.04667-1.54.04-1.5133.01333-.4c0-.2067-.7-.3267-1.48-.4267-.62-.08-1.3-.15333-1.70667-.24667.03334-.15333.06667-.30666.10667-.45333.12-.48.3-.93333.52667-1.36667.12-.23333.26-.46666.40666-.68666 1.44-.63334 2.94-1.12667 4.50667-1.44667 1.37338-.28667 2.80668-.44 4.28668-.44 4.9067 0 9.44 1.66 13.0267 4.46.3466.26667.6866.5533 1.02.8533.0066.1.0066.2067.0066.3134z"/><path d="m28.2 12.2467v3.0266l-.3667.7067-.7 1.3667-.3733.72-.34.66-.1467.2866c0 .2067 0 .4067-.0133.6 0 .2867-.0133.56-.0333.8134-.0267.3-.0667.5733-.1067.8266-.1.5267-.24.98-.44 1.3534-.0267.0466-.0533.0933-.08.1333-.0733.12-.16.2333-.2533.34-.12.1467-.2534.2733-.4067.38-.2267.1733-.4933.3133-.8.42-.38.14-.82.2333-1.34.2867-.34.0333-.7133.0533-1.12.0533l-.28.0133-1.3867.08h-.0066l-1.4734.0867-1.5.0867-2.0666.12-2.5134.1466-.3666.02c-.34 0-.66-.02-.9667-.06-.0333-.0066-.06-.0133-.0933-.0133-.4534-.0733-.8667-.1933-1.24002-.36-.45333-.2-.84667-.4667-1.18-.7867-.29333-.2866-.54667-.6133-.75333-.98-.04667-.0866-.09334-.1666-.13334-.26-.2-.3933-.36-.8333-.48-1.3133-.02-.08-.04-.1667-.05333-.2533-.04-.1534-.07333-.3134-.09333-.48-.07334-.4267-.11334-.88-.13334-1.3534v-.0066c-.00666-.1934-.01333-.38-.01333-.58l-.32667-.78-.04666-.12-.04-.1-.5-1.1934-.08-.1933-.48-1.1533-.53334-1.2867s0 0-.00666 0l-.54-1.3-.19334-.4733v-1.06c0-.42.04-.83337.11334-1.23337.03333-.15333.06666-.30666.10666-.45333.56667-.32667 1.16-.62667 1.76667-.89333 1.38667-.62 2.87333-1.08 4.41332-1.36 1.1467-.20667 2.34-.32 3.5467-.32 4.8733 0 9.2933 1.76666 12.7466 4.64663.1334.1067.26.2134.3867.3267.3133.2733.62.56.92.8667z"/><path d="m28.2 14.2333v3.4267l-.38.7933-.72 1.5-.0067.02c0 .2867-.0133.5467-.0333.78-.0667.7667-.2533 1.2534-.56 1.5534-.22.2266-.4933.3533-.8333.42-.02.0066-.0467.0066-.0667.0133-.1067.02-.22.0333-.34.0333-.4133.04-.9.0134-1.46-.0266-.06 0-.1267-.0067-.1933-.0134-.4067-.0266-.84-.0533-1.32-.0733-.26-.0067-.5334-.0133-.8134-.0133h-.0133l-.6733.0533h-.0067l-1.5133.1067-1.7267.1333-.2533.02-2.02.1467-1.0467.08-1.0333.0733c-.18 0-.3534 0-.5267-.0067 0 0-.0067-.0066-.0067 0-.7533-.0133-1.4266-.06-2.0266-.1733-.5534-.0933-1.04002-.24-1.45335-.46-.42667-.2067-.78-.5-1.06667-.8733-.27333-.3667-.47333-.8267-.6-1.38 0-.0067 0-.0067 0-.0067-.09333-.4467-.14667-.9667-.14667-1.5533l-.1-.18-.59333-1.06-.08667-.1467-.04666-.0933-.62-1.1-.30667-.5534-.38667-.6866-.66666-1.1934-.35334-.6266v-2.4534c.58667-.3866 1.19334-.72663 1.82-1.0333.76-.38667 1.54667-.71333 2.36667-.98.89333-.29333 1.82662-.52667 2.78002-.68.9666-.16 1.96-.24 2.98-.24 4.5333 0 8.6933 1.62 11.9 4.3133.1466.1134.2866.24.4266.36.56.5 1.0934 1.04 1.58 1.6067.0534.06.1067.1133.1467.1733z"/><path d="m28.2 16.4733v4.82c-.16-.0933-.38-.2066-.6533-.3266-.1467-.0734-.3134-.1467-.4867-.2134-.2533-.1133-.5267-.22-.8333-.3266-.0667-.0267-.1334-.0467-.2067-.0667-.12-.0467-.2467-.0867-.3733-.1267-.3934-.12-.8267-.2333-1.28-.3333-.1734-.0333-.3534-.0667-.5334-.0933-.58-.1-1.2-.16-1.8466-.1667-.0534-.0067-.1134-.0067-.1667-.0067l-1.7133.0134-2.3334.0133h-.0066l-4.9934.04c-1.5866 0-2.56.38-3.14662.5333 0 0-.00667 0-.00667.0067-.62.16-.81333.06-.86666-1.0267-.01334-.3-.02-.6866-.02-1.16l-.37334-.2866-.65333-.4934-.4-.3066-.08-.06-1.10667-.84-.16666-.1267-.34667-.2667-.64-.48-.76667-.5866v-2.2667c.06667-.0533.12667-.1.19334-.14.96666-.6667 2-1.2333 3.09333-1.6933.97333-.4134 2-.74003 3.05332-.97337.2867-.06.58-.12.88-.16.8867-.15333 1.8-.22666 2.7267-.22666 4.0066 0 7.6866 1.39333 10.6066 3.70003.44.3466.8667.7133 1.2667 1.1066.5467.52 1.06 1.0734 1.5333 1.66.0934.12.1867.24.28.3667.1267.16.2467.3267.3667.4933z"/><path d="m28.2 19.1467v2.1866c0 .4334-.04.86-.12 1.2734-.12.6133-.3267 1.2-.6067 1.7466-.1466.0334-.3133.0334-.5.0067-.42-.0733-.9133-.2933-1.4466-.58-.0267-.0067-.0534-.02-.0734-.0333-.1666-.0867-.34-.18-.5133-.2867-.3533-.1933-.7267-.4067-1.1-.6067-.08-.04-.16-.08-.2333-.12-.4267-.22-.8667-.42-1.3067-.5733 0 0 0 0-.0067 0-.0933-.0333-.1933-.0667-.2933-.0933-.38-.1067-.7667-.1734-1.14-.1734l-.7333-.2133-3.2467-.94s0 0-.0067 0l-1.9933-.58h-.0067l-.8666-.2533c-2.5067 0-4.04669 1.0666-4.79335.66-.29334-.1534-.46667-.54-.52667-1.3-.02-.2134-.02667-.4534-.02667-.7334l-.78-.38-.03333-.0133h-.00667l-.56-.28-.61333-.2933-.04667-.02-.11333-.06-1.30667-.6334-1-.4866v-2.2867c.11334-.1.23334-.1933.35334-.2867.12666-.1.25333-.1933.38-.2933h.00666c.78667-.5667 1.62-1.0667 2.50667-1.48 1.03333-.4933 2.13333-.8733 3.27332-1.12.1667-.04.34-.08.5133-.1067.9467-.18 1.92-.2733 2.9134-.2733 3.5133 0 6.74 1.14 9.34 3.06.7533.56 1.4533 1.18 2.0933 1.8533.5267.5534 1.0133 1.1534 1.4533 1.78.0334.0467.0667.0934.1.1334.2467.36.4734.7266.6867 1.1066.14.2267.26.46.38.6934z"/><path d="m28.08 22.6067c-.12.6133-.3267 1.2-.6067 1.7466-.1266.2467-.2666.48-.42.7067-.0933.14-.1933.2733-.2933.4-.24-.0933-.5933-.2267-1.0267-.3733 0 0 0 0 0-.0067-.3266-.1133-.7-.2333-1.1-.3467-.1133-.0333-.2266-.0666-.3466-.1-.4734-.1266-.9667-.24-1.4467-.3066-.4-.0667-.7933-.1067-1.16-.1067l-.3067-.0867h-.0066l-1.6134-.4666-.9933-.2867-1.1067-.32h-.0066l-.36-.1-4.3534-1.2533-1.2533-.36-.9333-.22-1.52002-.36-.18667-.0467s0 0-.00666 0l-1.52667-.3533c0-.0067 0-.0067 0-.0067l-.27333-.06-.14-.0333-1.11334-.26-.12666-.0334-.94667-.78-.70667-.5933v-2.72c.24667-.24.5-.4667.76667-.6867.08-.0733.16667-.14.25333-.2066.08-.0667.16667-.1334.25334-.2.60666-.46 1.24666-.8734 1.92666-1.2267.86667-.4667 1.78667-.84 2.75329-1.1067.1867-.06.3734-.1133.5667-.1533 1.0933-.2733 2.24-.4133 3.4267-.4133 2.98 0 5.7533.9 8.0466 2.44 1.14.7666 2.1667 1.6866 3.0334 2.7333.44.5267.84 1.08 1.1933 1.6667.0333.0466.06.0866.0867.1333.2133.3533.4133.72.5933 1.0933.1667.3334.3133.6667.4467 1.0134.2133.5333.3866 1.08.5333 1.64z"/><path d="m27.0533 25.06c-.0933.14-.1933.2733-.2933.4-.2933.3667-.6133.7-.9733.9933-.3134.26-.6467.4934-1 .6934-.1334-.0334-.2667-.0734-.4067-.1267-.44-.1533-.9-.4067-1.3267-.6733-.64-.4067-1.1933-.8467-1.44-1.0467-.0933-.08-.14-.12-.14-.12l-1.1333-.1-.14-.0133-1.4667-.1267-1.52-.1333-2.2466-.2-3.56-.3134-.0134-.0066-1.2533-.6067-1.26665-.6133-1.02-.4934-.22-.1066-.27334-.1334-.94666-.46-1.26-.6066-.39334-.1934-.56-.1733v-2.98c.31334-.3733.64667-.7267 1-1.0667.22667-.2133.46667-.4266.71334-.6266.04-.0334.08-.0667.12-.0934.02666-.0333.06-.0533.08666-.0666.39334-.32.80667-.6067 1.23334-.8667.49333-.3133 1.01333-.5933 1.55333-.8267.58-.26 1.18662-.48 1.81332-.6466 1.0867-.3067 2.24-.4667 3.4267-.4667 2.72 0 5.2333.8267 7.3066 2.2467 1.3267.9066 2.4734 2.0533 3.38 3.38.3.4266.5667.88.8134 1.3466.0866.1734.1733.3467.2466.52.08.1667.1534.3334.2267.5.14.3467.2667.6934.38 1.0534.2133.6666.3733 1.3466.4733 2.0533.0334.2333.06.4667.08.7z"/><path d="m25.7933 26.28c0 .0533 0 .1133-.0066.1733-.3134.26-.6467.4934-1 .6934-.1467.08-.2934.16-.4467.2266-.1533.0734-.3067.14-.4667.2-.2266-.12-.5333-.2666-.86-.4066-.46-.2067-.96-.3934-1.3466-.4534-.0934-.02-.18-.0266-.26-.0266l-1.0934-.14h-.0133l-1.36-.18-1.3733-.18-.64-.08-5.04-.6534c-.3267 0-.6734-.02-1.0334-.0666-.44-.04-.89996-.1067-1.35996-.2-.45333-.08-.91333-.1867-1.35333-.3-.46-.1067-.91333-.2334-1.33333-.3534-.48667-.1466-.94-.2866-1.32-.4133-.31333-.1-.58-.1933-.78667-.2667-.12-.2866-.22-.5866-.29333-.8933-.14-.52-.20667-1.0667-.20667-1.6267v-1.1133c.21334-.3533.44667-.7.70667-1.0267.47333-.6266 1.01333-1.2 1.6-1.7066.02-.0267.04667-.0467.06667-.06l.00666-.0067c.20667-.1867.42-.3533.64667-.5133.02667-.0267.05333-.0467.08-.0667.10667-.08.22-.16.34-.2333.95333-.6467 2.00667-1.1534 3.13332-1.4934 1.0667-.32 2.1933-.4866 3.3667-.4866 2.3266 0 4.5.6866 6.3133 1.86 1.34.86 2.4933 1.9933 3.3733 3.32.1067.1533.2067.3066.3067.4666.46.78.84 1.62 1.12 2.5.0333.1.06.2.0867.3067.0533.18.1.3667.14.5533.0133.0467.0266.0934.04.1467.0933.42.16.86.2066 1.3v.0067c.04.3933.06.7933.06 1.1933z"/><path d="m24.42 26.28c0 .2333-.0133.4867-.04.74-.0133.12-.0267.24-.04.3533-.1533.0734-.3067.14-.4667.2-.3.1134-.6066.2067-.92.2734-.2133.0466-.4333.0866-.6533.1066h-.0067c-.2066-.1266-.4466-.28-.6933-.4533-.4467-.3133-.9133-.6667-1.2867-.9533-.0066-.0067-.0066-.0067-.0133-.0134-.3933-.3-.6733-.5266-.6733-.5266l-.7067.0266-1.36.0467-.6333.0267-2.5467.0933-2.1533.08c-.14.0067-.3067.0067-.5134 0h-.0066c-.28-.0067-.6134-.0267-.98-.06-.4267-.0333-.89336-.0733-1.36669-.12-.46-.0533-.92667-.1067-1.37333-.16-.49334-.0533-.96-.1133-1.36-.1667-.31334-.04-.58667-.0733-.80667-.1-.18667-.2133-.35333-.4333-.51333-.6733-.24-.36-.44667-.74-.60667-1.1467-.12-.2866-.22-.5866-.29333-.8933.19333-.5933.44666-1.1533.74666-1.6933.24-.44.52-.86.82667-1.26.3-.3934.62667-.76.98-1.0934v-.0066c.1-.1.2-.1934.3-.28.18667-.1734.38-.3334.58-.4867h.00667c.00666-.0133.01333-.0133.02-.02.16-.1267.32666-.24.49333-.3533.98667-.6734 2.09999-1.1734 3.29999-1.4667.7933-.1933 1.6267-.3 2.4867-.3 1.6933 0 3.2933.4067 4.7 1.14h.0066c1.2067.62 2.2734 1.4733 3.1334 2.5.4733.5467.88 1.1467 1.2133 1.78.2333.4267.4333.8733.6 1.3267.0133.04.0267.0733.04.1066.1133.3334.2133.68.3 1.0267.06.2467.1067.5.1467.7533.0133.08.0266.1534.0333.2334.0667.46.1.9333.1 1.4133z"/><path d="m23.0533 26.28v.0667c0 .2266-.02.5133-.04.82-.02.2266-.04.46-.06.68-.2133.0466-.4333.0866-.6533.1066h-.0067c-.2533.0334-.5.0467-.76.0467h-1.1666l-.2534-.0733-1.3133-.4-1.3333-.4-3.0867-.9267-1.3333-.4s-.5534.22-1.3334.48h-.0066c-.3.1-.6267.2067-.9734.3133-.4333.1267-.8933.2534-1.34663.3534-.46667.1066-.92666.1866-1.34.22-.12667.0133-.25333.02-.36667.02-.37333-.2067-.73333-.4534-1.06-.7267-.28666-.24-.55333-.5-.8-.7867-.18666-.2133-.35333-.4333-.51333-.6733.04667-.3.1-.5933.18-.88.2-.7933.51333-1.5533.92667-2.2467.22666-.3933.48-.7733.77333-1.1266.00667-.02.02667-.04.04667-.0534-.00667-.0066 0-.0066 0-.0066.08666-.1134.18-.22.27333-.32 0-.0067 0-.0067 0-.0067.27333-.2933.55333-.5733.86-.8333.10667-.0867.20667-.1734.32-.26.02-.02.04-.0334.06667-.0534 1.49996-1.1466 3.37336-1.84 5.39336-1.84 2.2933 0 4.38.86 5.96 2.2734.76.6866 1.4066 1.5066 1.8933 2.42.04.0666.08.14.1133.2133.06.12.12.2467.1734.38.22.48.3933.9867.5133 1.5067.0133.0533.0267.1066.04.16.0533.2466.1.5.1333.7533.0534.3933.08.7933.08 1.2z"/><path d="m21.68 26.28c0 .1333-.0066.28-.0133.4333-.0133.2467-.0333.5134-.0667.7867-.0133.1667-.04.3333-.0666.5h-3.6534l-.7066-.1133-2.76-.44-.3934-.06-.9-.1467c-.3933 0-1.2466.1733-2.1466.34-.4734.0867-.9534.18-1.38671.24-.05333.0067-.10667.0133-.15333.02h-.00667c-.46667-.1-.92-.2533-1.34667-.4533-.13333-.06-.26666-.1267-.4-.2-.37333-.2067-.73333-.4534-1.06-.7267-.00666-.08-.01333-.1467-.01333-.18 0-.1733.00667-.34.02-.5067.02667-.4266.08667-.84.18-1.24.14667-.6066.36-1.1933.64667-1.7333.05333-.1133.11333-.2267.18-.3333.02666-.0534.06-.1.08666-.1534.12-.1933.25334-.38.38667-.5666.28-.3667.59333-.7134.92667-1.0267h.00666c.02667-.0267.05334-.0533.08-.0733.03334-.0267.06-.06.09334-.08.13333-.12.26666-.2267.40666-.3267 0-.0067.00667-.0067.00667-.0067 1.26001-.94 2.82001-1.4933 4.52001-1.4933 1.32 0 2.5467.3333 3.62.92h.0067c.92.5067 1.72 1.1933 2.3533 2.02.2467.32.4667.66.6533 1.02h.0067c.0333.0667.0667.1333.1.2.2.3933.36.8067.48 1.2333h.0067c.0066.0334.02.0667.0266.1.08.2867.1467.58.1934.88.0066.06.0133.1267.02.1867.0466.32.0666.6467.0666.98z"/><path d="m20.3133 26.2067c0 .1066 0 .22-.0133.3266v.0067.0067c-.0133.48-.08.9533-.1867 1.38 0 .0266-.0066.0466-.02.0733h-3.1133l-2.5667-.5533-.34-.0734-.0533.0134-2.8467.5866-.1266.0267h-.18c-.4267 0-.8467-.04-1.25336-.12-.06-.0133-.12-.0267-.18-.04h-.00666c-.46667-.1-.92-.2533-1.34667-.4533-.01333-.0734-.02667-.1467-.03333-.22-.04667-.2867-.06667-.5867-.06667-.8867 0-.1133 0-.2267.00667-.34.02-.36.07333-.7133.15333-1.0533.05333-.2534.12667-.5.21333-.7334.07334-.2066.16-.4066.25334-.6.08-.1666.17333-.3266.26666-.4866.09334-.1534.19334-.3.3-.4467.26667-.3667.58-.7067.92666-1.0067.2-.1733.42-.34.6467-.4866.9733-.64 2.14-1.0134 3.4-1.0134.2466 0 .4866.0134.72.0467h.0133c.7133.08 1.38.28 1.9933.58h.0067c.9667.4733 1.7867 1.1867 2.3867 2.0667.1.1466.2.3066.2866.4666.0734.1267.14.26.2.3934.0934.2066.18.4266.2534.6466h.0066c.0734.2467.14.4934.1867.7534v.0066c.0733.3667.1133.7467.1133 1.1334z"/><path d="m18.94 26.3467v.02c0 .3933-.0467.78-.14 1.16-.0333.16-.08.32-.14.4733h-2.9867l-1.5266-.42-1.5267.42h-1.7533c-.4267 0-.8467-.04-1.25335-.12-.01334-.02-.02-.04-.02667-.06-.09333-.2867-.16667-.5733-.2-.8733-.02667-.1934-.04-.3934-.04-.6 0-.08 0-.1667.01333-.2467.00667-.3133.05334-.62.13334-.9133.04-.2.1-.3934.18-.58.02666-.0934.06666-.18.11333-.2667.1-.2267.22002-.4467.35332-.66.1467-.2133.3067-.4133.4867-.6.2133-.24.4533-.46.7266-.64.4667-.34 1-.5933 1.58-.7333.3867-.1067.7934-.16 1.2134-.16 1.3333 0 2.5266.5333 3.3933 1.3933.0333.0333.0733.0733.1067.12h.0066c.0934.1.18.2.2667.3133.2467.3134.4533.6534.6133 1.0267.08.1733.1467.3533.2.54.0067.0267.0134.0467.02.0733.0934.3267.1534.6667.1667 1.02.0133.1.02.2067.02.3134z"/><path d="m17.5733 26.3467c0 .2733-.0333.5333-.1066.78-.0667.2666-.1667.52-.2934.76-.02.04-.0666.1133-.0666.1133h-5.92c-.0067-.0067-.0134-.02-.0134-.0267-.08-.1266-.1466-.2533-.2-.3933-.1333-.3067-.2133-.64-.24-.9867-.0133-.08-.0133-.1666-.0133-.2466 0-.04 0-.0867.0067-.1267.0066-.2933.0466-.5733.1266-.8333.0667-.24.1534-.46.2667-.6734 0 0 .0067-.0066.0067-.0133.08-.14.1666-.28.2666-.4133.3267-.44.76-.8 1.26-1.0334h.0067c.16-.08.3267-.1466.5-.1933h.0067c.3066-.0933.64-.14.98-.14.3933 0 .7733.06 1.12.1867.1266.0333.2466.0866.3666.1466h.0067c.5733.2734 1.06.7 1.3933 1.2334.0667.1.1267.2066.18.32.0267.0466.0534.1.0734.1466.1533.3467.2466.7267.2733 1.1267.0067.0333.0067.0667.0067.1067.0066.0533.0066.1066.0066.16z"/></g><path d="m20.2 7.33333h-8c-2.59998 0-4.66664 2.06667-4.66664 4.66667v8c0 2.6 2.06666 4.6667 4.66664 4.6667h8c2.6 0 4.6667-2.0667 4.6667-4.6667v-8c0-2.6-2.0667-4.66667-4.6667-4.66667z" stroke="#fff" stroke-linecap="round" stroke-linejoin="round" stroke-miterlimit="10" stroke-width="2"/><path d="m20.8667 11.3333c.3682 0 .6666-.2984.6666-.6666s-.2984-.6667-.6666-.6667-.6667.2985-.6667.6667.2985.6666.6667.6666z" fill="#fff"/><path d="m16.2 20c2.2092 0 4-1.7909 4-4s-1.7908-4-4-4c-2.2091 0-4 1.7909-4 4s1.7909 4 4 4z" stroke="#fff" stroke-linecap="round" stroke-linejoin="round" stroke-miterlimit="10" stroke-width="2"/></svg>