<svg fill="none" height="48" viewBox="0 0 48 48" width="48" xmlns="http://www.w3.org/2000/svg" xmlns:xlink="http://www.w3.org/1999/xlink"><linearGradient id="a" gradientUnits="userSpaceOnUse" x1="-3.23316" x2="58.3738" y1="10.5205" y2="32.8007"><stop offset=".00800497" stop-color="#38dbff"/><stop offset="1" stop-color="#243aff"/></linearGradient><circle cx="24" cy="24" fill="url(#a)" r="24"/><path d="m16 20.6667h3.3333v11.3333h-3.3333zm1.6567-1.3334h-.0187c-.9947 0-1.638-.7413-1.638-1.6673 0-.946.6633-1.666 1.676-1.666 1.014 0 1.6387.72 1.6573 1.666 0 .9253-.6433 1.6673-1.6766 1.6673zm14.3433 12.6667h-3.3333v-6.066c0-1.4653-.8167-2.4653-2.128-2.4653-1.0007 0-1.542.6746-1.8047 1.3266-.096.2334-.0673.8787-.0673 1.2047v6h-3.3334v-11.3333h3.3334v1.744c.4806-.744 1.2333-1.744 3.1586-1.744 2.3854 0 4.174 1.5 4.174 4.8493z" fill="#fff"/></svg>