<svg width="28" height="29" viewBox="0 0 28 29" fill="none" xmlns="http://www.w3.org/2000/svg">
<path d="M13.9437 28.2809C21.5184 28.2809 27.6588 22.1404 27.6588 14.5658C27.6588 6.99115 21.5184 0.850685 13.9437 0.850685C6.3691 0.850685 0.228638 6.99115 0.228638 14.5658C0.228638 22.1404 6.3691 28.2809 13.9437 28.2809Z" fill="#007AB5"/>
<path d="M8.07855 11.6957H10.8622V20.6382H8.07855V11.6957ZM9.47178 7.25298C10.3625 7.25298 11.0835 7.97534 11.0835 8.86332C11.0835 9.75271 10.3625 10.4765 9.47178 10.4765C8.57961 10.4765 7.85864 9.75271 7.85864 8.86332C7.85725 7.97534 8.57822 7.25298 9.47178 7.25298Z" fill="white"/>
<path d="M12.6062 11.6957H15.273V12.9191H15.3091C15.6808 12.2149 16.5868 11.4744 17.9411 11.4744C20.7554 11.4744 21.2745 13.3255 21.2745 15.7334V20.6382H18.4964V16.2915C18.4964 15.2532 18.4756 13.9199 17.0517 13.9199C15.6042 13.9199 15.3843 15.05 15.3843 16.215V20.6382H12.6062V11.6957Z" fill="white"/>
</svg>
