<svg fill="none" height="32" viewBox="0 0 32 32" width="32" xmlns="http://www.w3.org/2000/svg"><path d="m28 24.6667c0 1.8413-1.492 3.3333-3.3333 3.3333h-17.33337c-1.84066 0-3.33333-1.492-3.33333-3.3333v-17.33337c0-1.84133 1.49267-3.33333 3.33333-3.33333h17.33337c1.8413 0 3.3333 1.492 3.3333 3.33333z" fill="#949494"/><path d="m8 12.6667h3.3333v11.3333h-3.3333zm1.65667-1.3334h-.01867c-.99467 0-1.638-.7413-1.638-1.6673 0-.946.66333-1.666 1.676-1.666 1.014 0 1.6387.72 1.6573 1.666 0 .9253-.6433 1.6673-1.67663 1.6673zm14.34333 12.6667h-3.3333v-6.066c0-1.4653-.8167-2.4653-2.128-2.4653-1.0007 0-1.542.6746-1.8047 1.3266-.096.2334-.0673.8787-.0673 1.2047v6h-3.3334v-11.3333h3.3334v1.744c.4806-.744 1.2333-1.744 3.1586-1.744 2.3854 0 4.174 1.5 4.174 4.8493z" fill="#fff"/></svg>