<svg fill="none" height="24" viewBox="0 0 24 24" width="24" xmlns="http://www.w3.org/2000/svg"><g stroke="#ffffe3" stroke-linecap="round" stroke-width="1.5"><path d="m4.17038 15.2998 4.53 4.53c1.86002 1.86 4.88002 1.86 6.75002 0l4.39-4.39c1.86-1.86 1.86-4.88 0-6.75l-4.54-4.52c-.95-.95-2.26-1.46-3.6-1.39l-5.00002.24c-2 .09-3.59 1.68-3.69 3.67l-.24 5c-.06 1.35.45 2.66 1.4 3.61z" stroke-linejoin="round"/><path d="m9.5 12c1.3807 0 2.5-1.1193 2.5-2.5 0-1.38071-1.1193-2.5-2.5-2.5-1.38071 0-2.5 1.11929-2.5 2.5 0 1.3807 1.11929 2.5 2.5 2.5z"/></g></svg>