<svg fill="none" height="48" viewBox="0 0 48 48" width="48" xmlns="http://www.w3.org/2000/svg" xmlns:xlink="http://www.w3.org/1999/xlink"><linearGradient id="a" gradientUnits="userSpaceOnUse" x1="-3.23316" x2="58.3738" y1="10.5205" y2="32.8007"><stop offset=".00800497" stop-color="#38dbff"/><stop offset="1" stop-color="#243aff"/></linearGradient><circle cx="24" cy="24" fill="url(#a)" r="24"/><path d="m30.6334 17.9997-2.4973 12.7506s-.1074.5827-.83.5827c-.384 0-.582-.1827-.582-.1827l-5.4094-4.4886-2.6466-1.334-3.3967-.9034s-.6047-.1746-.6047-.6746c0-.4167.622-.6154.622-.6154l14.2107-5.6453s.434-.1567.7507-.156c.1946 0 .4166.0833.4166.3333 0 .1667-.0333.3334-.0333.3334z" fill="#fff"/><path d="m23.3334 28.3371-2.284 2.2494s-.0993.0766-.232.08c-.046.0013-.0953-.006-.146-.0287l.6427-3.9767z" fill="#b0bec5"/><path d="m27.9314 20.1306c-.1127-.1467-.3207-.1733-.4673-.062l-8.7974 5.2647s1.404 3.928 1.618 4.608c.2147.6806.3867.6966.3867.6966l.6427-3.9766 6.5546-6.064c.1467-.1114.174-.32.0627-.4667z" fill="#cfd8dc"/></svg>