<svg fill="none" height="32" viewBox="0 0 33 32" width="33" xmlns="http://www.w3.org/2000/svg"><path d="m16.6 2.66667c-3.5362 0-6.92761 1.40476-9.42809 3.90524-2.50049 2.50049-3.90525 5.89189-3.90525 9.42809s1.40476 6.9276 3.90525 9.4281c2.50048 2.5005 5.89189 3.9052 9.42809 3.9052s6.9276-1.4047 9.4281-3.9052 3.9052-5.8919 3.9052-9.4281-1.4047-6.9276-3.9052-9.42809c-2.5005-2.50048-5.8919-3.90524-9.4281-3.90524z" fill="#949494"/><path d="m23.2333 10-2.4973 12.7507s-.1073.5826-.83.5826c-.384 0-.582-.1826-.582-.1826l-5.4093-4.4887-2.6467-1.334-3.39667-.9033s-.60467-.1747-.60467-.6747c0-.4167.622-.6153.622-.6153l14.21064-5.64537s.434-.15666.7507-.156c.1947 0 .4167.08334.4167.33334 0 .16666-.0334.33333-.0334.33333z" fill="#fff"/><path d="m15.9333 20.3367-2.284 2.2493s-.0993.0767-.232.08c-.046.0013-.0953-.006-.146-.0287l.6427-3.9766z" fill="#b0bec5"/><path d="m20.5313 12.1307c-.1126-.1467-.3206-.1734-.4673-.062l-8.7973 5.2646s1.404 3.928 1.618 4.608c.2146.6807.3866.6967.3866.6967l.6427-3.9767 6.5547-6.064c.1466-.1113.174-.32.0626-.4666z" fill="#cfd8dc"/></svg>