<svg fill="none" height="483" viewBox="0 0 443 483" width="443" xmlns="http://www.w3.org/2000/svg"><rect fill="#1b223a" height="481.895" rx="27.5502" stroke="#fdfdfd" stroke-width=".933906" width="440.803" x=".976535" y=".466953"/><path d="m34.1302 136.822h380.3008" stroke="#fff" stroke-width=".549568"/><path d="m34.1302 308.288h380.3008" stroke="#fff" stroke-width=".549568"/><path d="m34.1302 93.9562h380.3008" stroke="#fff" stroke-width=".549568"/><path d="m34.1303 51.09h380.3007" stroke="#fff" stroke-width=".549568"/><path d="m34.1302 265.422h380.3008" stroke="#fff" stroke-width=".549568"/><path d="m34.1302 179.689h380.3008" stroke="#fff" stroke-width=".549568"/><path d="m34.1302 351.154h380.3008" stroke="#fff" stroke-width=".549568"/><path d="m34.1302 222.555h380.3008" stroke="#fff" stroke-width=".549568"/><path d="m34.1302 394.02h380.3008" stroke="#fff" stroke-width=".549568"/><path d="m34.1302 436.886h380.3008" stroke="#fff" stroke-width=".549568"/><path d="m34.405 51.3647v385.7033" stroke="#fff" stroke-width=".549568"/><path d="m414.505 51.3647v385.7033" stroke="#fff" stroke-width=".549568"/><g fill="#fff"><path d="m222.425 81.6206h1.53l-3.57-9.3876h-1.582l-3.595 9.3876h1.451l.863-2.3273h4.053zm-2.863-7.8187 1.582 4.3278h-3.19zm9.975 7.8187h1.229l2.981-7.1911v7.1911h1.334v-9.3876h-1.778l-3.138 7.6225-3.151-7.6225h-1.765v9.3876h1.32v-7.178zm11.797.1961c2.719 0 4.772-2.1311 4.772-4.903 0-2.7718-2.053-4.8768-4.772-4.8768-2.72 0-4.773 2.105-4.773 4.8768 0 2.7719 2.053 4.903 4.773 4.903zm0-1.2944c-1.988 0-3.282-1.5951-3.282-3.6086s1.294-3.5824 3.282-3.5824c1.987 0 3.281 1.5689 3.281 3.5824s-1.294 3.6086-3.281 3.6086zm13.489-8.2893h-1.438v6.0536c0 1.3597-.797 2.2357-2.196 2.2357-1.386 0-2.184-.876-2.184-2.2357v-6.0536h-1.438v6.0143c0 2.1574 1.373 3.5694 3.622 3.5694 2.248 0 3.634-1.412 3.634-3.5694zm8.277 9.3876h1.452v-9.3876h-1.334v7.1388l-4.824-7.1388h-1.569v9.3876h1.333v-7.3349zm7.206 0v-8.0932h3.059v-1.2944h-7.557v1.2944h3.06v8.0932z"/><path d="m209.306 121.189v-8.838h-3.047v1.151h1.713v7.687zm3.74-.562c0-.876-.392-1.399-1.111-1.399-.536 0-.955.366-.955.929 0 .483.367.889.863.889.092 0 .17-.013.288-.053-.078.641-.654 1.099-1.504 1.125v.745c1.439-.026 2.419-.994 2.419-2.236zm3.448.562v-8.838h-3.046v1.151h1.713v7.687zm1.675-4.406c0 2.929 1.137 4.537 3.256 4.537 2.118 0 3.268-1.608 3.268-4.537 0-2.928-1.177-4.563-3.268-4.563-2.092 0-3.256 1.635-3.256 4.563zm1.36 0c0-2.209.68-3.373 1.896-3.373 1.242 0 1.908 1.164 1.908 3.373 0 2.197-.666 3.347-1.908 3.347-1.243 0-1.896-1.163-1.896-3.347zm9.514 4.524c1.883 0 3.164-1.072 3.164-2.641 0-1.02-.667-1.778-1.831-2.092.916-.431 1.426-1.124 1.426-1.987 0-1.386-1.099-2.367-2.798-2.367-1.609 0-2.838 1.085-2.877 2.537h1.282c.039-.902.64-1.478 1.542-1.478.889 0 1.478.562 1.478 1.399 0 .863-.654 1.438-1.648 1.438h-.849v1.06h.915c1.216 0 1.987.588 1.987 1.516 0 .955-.68 1.556-1.791 1.556-1.072 0-1.778-.614-1.831-1.569h-1.294c.013 1.556 1.294 2.628 3.125 2.628zm6.437-.68c0-.876-.392-1.399-1.111-1.399-.536 0-.955.366-.955.929 0 .483.366.889.863.889.092 0 .17-.013.288-.053-.079.641-.654 1.099-1.504 1.125v.745c1.438-.026 2.419-.994 2.419-2.236zm4.171.693c2.053 0 3.19-1.373 3.19-2.955 0-1.503-1.059-2.863-3.007-2.863-.602 0-1.164.183-1.661.575l.393-2.549h3.765v-1.177h-4.72l-.784 4.929 1.072.34c.366-.641.954-.967 1.739-.967 1.176 0 1.83.797 1.83 1.712 0 1.007-.601 1.765-1.817 1.765-.981 0-1.7-.562-1.791-1.503h-1.321c.065 1.569 1.386 2.693 3.112 2.693zm9.973-1.307h-3.726l1.778-2.014c1.451-1.543 1.831-2.249 1.831-3.255 0-1.452-1.203-2.524-2.851-2.524-1.752 0-2.981 1.177-2.981 2.811h1.295c0-.98.653-1.621 1.634-1.621.902 0 1.517.615 1.517 1.491 0 .797-.406 1.412-1.452 2.549l-2.758 2.981v.758h5.713zm1.219-3.23c0 2.929 1.137 4.537 3.255 4.537 2.119 0 3.269-1.608 3.269-4.537 0-2.928-1.177-4.563-3.269-4.563-2.091 0-3.255 1.635-3.255 4.563zm1.36 0c0-2.209.68-3.373 1.895-3.373 1.243 0 1.909 1.164 1.909 3.373 0 2.197-.666 3.347-1.909 3.347-1.242 0-1.895-1.163-1.895-3.347zm8.252 3.844c0-.876-.393-1.399-1.112-1.399-.536 0-.954.366-.954.929 0 .483.366.889.863.889.091 0 .17-.013.287-.053-.078.641-.653 1.099-1.503 1.125v.745c1.438-.026 2.419-.994 2.419-2.236zm1.075-3.844c0 2.929 1.137 4.537 3.255 4.537 2.119 0 3.269-1.608 3.269-4.537 0-2.928-1.177-4.563-3.269-4.563-2.091 0-3.255 1.635-3.255 4.563zm1.36 0c0-2.209.68-3.373 1.895-3.373 1.243 0 1.909 1.164 1.909 3.373 0 2.197-.666 3.347-1.909 3.347-1.242 0-1.895-1.163-1.895-3.347zm6.441 0c0 2.929 1.138 4.537 3.256 4.537s3.269-1.608 3.269-4.537c0-2.928-1.177-4.563-3.269-4.563s-3.256 1.635-3.256 4.563zm1.36 0c0-2.209.68-3.373 1.896-3.373 1.242 0 1.909 1.164 1.909 3.373 0 2.197-.667 3.347-1.909 3.347s-1.896-1.163-1.896-3.347zm6.442 0c0 2.929 1.137 4.537 3.255 4.537s3.269-1.608 3.269-4.537c0-2.928-1.177-4.563-3.269-4.563s-3.255 1.635-3.255 4.563zm1.359 0c0-2.209.68-3.373 1.896-3.373 1.242 0 1.909 1.164 1.909 3.373 0 2.197-.667 3.347-1.909 3.347s-1.896-1.163-1.896-3.347z"/><path d="m214.194 291.478h-3.726l1.778-2.013c1.451-1.543 1.831-2.249 1.831-3.256 0-1.451-1.203-2.523-2.851-2.523-1.752 0-2.981 1.176-2.981 2.811h1.295c0-.981.653-1.622 1.634-1.622.902 0 1.517.615 1.517 1.491 0 .797-.406 1.412-1.452 2.549l-2.758 2.981v.759h5.713zm1.219-3.229c0 2.928 1.137 4.537 3.255 4.537 2.119 0 3.269-1.609 3.269-4.537 0-2.929-1.177-4.563-3.269-4.563-2.091 0-3.255 1.634-3.255 4.563zm1.36 0c0-2.21.68-3.374 1.895-3.374 1.243 0 1.909 1.164 1.909 3.374 0 2.196-.666 3.347-1.909 3.347-1.242 0-1.895-1.164-1.895-3.347zm9.514 4.523c1.883 0 3.164-1.072 3.164-2.641 0-1.019-.667-1.778-1.831-2.092.916-.431 1.426-1.124 1.426-1.987 0-1.386-1.099-2.366-2.798-2.366-1.609 0-2.838 1.085-2.877 2.536h1.281c.04-.902.641-1.477 1.543-1.477.889 0 1.478.562 1.478 1.399 0 .863-.654 1.438-1.648 1.438h-.85v1.059h.916c1.216 0 1.987.588 1.987 1.517 0 .954-.68 1.555-1.791 1.555-1.072 0-1.778-.614-1.831-1.569h-1.294c.013 1.556 1.294 2.628 3.125 2.628zm6.437-.679c0-.876-.392-1.399-1.111-1.399-.536 0-.955.366-.955.928 0 .484.366.889.863.889.092 0 .17-.013.288-.052-.079.64-.654 1.098-1.504 1.124v.745c1.438-.026 2.419-.993 2.419-2.235zm7.147-.615h-3.726l1.778-2.013c1.451-1.543 1.831-2.249 1.831-3.256 0-1.451-1.203-2.523-2.851-2.523-1.752 0-2.981 1.176-2.981 2.811h1.295c0-.981.653-1.622 1.634-1.622.902 0 1.517.615 1.517 1.491 0 .797-.406 1.412-1.452 2.549l-2.758 2.981v.759h5.713zm7.652-1.307c0-1.073-.719-1.779-1.647-2.119.732-.326 1.308-1.019 1.308-1.921 0-1.439-1.216-2.445-2.89-2.445-1.7 0-2.903 1.006-2.903 2.445 0 .902.563 1.595 1.308 1.921-.928.34-1.661 1.046-1.661 2.119 0 1.542 1.321 2.601 3.256 2.601 1.922 0 3.229-1.059 3.229-2.601zm-4.772-4.001c0-.876.628-1.425 1.543-1.425.902 0 1.53.549 1.53 1.425 0 .863-.628 1.386-1.53 1.386-.915 0-1.543-.523-1.543-1.386zm-.327 3.974c0-.954.759-1.529 1.87-1.529 1.098 0 1.87.575 1.87 1.529 0 .981-.772 1.569-1.87 1.569-1.111 0-1.87-.588-1.87-1.569zm6.378-1.895c0 2.928 1.137 4.537 3.255 4.537 2.119 0 3.269-1.609 3.269-4.537 0-2.929-1.177-4.563-3.269-4.563s-3.255 1.634-3.255 4.563zm1.36 0c0-2.21.679-3.374 1.895-3.374 1.243 0 1.909 1.164 1.909 3.374 0 2.196-.666 3.347-1.909 3.347-1.242 0-1.895-1.164-1.895-3.347zm8.252 3.844c0-.876-.393-1.399-1.112-1.399-.536 0-.954.366-.954.928 0 .484.366.889.863.889.091 0 .17-.013.287-.052-.078.64-.653 1.098-1.503 1.124v.745c1.438-.026 2.419-.993 2.419-2.235zm1.075-3.844c0 2.928 1.137 4.537 3.255 4.537 2.119 0 3.269-1.609 3.269-4.537 0-2.929-1.177-4.563-3.269-4.563s-3.255 1.634-3.255 4.563zm1.36 0c0-2.21.679-3.374 1.895-3.374 1.243 0 1.909 1.164 1.909 3.374 0 2.196-.666 3.347-1.909 3.347-1.242 0-1.895-1.164-1.895-3.347zm6.441 0c0 2.928 1.138 4.537 3.256 4.537s3.268-1.609 3.268-4.537c0-2.929-1.176-4.563-3.268-4.563s-3.256 1.634-3.256 4.563zm1.36 0c0-2.21.68-3.374 1.896-3.374 1.242 0 1.909 1.164 1.909 3.374 0 2.196-.667 3.347-1.909 3.347s-1.896-1.164-1.896-3.347zm6.442 0c0 2.928 1.137 4.537 3.255 4.537s3.269-1.609 3.269-4.537c0-2.929-1.177-4.563-3.269-4.563s-3.255 1.634-3.255 4.563zm1.359 0c0-2.21.68-3.374 1.896-3.374 1.242 0 1.909 1.164 1.909 3.374 0 2.196-.667 3.347-1.909 3.347s-1.896-1.164-1.896-3.347z"/><path d="m216.475 162.879h-3.726l1.778-2.014c1.451-1.542 1.831-2.248 1.831-3.255 0-1.451-1.203-2.524-2.851-2.524-1.752 0-2.981 1.177-2.981 2.811h1.295c0-.98.653-1.621 1.634-1.621.902 0 1.517.615 1.517 1.491 0 .797-.406 1.412-1.452 2.549l-2.758 2.981v.759h5.713zm4.303-7.779c-1.883 0-3.242 1.307-3.242 2.981 0 1.699 1.255 2.863 2.967 2.863.249 0 .51-.039.772-.131l-2.602 3.243h1.517l2.654-3.295c.784-.968 1.163-1.661 1.163-2.746 0-1.608-1.346-2.915-3.229-2.915zm-.013 1.111c1.033 0 1.87.732 1.87 1.843 0 1.229-.837 1.857-1.87 1.857-1.046 0-1.857-.706-1.857-1.87 0-1.098.811-1.83 1.857-1.83zm5.507 7.282c0-.876-.393-1.399-1.112-1.399-.536 0-.954.367-.954.929 0 .484.366.889.863.889.091 0 .17-.013.287-.052-.078.64-.653 1.098-1.503 1.124v.745c1.438-.026 2.419-.993 2.419-2.236zm1.075-3.844c0 2.929 1.137 4.537 3.255 4.537s3.269-1.608 3.269-4.537c0-2.928-1.177-4.563-3.269-4.563s-3.255 1.635-3.255 4.563zm1.359 0c0-2.209.68-3.373 1.896-3.373 1.242 0 1.909 1.164 1.909 3.373 0 2.197-.667 3.348-1.909 3.348s-1.896-1.164-1.896-3.348zm12.875 2.459v-1.151h-1.203v-5.74h-1.02l-4.55 5.962v.929h4.249v1.948h1.321v-1.948zm-5.295-1.151 2.771-3.739v3.739zm6.408-1.308c0 2.929 1.138 4.537 3.256 4.537s3.268-1.608 3.268-4.537c0-2.928-1.176-4.563-3.268-4.563s-3.256 1.635-3.256 4.563zm1.36 0c0-2.209.68-3.373 1.896-3.373 1.242 0 1.909 1.164 1.909 3.373 0 2.197-.667 3.348-1.909 3.348s-1.896-1.164-1.896-3.348zm8.252 3.844c0-.876-.392-1.399-1.111-1.399-.536 0-.955.367-.955.929 0 .484.366.889.863.889.092 0 .17-.013.288-.052-.079.64-.654 1.098-1.504 1.124v.745c1.438-.026 2.419-.993 2.419-2.236zm1.075-3.844c0 2.929 1.138 4.537 3.256 4.537s3.268-1.608 3.268-4.537c0-2.928-1.176-4.563-3.268-4.563s-3.256 1.635-3.256 4.563zm1.36 0c0-2.209.68-3.373 1.896-3.373 1.242 0 1.909 1.164 1.909 3.373 0 2.197-.667 3.348-1.909 3.348s-1.896-1.164-1.896-3.348zm6.442 0c0 2.929 1.137 4.537 3.255 4.537s3.269-1.608 3.269-4.537c0-2.928-1.177-4.563-3.269-4.563s-3.255 1.635-3.255 4.563zm1.359 0c0-2.209.68-3.373 1.896-3.373 1.242 0 1.909 1.164 1.909 3.373 0 2.197-.667 3.348-1.909 3.348s-1.896-1.164-1.896-3.348zm6.442 0c0 2.929 1.137 4.537 3.256 4.537 2.118 0 3.268-1.608 3.268-4.537 0-2.928-1.177-4.563-3.268-4.563-2.092 0-3.256 1.635-3.256 4.563zm1.36 0c0-2.209.68-3.373 1.896-3.373 1.242 0 1.908 1.164 1.908 3.373 0 2.197-.666 3.348-1.908 3.348-1.243 0-1.896-1.164-1.896-3.348z"/><path d="m211.659 334.344h-3.726l1.778-2.014c1.451-1.543 1.83-2.249 1.83-3.255 0-1.452-1.203-2.524-2.85-2.524-1.752 0-2.981 1.177-2.981 2.811h1.294c0-.98.654-1.621 1.635-1.621.902 0 1.516.615 1.516 1.491 0 .797-.405 1.412-1.451 2.549l-2.759 2.981v.759h5.714zm4.303-7.78c-1.883 0-3.243 1.308-3.243 2.981 0 1.7 1.255 2.864 2.968 2.864.248 0 .51-.039.771-.131l-2.601 3.243h1.516l2.654-3.295c.785-.968 1.164-1.661 1.164-2.746 0-1.608-1.347-2.916-3.229-2.916zm-.014 1.112c1.033 0 1.87.732 1.87 1.843 0 1.229-.837 1.857-1.87 1.857-1.045 0-1.856-.706-1.856-1.87 0-1.098.811-1.83 1.856-1.83zm4.297 3.438c0 2.929 1.137 4.537 3.255 4.537s3.269-1.608 3.269-4.537c0-2.928-1.177-4.563-3.269-4.563s-3.255 1.635-3.255 4.563zm1.36 0c0-2.209.679-3.373 1.895-3.373 1.242 0 1.909 1.164 1.909 3.373 0 2.197-.667 3.347-1.909 3.347s-1.895-1.163-1.895-3.347zm8.252 3.844c0-.876-.393-1.399-1.112-1.399-.536 0-.954.366-.954.929 0 .483.366.889.863.889.091 0 .17-.013.287-.053-.078.641-.653 1.099-1.503 1.125v.745c1.438-.026 2.419-.994 2.419-2.236zm7.622-1.386v-1.15h-1.202v-5.74h-1.02l-4.55 5.962v.928h4.249v1.949h1.321v-1.949zm-5.295-1.15 2.772-3.74v3.74zm6.409-1.308c0 2.929 1.137 4.537 3.255 4.537s3.269-1.608 3.269-4.537c0-2.928-1.177-4.563-3.269-4.563s-3.255 1.635-3.255 4.563zm1.359 0c0-2.209.68-3.373 1.896-3.373 1.242 0 1.909 1.164 1.909 3.373 0 2.197-.667 3.347-1.909 3.347s-1.896-1.163-1.896-3.347zm6.442 0c0 2.929 1.138 4.537 3.256 4.537s3.268-1.608 3.268-4.537c0-2.928-1.176-4.563-3.268-4.563s-3.256 1.635-3.256 4.563zm1.36 0c0-2.209.68-3.373 1.896-3.373 1.242 0 1.909 1.164 1.909 3.373 0 2.197-.667 3.347-1.909 3.347s-1.896-1.163-1.896-3.347zm8.252 3.844c0-.876-.392-1.399-1.111-1.399-.536 0-.955.366-.955.929 0 .483.366.889.863.889.092 0 .17-.013.288-.053-.079.641-.654 1.099-1.504 1.125v.745c1.438-.026 2.419-.994 2.419-2.236zm1.075-3.844c0 2.929 1.138 4.537 3.256 4.537s3.268-1.608 3.268-4.537c0-2.928-1.176-4.563-3.268-4.563s-3.256 1.635-3.256 4.563zm1.36 0c0-2.209.68-3.373 1.896-3.373 1.242 0 1.909 1.164 1.909 3.373 0 2.197-.667 3.347-1.909 3.347s-1.896-1.163-1.896-3.347zm6.442 0c0 2.929 1.137 4.537 3.255 4.537s3.269-1.608 3.269-4.537c0-2.928-1.177-4.563-3.269-4.563s-3.255 1.635-3.255 4.563zm1.359 0c0-2.209.68-3.373 1.896-3.373 1.242 0 1.909 1.164 1.909 3.373 0 2.197-.667 3.347-1.909 3.347s-1.896-1.163-1.896-3.347zm6.442 0c0 2.929 1.137 4.537 3.255 4.537 2.119 0 3.269-1.608 3.269-4.537 0-2.928-1.177-4.563-3.269-4.563-2.091 0-3.255 1.635-3.255 4.563zm1.36 0c0-2.209.68-3.373 1.895-3.373 1.243 0 1.909 1.164 1.909 3.373 0 2.197-.666 3.347-1.909 3.347-1.242 0-1.895-1.163-1.895-3.347z"/><path d="m214.102 206.922v-8.838h-3.047v1.15h1.713v7.688zm4.316 0v-8.838h-3.047v1.15h1.713v7.688zm4.681.118c1.896 0 3.243-1.307 3.243-2.981 0-1.713-1.255-2.876-2.981-2.876-.236 0-.497.052-.759.143l2.602-3.242h-1.503l-2.667 3.295c-.759.915-1.164 1.621-1.164 2.745 0 1.609 1.36 2.916 3.229 2.916zm.013-1.111c-1.033 0-1.856-.732-1.856-1.844 0-1.229.823-1.856 1.856-1.856 1.046 0 1.857.706 1.857 1.869 0 1.099-.811 1.831-1.857 1.831zm6.286.431c0-.876-.393-1.399-1.112-1.399-.536 0-.954.366-.954.928 0 .484.366.89.863.89.091 0 .17-.014.287-.053-.078.641-.653 1.099-1.503 1.125v.745c1.438-.026 2.419-.994 2.419-2.236zm3.448.562v-8.838h-3.047v1.15h1.713v7.688zm4.681.118c1.896 0 3.243-1.307 3.243-2.981 0-1.713-1.255-2.876-2.981-2.876-.235 0-.497.052-.758.143l2.601-3.242h-1.503l-2.667 3.295c-.759.915-1.164 1.621-1.164 2.745 0 1.609 1.36 2.916 3.229 2.916zm.013-1.111c-1.032 0-1.856-.732-1.856-1.844 0-1.229.824-1.856 1.856-1.856 1.046 0 1.857.706 1.857 1.869 0 1.099-.811 1.831-1.857 1.831zm4.284-3.413c0 2.929 1.137 4.537 3.255 4.537s3.269-1.608 3.269-4.537-1.177-4.563-3.269-4.563-3.255 1.634-3.255 4.563zm1.359 0c0-2.209.68-3.373 1.896-3.373 1.242 0 1.909 1.164 1.909 3.373 0 2.197-.667 3.347-1.909 3.347s-1.896-1.163-1.896-3.347zm8.253 3.844c0-.876-.393-1.399-1.112-1.399-.536 0-.954.366-.954.928 0 .484.366.89.863.89.091 0 .17-.014.287-.053-.078.641-.653 1.099-1.503 1.125v.745c1.438-.026 2.419-.994 2.419-2.236zm1.075-3.844c0 2.929 1.137 4.537 3.255 4.537s3.269-1.608 3.269-4.537-1.177-4.563-3.269-4.563-3.255 1.634-3.255 4.563zm1.359 0c0-2.209.68-3.373 1.896-3.373 1.242 0 1.909 1.164 1.909 3.373 0 2.197-.667 3.347-1.909 3.347s-1.896-1.163-1.896-3.347zm6.442 0c0 2.929 1.138 4.537 3.256 4.537s3.268-1.608 3.268-4.537-1.176-4.563-3.268-4.563-3.256 1.634-3.256 4.563zm1.36 0c0-2.209.68-3.373 1.896-3.373 1.242 0 1.909 1.164 1.909 3.373 0 2.197-.667 3.347-1.909 3.347s-1.896-1.163-1.896-3.347zm6.441 0c0 2.929 1.138 4.537 3.256 4.537s3.269-1.608 3.269-4.537-1.177-4.563-3.269-4.563-3.256 1.634-3.256 4.563zm1.36 0c0-2.209.68-3.373 1.896-3.373 1.242 0 1.909 1.164 1.909 3.373 0 2.197-.667 3.347-1.909 3.347s-1.896-1.163-1.896-3.347z"/><path d="m210.457 378.387v-8.839h-3.046v1.151h1.712v7.688zm8.044-1.948v-1.151h-1.203v-5.74h-1.02l-4.55 5.962v.929h4.249v1.948h1.321v-1.948zm-5.296-1.151 2.772-3.739v3.739zm9.339 3.229c2.052 0 3.19-1.372 3.19-2.954 0-1.504-1.059-2.864-3.007-2.864-.602 0-1.164.183-1.661.576l.392-2.55h3.766v-1.177h-4.72l-.785 4.929 1.073.34c.366-.64.954-.967 1.738-.967 1.177 0 1.831.797 1.831 1.713 0 1.006-.602 1.765-1.817 1.765-.981 0-1.7-.563-1.792-1.504h-1.32c.065 1.569 1.386 2.693 3.112 2.693zm6.286-.692c0-.876-.392-1.399-1.111-1.399-.537 0-.955.366-.955.928 0 .484.366.889.863.889.092 0 .17-.013.288-.052-.079.64-.654 1.098-1.504 1.124v.745c1.438-.026 2.419-.993 2.419-2.235zm7.147-.615h-3.726l1.778-2.014c1.451-1.542 1.83-2.248 1.83-3.255 0-1.451-1.202-2.524-2.85-2.524-1.752 0-2.981 1.177-2.981 2.812h1.295c0-.981.653-1.622 1.634-1.622.902 0 1.517.615 1.517 1.491 0 .797-.406 1.412-1.452 2.549l-2.758 2.981v.759h5.713zm1.219-3.229c0 2.928 1.137 4.536 3.255 4.536s3.269-1.608 3.269-4.536c0-2.929-1.177-4.564-3.269-4.564s-3.255 1.635-3.255 4.564zm1.36 0c0-2.21.679-3.374 1.895-3.374 1.242 0 1.909 1.164 1.909 3.374 0 2.196-.667 3.347-1.909 3.347s-1.895-1.164-1.895-3.347zm6.441 0c0 2.928 1.138 4.536 3.256 4.536s3.268-1.608 3.268-4.536c0-2.929-1.176-4.564-3.268-4.564s-3.256 1.635-3.256 4.564zm1.36 0c0-2.21.68-3.374 1.896-3.374 1.242 0 1.909 1.164 1.909 3.374 0 2.196-.667 3.347-1.909 3.347s-1.896-1.164-1.896-3.347zm8.252 3.844c0-.876-.392-1.399-1.111-1.399-.536 0-.955.366-.955.928 0 .484.366.889.863.889.092 0 .17-.013.288-.052-.079.64-.654 1.098-1.504 1.124v.745c1.438-.026 2.419-.993 2.419-2.235zm1.075-3.844c0 2.928 1.138 4.536 3.256 4.536s3.268-1.608 3.268-4.536c0-2.929-1.176-4.564-3.268-4.564s-3.256 1.635-3.256 4.564zm1.36 0c0-2.21.68-3.374 1.896-3.374 1.242 0 1.909 1.164 1.909 3.374 0 2.196-.667 3.347-1.909 3.347s-1.896-1.164-1.896-3.347zm6.442 0c0 2.928 1.137 4.536 3.255 4.536s3.269-1.608 3.269-4.536c0-2.929-1.177-4.564-3.269-4.564s-3.255 1.635-3.255 4.564zm1.359 0c0-2.21.68-3.374 1.896-3.374 1.242 0 1.909 1.164 1.909 3.374 0 2.196-.667 3.347-1.909 3.347s-1.896-1.164-1.896-3.347zm6.442 0c0 2.928 1.137 4.536 3.256 4.536 2.118 0 3.268-1.608 3.268-4.536 0-2.929-1.177-4.564-3.268-4.564-2.092 0-3.256 1.635-3.256 4.564zm1.36 0c0-2.21.68-3.374 1.896-3.374 1.242 0 1.908 1.164 1.908 3.374 0 2.196-.666 3.347-1.908 3.347-1.243 0-1.896-1.164-1.896-3.347z"/><path d="m216.587 248.612h-3.727l1.778-2.014c1.452-1.542 1.831-2.248 1.831-3.255 0-1.452-1.203-2.524-2.85-2.524-1.752 0-2.981 1.177-2.981 2.811h1.294c0-.98.654-1.621 1.634-1.621.903 0 1.517.615 1.517 1.491 0 .797-.405 1.412-1.451 2.549l-2.759 2.981v.759h5.714zm4.302-7.78c-1.882 0-3.242 1.308-3.242 2.981 0 1.7 1.255 2.864 2.968 2.864.248 0 .51-.039.771-.131l-2.602 3.243h1.517l2.654-3.295c.785-.968 1.164-1.661 1.164-2.746 0-1.608-1.347-2.916-3.23-2.916zm-.013 1.112c1.033 0 1.87.732 1.87 1.843 0 1.229-.837 1.857-1.87 1.857-1.046 0-1.856-.706-1.856-1.87 0-1.098.81-1.83 1.856-1.83zm5.507 7.282c0-.876-.392-1.399-1.112-1.399-.536 0-.954.366-.954.929 0 .483.366.889.863.889.091 0 .17-.013.288-.053-.079.641-.654 1.099-1.504 1.125v.745c1.438-.026 2.419-.994 2.419-2.236zm1.075-3.844c0 2.929 1.137 4.537 3.256 4.537 2.118 0 3.268-1.608 3.268-4.537 0-2.928-1.176-4.563-3.268-4.563s-3.256 1.635-3.256 4.563zm1.36 0c0-2.209.68-3.373 1.896-3.373 1.242 0 1.908 1.164 1.908 3.373 0 2.197-.666 3.348-1.908 3.348-1.243 0-1.896-1.164-1.896-3.348zm12.874 2.458v-1.15h-1.203v-5.74h-1.02l-4.55 5.962v.928h4.25v1.949h1.32v-1.949zm-5.295-1.15 2.772-3.739v3.739zm6.408-1.308c0 2.929 1.138 4.537 3.256 4.537s3.269-1.608 3.269-4.537c0-2.928-1.177-4.563-3.269-4.563s-3.256 1.635-3.256 4.563zm1.36 0c0-2.209.68-3.373 1.896-3.373 1.242 0 1.909 1.164 1.909 3.373 0 2.197-.667 3.348-1.909 3.348s-1.896-1.164-1.896-3.348zm8.252 3.844c0-.876-.392-1.399-1.111-1.399-.536 0-.955.366-.955.929 0 .483.367.889.863.889.092 0 .17-.013.288-.053-.078.641-.654 1.099-1.504 1.125v.745c1.439-.026 2.419-.994 2.419-2.236zm1.075-3.844c0 2.929 1.138 4.537 3.256 4.537s3.269-1.608 3.269-4.537c0-2.928-1.177-4.563-3.269-4.563s-3.256 1.635-3.256 4.563zm1.36 0c0-2.209.68-3.373 1.896-3.373 1.242 0 1.909 1.164 1.909 3.373 0 2.197-.667 3.348-1.909 3.348s-1.896-1.164-1.896-3.348zm6.442 0c0 2.929 1.137 4.537 3.255 4.537 2.119 0 3.269-1.608 3.269-4.537 0-2.928-1.177-4.563-3.269-4.563s-3.255 1.635-3.255 4.563zm1.36 0c0-2.209.679-3.373 1.895-3.373 1.243 0 1.909 1.164 1.909 3.373 0 2.197-.666 3.348-1.909 3.348-1.242 0-1.895-1.164-1.895-3.348zm6.441 0c0 2.929 1.138 4.537 3.256 4.537s3.268-1.608 3.268-4.537c0-2.928-1.176-4.563-3.268-4.563s-3.256 1.635-3.256 4.563zm1.36 0c0-2.209.68-3.373 1.896-3.373 1.242 0 1.909 1.164 1.909 3.373 0 2.197-.667 3.348-1.909 3.348s-1.896-1.164-1.896-3.348z"/><path d="m209.882 412.297c-1.883 0-3.243 1.308-3.243 2.981 0 1.7 1.255 2.864 2.968 2.864.248 0 .51-.04.771-.131l-2.601 3.242h1.516l2.654-3.294c.785-.968 1.164-1.661 1.164-2.746 0-1.608-1.347-2.916-3.229-2.916zm-.013 1.112c1.032 0 1.869.732 1.869 1.843 0 1.229-.837 1.857-1.869 1.857-1.046 0-1.857-.706-1.857-1.87 0-1.098.811-1.83 1.857-1.83zm10.704 5.36c0-1.072-.719-1.778-1.647-2.118.732-.327 1.307-1.02 1.307-1.922 0-1.438-1.216-2.445-2.89-2.445-1.699 0-2.902 1.007-2.902 2.445 0 .902.562 1.595 1.307 1.922-.928.34-1.66 1.046-1.66 2.118 0 1.543 1.32 2.602 3.255 2.602 1.922 0 3.23-1.059 3.23-2.602zm-4.772-4.001c0-.876.627-1.425 1.542-1.425.903 0 1.53.549 1.53 1.425 0 .863-.627 1.386-1.53 1.386-.915 0-1.542-.523-1.542-1.386zm-.327 3.975c0-.954.758-1.53 1.869-1.53 1.099 0 1.87.576 1.87 1.53 0 .981-.771 1.569-1.87 1.569-1.111 0-1.869-.588-1.869-1.569zm11.692-5.557v-.771h-5.962v1.19h4.484l-3.36 7.648h1.425zm2.165 7.505c0-.876-.392-1.399-1.112-1.399-.536 0-.954.366-.954.929 0 .483.366.889.863.889.091 0 .17-.013.288-.053-.079.641-.654 1.099-1.504 1.125v.745c1.438-.026 2.419-.994 2.419-2.236zm4.275.68c1.883 0 3.164-1.072 3.164-2.641 0-1.02-.667-1.778-1.83-2.092.915-.431 1.425-1.124 1.425-1.987 0-1.386-1.098-2.367-2.798-2.367-1.608 0-2.837 1.085-2.876 2.537h1.281c.039-.902.641-1.478 1.543-1.478.889 0 1.477.562 1.477 1.399 0 .863-.654 1.438-1.647 1.438h-.85v1.059h.915c1.216 0 1.987.589 1.987 1.517 0 .955-.679 1.556-1.791 1.556-1.072 0-1.778-.614-1.83-1.569h-1.295c.013 1.556 1.295 2.628 3.125 2.628zm7.404 0c1.896 0 3.243-1.307 3.243-2.981 0-1.713-1.255-2.876-2.981-2.876-.236 0-.497.052-.759.143l2.602-3.242h-1.503l-2.668 3.295c-.758.915-1.163 1.621-1.163 2.745 0 1.609 1.36 2.916 3.229 2.916zm.013-1.111c-1.033 0-1.856-.732-1.856-1.844 0-1.229.823-1.856 1.856-1.856 1.046 0 1.857.706 1.857 1.869 0 1.099-.811 1.831-1.857 1.831zm4.284-3.413c0 2.929 1.137 4.537 3.255 4.537s3.269-1.608 3.269-4.537c0-2.928-1.177-4.563-3.269-4.563s-3.255 1.635-3.255 4.563zm1.359 0c0-2.209.68-3.373 1.896-3.373 1.242 0 1.909 1.164 1.909 3.373 0 2.197-.667 3.347-1.909 3.347s-1.896-1.163-1.896-3.347zm8.252 3.844c0-.876-.392-1.399-1.111-1.399-.536 0-.954.366-.954.929 0 .483.366.889.862.889.092 0 .17-.013.288-.053-.078.641-.654 1.099-1.503 1.125v.745c1.438-.026 2.418-.994 2.418-2.236zm1.076-3.844c0 2.929 1.137 4.537 3.255 4.537s3.269-1.608 3.269-4.537c0-2.928-1.177-4.563-3.269-4.563s-3.255 1.635-3.255 4.563zm1.359 0c0-2.209.68-3.373 1.896-3.373 1.242 0 1.909 1.164 1.909 3.373 0 2.197-.667 3.347-1.909 3.347s-1.896-1.163-1.896-3.347zm6.442 0c0 2.929 1.137 4.537 3.256 4.537 2.118 0 3.268-1.608 3.268-4.537 0-2.928-1.177-4.563-3.268-4.563-2.092 0-3.256 1.635-3.256 4.563zm1.36 0c0-2.209.68-3.373 1.896-3.373 1.242 0 1.908 1.164 1.908 3.373 0 2.197-.666 3.347-1.908 3.347-1.243 0-1.896-1.163-1.896-3.347zm6.441 0c0 2.929 1.138 4.537 3.256 4.537s3.269-1.608 3.269-4.537c0-2.928-1.177-4.563-3.269-4.563s-3.256 1.635-3.256 4.563zm1.36 0c0-2.209.68-3.373 1.896-3.373 1.242 0 1.909 1.164 1.909 3.373 0 2.197-.667 3.347-1.909 3.347s-1.896-1.163-1.896-3.347z"/><path d="m331.405 78.3519c2.105 0 3.465-1.1113 3.465-3.0856 0-1.9612-1.36-3.0333-3.465-3.0333h-3.255v9.3876h1.438v-3.2687zm-.013-4.903c1.268 0 2.04.6668 2.04 1.8305 0 1.1636-.772 1.8566-2.04 1.8566h-1.804v-3.6871zm7.535 8.3025c1.634 0 2.824-.9283 3.164-2.4712h-1.308c-.222.9022-.902 1.4383-1.883 1.4383-1.163 0-1.869-.8238-1.974-2.2358h5.165c.235-2.2489-1.138-3.9224-3.204-3.9224-1.909 0-3.308 1.5036-3.308 3.5563 0 2.1835 1.347 3.6348 3.348 3.6348zm-.066-6.1974c1.072 0 1.765.7714 1.831 2.0527h-3.753c.144-1.2944.863-2.0527 1.922-2.0527zm5.954 2.5234c0-1.5298 1.085-2.1835 2.576-2.1051v-1.3728c-1.138 0-2.184.6014-2.667 1.5559v-1.4644h-1.229v6.9296h1.32zm6.328 3.687c1.739 0 2.968-1.1244 3.203-2.9549h-1.373c-.156 1.1245-.836 1.7782-1.817 1.7782-1.137 0-1.883-.9544-1.883-2.4319 0-1.4643.746-2.4319 1.883-2.4319.968 0 1.661.6668 1.804 1.7782h1.386c-.248-1.8043-1.49-2.9418-3.203-2.9418-1.87 0-3.229 1.5036-3.229 3.5955 0 2.1181 1.333 3.6086 3.229 3.6086zm7.319-.013c1.634 0 2.824-.9283 3.164-2.4712h-1.307c-.223.9022-.903 1.4383-1.883 1.4383-1.164 0-1.87-.8238-1.974-2.2358h5.164c.235-2.2489-1.137-3.9224-3.203-3.9224-1.909 0-3.308 1.5036-3.308 3.5563 0 2.1835 1.347 3.6348 3.347 3.6348zm-.065-6.1974c1.072 0 1.765.7714 1.83 2.0527h-3.752c.143-1.2944.863-2.0527 1.922-2.0527zm5.954 2.1573c0-1.229.758-1.9874 1.66-1.9874.981 0 1.504.6668 1.504 1.8566v4.0401h1.32v-4.4846c0-1.6605-.941-2.5757-2.366-2.5757-.955 0-1.739.5099-2.21 1.2813v-1.1506h-1.229v6.9296h1.321zm10.122 2.628c-.275.1307-.55.183-.863.183-.706 0-1.164-.3399-1.164-1.2944v-3.4125h2.092v-1.1244h-2.092v-2.0527h-1.32v2.0527h-1.53v1.1244h1.53v3.7133c0 1.5297.889 2.2227 2.17 2.2227.418 0 .771-.0654 1.177-.2485zm5.522 1.2813h1.099v-4.4454c0-1.6474-.994-2.6149-2.707-2.6149-1.621 0-2.733 1.0329-2.798 2.5888h1.203c.039-.9676.628-1.5428 1.595-1.5428.915 0 1.451.5622 1.451 1.5558v.51c-.562-.0654-.889-.0785-1.294-.0785-2.066 0-3.151.706-3.151 2.0658 0 1.2682.941 2.092 2.38 2.092 1.019 0 1.791-.4315 2.222-1.2029zm-3.347-2.0004c0-.8107.654-1.2029 1.974-1.2029.34 0 .706.0131 1.216.0785v.5622c0 1.059-.693 1.752-1.804 1.752-.85 0-1.386-.4707-1.386-1.1898zm8.983 4.6676c1.961 0 3.125-1.0852 3.125-2.9025v-6.6943h-1.229v1.229c-.471-.876-1.255-1.3597-2.249-1.3597-1.739 0-2.916 1.3859-2.916 3.4517 0 2.0396 1.229 3.4648 2.955 3.4648.942 0 1.726-.4838 2.118-1.3206v1.2552c0 1.1898-.627 1.8305-1.817 1.8305-1.072 0-1.7-.523-1.778-1.4905h-1.282c.079 1.5689 1.256 2.5364 3.073 2.5364zm-1.935-6.2758c0-1.4251.719-2.3142 1.857-2.3142 1.137 0 1.882.9152 1.882 2.3534 0 1.3729-.758 2.275-1.882 2.275-1.151 0-1.857-.876-1.857-2.3142zm9.738 3.7394c1.635 0 2.824-.9283 3.164-2.4712h-1.307c-.222.9022-.902 1.4383-1.883 1.4383-1.164 0-1.87-.8238-1.974-2.2358h5.164c.236-2.2489-1.137-3.9224-3.203-3.9224-1.909 0-3.308 1.5036-3.308 3.5563 0 2.1835 1.347 3.6348 3.347 3.6348zm-.065-6.1974c1.072 0 1.765.7714 1.83 2.0527h-3.752c.144-1.2944.863-2.0527 1.922-2.0527z"/><path d="m350.411 121.307c1.883 0 3.164-1.072 3.164-2.641 0-1.02-.667-1.778-1.83-2.092.915-.431 1.425-1.124 1.425-1.987 0-1.386-1.099-2.367-2.798-2.367-1.609 0-2.838 1.085-2.877 2.537h1.282c.039-.902.64-1.478 1.542-1.478.889 0 1.478.562 1.478 1.399 0 .863-.654 1.438-1.648 1.438h-.849v1.06h.915c1.216 0 1.987.588 1.987 1.516 0 .955-.68 1.556-1.791 1.556-1.072 0-1.778-.614-1.831-1.569h-1.294c.013 1.556 1.294 2.628 3.125 2.628zm10.843-2.602c0-1.072-.719-1.778-1.647-2.118.732-.327 1.307-1.02 1.307-1.922 0-1.438-1.216-2.445-2.889-2.445-1.7 0-2.903 1.007-2.903 2.445 0 .902.562 1.595 1.308 1.922-.929.34-1.661 1.046-1.661 2.118 0 1.543 1.321 2.602 3.256 2.602 1.922 0 3.229-1.059 3.229-2.602zm-4.772-4.001c0-.876.628-1.425 1.543-1.425.902 0 1.529.549 1.529 1.425 0 .863-.627 1.386-1.529 1.386-.915 0-1.543-.523-1.543-1.386zm-.327 3.975c0-.954.758-1.53 1.87-1.53 1.098 0 1.869.576 1.869 1.53 0 .981-.771 1.569-1.869 1.569-1.112 0-1.87-.588-1.87-1.569zm8.875-.915c1.608 0 2.759-1.229 2.759-2.746 0-1.516-1.151-2.745-2.759-2.745-1.595 0-2.746 1.229-2.746 2.745 0 1.517 1.151 2.746 2.746 2.746zm1.883 3.425 4.994-8.838h-1.085l-4.995 8.838zm-1.883-4.38c-.876 0-1.635-.627-1.635-1.791 0-1.177.759-1.791 1.635-1.791.889 0 1.647.614 1.647 1.791 0 1.164-.758 1.791-1.647 1.791zm7.818 4.485c1.609 0 2.746-1.216 2.746-2.746 0-1.516-1.137-2.745-2.746-2.745-1.608 0-2.745 1.229-2.745 2.745 0 1.53 1.137 2.746 2.745 2.746zm0-.954c-.876 0-1.647-.628-1.647-1.792 0-1.163.771-1.778 1.647-1.778.89 0 1.635.615 1.635 1.778 0 1.164-.745 1.792-1.635 1.792z"/><path d="m357.413 284.588v-.772h-5.963v1.19h4.485l-3.36 7.649h1.425zm3.452 4.641c1.608 0 2.758-1.229 2.758-2.745 0-1.517-1.15-2.746-2.758-2.746-1.596 0-2.746 1.229-2.746 2.746 0 1.516 1.15 2.745 2.746 2.745zm1.882 3.426 4.995-8.839h-1.085l-4.995 8.839zm-1.882-4.38c-.876 0-1.635-.628-1.635-1.791 0-1.177.759-1.792 1.635-1.792.889 0 1.647.615 1.647 1.792 0 1.163-.758 1.791-1.647 1.791zm7.818 4.484c1.608 0 2.746-1.216 2.746-2.745 0-1.517-1.138-2.746-2.746-2.746s-2.745 1.229-2.745 2.746c0 1.529 1.137 2.745 2.745 2.745zm0-.954c-.876 0-1.647-.628-1.647-1.791 0-1.164.771-1.778 1.647-1.778.889 0 1.635.614 1.635 1.778 0 1.163-.746 1.791-1.635 1.791z"/><path d="m356.403 164.056v-8.839h-3.046v1.151h1.713v7.688zm4.172-3.426c1.608 0 2.759-1.229 2.759-2.746 0-1.516-1.151-2.745-2.759-2.745-1.595 0-2.746 1.229-2.746 2.745 0 1.517 1.151 2.746 2.746 2.746zm1.883 3.426 4.994-8.839h-1.085l-4.994 8.839zm-1.883-4.38c-.876 0-1.634-.628-1.634-1.792 0-1.176.758-1.791 1.634-1.791.889 0 1.647.615 1.647 1.791 0 1.164-.758 1.792-1.647 1.792zm7.819 4.484c1.608 0 2.745-1.216 2.745-2.745 0-1.517-1.137-2.746-2.745-2.746-1.609 0-2.746 1.229-2.746 2.746 0 1.529 1.137 2.745 2.746 2.745zm0-.954c-.876 0-1.648-.628-1.648-1.791 0-1.164.772-1.779 1.648-1.779.889 0 1.634.615 1.634 1.779 0 1.163-.745 1.791-1.634 1.791z"/><path d="m358.212 204.37v-1.15h-1.203v-5.74h-1.02l-4.55 5.962v.928h4.249v1.948h1.321v-1.948zm-5.295-1.15 2.771-3.74v3.74zm8.905-.327c1.609 0 2.759-1.229 2.759-2.746s-1.15-2.746-2.759-2.746c-1.595 0-2.745 1.229-2.745 2.746s1.15 2.746 2.745 2.746zm1.883 3.425 4.995-8.838h-1.086l-4.994 8.838zm-1.883-4.38c-.876 0-1.634-.627-1.634-1.791 0-1.177.758-1.791 1.634-1.791.889 0 1.648.614 1.648 1.791 0 1.164-.759 1.791-1.648 1.791zm7.819 4.485c1.608 0 2.746-1.216 2.746-2.746 0-1.516-1.138-2.745-2.746-2.745s-2.746 1.229-2.746 2.745c0 1.53 1.138 2.746 2.746 2.746zm0-.954c-.876 0-1.647-.628-1.647-1.792 0-1.163.771-1.778 1.647-1.778.889 0 1.634.615 1.634 1.778 0 1.164-.745 1.792-1.634 1.792z"/><path d="m352.767 335.521v-8.839h-3.047v1.151h1.713v7.688zm1.674-4.407c0 2.929 1.138 4.537 3.256 4.537s3.269-1.608 3.269-4.537c0-2.928-1.177-4.563-3.269-4.563s-3.256 1.635-3.256 4.563zm1.36 0c0-2.209.68-3.373 1.896-3.373 1.242 0 1.909 1.164 1.909 3.373 0 2.197-.667 3.347-1.909 3.347s-1.896-1.163-1.896-3.347zm8.939.981c1.608 0 2.759-1.229 2.759-2.746 0-1.516-1.151-2.745-2.759-2.745-1.595 0-2.746 1.229-2.746 2.745 0 1.517 1.151 2.746 2.746 2.746zm1.883 3.426 4.994-8.839h-1.085l-4.994 8.839zm-1.883-4.381c-.876 0-1.634-.627-1.634-1.791 0-1.176.758-1.791 1.634-1.791.889 0 1.647.615 1.647 1.791 0 1.164-.758 1.791-1.647 1.791zm7.819 4.485c1.608 0 2.745-1.216 2.745-2.746 0-1.516-1.137-2.745-2.745-2.745s-2.746 1.229-2.746 2.745c0 1.53 1.138 2.746 2.746 2.746zm0-.954c-.876 0-1.648-.628-1.648-1.792 0-1.163.772-1.778 1.648-1.778.889 0 1.634.615 1.634 1.778 0 1.164-.745 1.792-1.634 1.792z"/><path d="m355.828 378.517c2.052 0 3.19-1.372 3.19-2.954 0-1.504-1.059-2.864-3.007-2.864-.602 0-1.164.183-1.661.576l.393-2.55h3.765v-1.177h-4.72l-.784 4.929 1.072.34c.366-.64.954-.967 1.739-.967 1.176 0 1.83.797 1.83 1.713 0 1.006-.601 1.765-1.817 1.765-.981 0-1.7-.563-1.791-1.504h-1.321c.065 1.569 1.386 2.693 3.112 2.693zm6.781-3.556c1.609 0 2.759-1.229 2.759-2.746 0-1.516-1.15-2.745-2.759-2.745-1.595 0-2.745 1.229-2.745 2.745 0 1.517 1.15 2.746 2.745 2.746zm1.883 3.426 4.995-8.839h-1.085l-4.995 8.839zm-1.883-4.38c-.876 0-1.634-.628-1.634-1.792 0-1.176.758-1.791 1.634-1.791.89 0 1.648.615 1.648 1.791 0 1.164-.758 1.792-1.648 1.792zm7.819 4.484c1.608 0 2.746-1.216 2.746-2.745 0-1.517-1.138-2.746-2.746-2.746s-2.746 1.229-2.746 2.746c0 1.529 1.138 2.745 2.746 2.745zm0-.954c-.876 0-1.647-.628-1.647-1.791 0-1.164.771-1.779 1.647-1.779.889 0 1.634.615 1.634 1.779 0 1.163-.745 1.791-1.634 1.791z"/><path d="m356.403 249.789v-8.839h-3.046v1.151h1.713v7.688zm4.172-3.426c1.608 0 2.759-1.229 2.759-2.746 0-1.516-1.151-2.745-2.759-2.745-1.595 0-2.746 1.229-2.746 2.745 0 1.517 1.151 2.746 2.746 2.746zm1.883 3.426 4.994-8.839h-1.085l-4.994 8.839zm-1.883-4.38c-.876 0-1.634-.628-1.634-1.792 0-1.176.758-1.791 1.634-1.791.889 0 1.647.615 1.647 1.791 0 1.164-.758 1.792-1.647 1.792zm7.819 4.484c1.608 0 2.745-1.216 2.745-2.746 0-1.516-1.137-2.745-2.745-2.745-1.609 0-2.746 1.229-2.746 2.745 0 1.53 1.137 2.746 2.746 2.746zm0-.954c-.876 0-1.648-.628-1.648-1.792 0-1.163.772-1.778 1.648-1.778.889 0 1.634.615 1.634 1.778 0 1.164-.745 1.792-1.634 1.792z"/><path d="m351.362 421.371c1.883 0 3.164-1.072 3.164-2.641 0-1.02-.667-1.778-1.83-2.092.915-.431 1.425-1.124 1.425-1.987 0-1.386-1.098-2.367-2.798-2.367-1.608 0-2.837 1.085-2.877 2.537h1.282c.039-.902.64-1.478 1.543-1.478.889 0 1.477.562 1.477 1.399 0 .863-.654 1.438-1.647 1.438h-.85v1.059h.915c1.216 0 1.987.589 1.987 1.517 0 .955-.68 1.556-1.791 1.556-1.072 0-1.778-.614-1.83-1.569h-1.295c.013 1.556 1.295 2.628 3.125 2.628zm10.868-2.066v-1.15h-1.203v-5.74h-1.02l-4.55 5.962v.928h4.25v1.948h1.32v-1.948zm-5.295-1.15 2.772-3.74v3.74zm8.906-.327c1.608 0 2.758-1.229 2.758-2.746 0-1.516-1.15-2.746-2.758-2.746-1.596 0-2.746 1.23-2.746 2.746 0 1.517 1.15 2.746 2.746 2.746zm1.882 3.425 4.995-8.838h-1.085l-4.995 8.838zm-1.882-4.38c-.876 0-1.635-.627-1.635-1.791 0-1.177.759-1.791 1.635-1.791.889 0 1.647.614 1.647 1.791 0 1.164-.758 1.791-1.647 1.791zm7.818 4.485c1.608 0 2.746-1.216 2.746-2.746 0-1.516-1.138-2.745-2.746-2.745s-2.745 1.229-2.745 2.745c0 1.53 1.137 2.746 2.745 2.746zm0-.954c-.876 0-1.647-.628-1.647-1.792 0-1.163.771-1.778 1.647-1.778.889 0 1.635.615 1.635 1.778 0 1.164-.746 1.792-1.635 1.792z"/><path d="m86.219 117.921c2.1051 0 3.4648-1.112 3.4648-3.086 0-1.961-1.3597-3.033-3.4648-3.033h-3.2556v9.387h1.4383v-3.268zm-.013-4.903c1.2682 0 2.0396.667 2.0396 1.83 0 1.164-.7714 1.857-2.0396 1.857h-1.8043v-3.687zm9.1395 5.321c0 1.085-.7191 1.818-1.6082 1.818-.8629 0-1.4644-.497-1.4644-1.7v-4.197h-1.3205v4.458c0 1.778.9675 2.602 2.3665 2.602.9414 0 1.752-.51 2.1181-1.229v1.098h1.229v-6.929h-1.3205zm9.7705-.614c0-2.105-1.216-3.596-3.073-3.596-.941 0-1.739.471-2.2225 1.321v-3.648h-1.3206v9.387h1.2291v-1.242c.497.876 1.334 1.373 2.314 1.373 1.87 0 3.073-1.516 3.073-3.595zm-1.373 0c0 1.542-.824 2.418-1.961 2.418-1.125 0-1.9615-.915-1.9615-2.444 0-1.556.8625-2.406 1.9615-2.406 1.137 0 1.961.863 1.961 2.432zm4.045 3.464v-9.387h-1.333v9.387zm3.441-8.537c0-.51-.392-.876-.954-.876s-.968.366-.968.876c0 .497.406.876.968.876s.954-.379.954-.876zm-.287 8.537v-6.929h-1.321v6.929zm4.565.144c1.739 0 2.968-1.124 3.204-2.955h-1.373c-.157 1.125-.837 1.779-1.817 1.779-1.138 0-1.883-.955-1.883-2.432 0-1.465.745-2.432 1.883-2.432.967 0 1.66.667 1.804 1.778h1.386c-.249-1.804-1.491-2.942-3.204-2.942-1.869 0-3.229 1.504-3.229 3.596 0 2.118 1.334 3.608 3.229 3.608zm12.757-2.209c0-.994-.654-1.595-2.027-1.844l-1.177-.222c-.836-.157-1.189-.419-1.189-.981 0-.601.562-.954 1.399-.954.928 0 1.542.484 1.621 1.32h1.268c-.118-1.425-1.242-2.314-2.902-2.314-1.609 0-2.668.85-2.668 2.066 0 1.046.719 1.7 2.001 1.948l1.124.209c.863.17 1.216.419 1.216.994 0 .654-.614.981-1.543.981-1.059 0-1.752-.537-1.804-1.399h-1.268c.131 1.49 1.216 2.392 3.046 2.392 1.844 0 2.903-.837 2.903-2.196zm5.638 2.065h1.099v-4.445c0-1.647-.994-2.615-2.707-2.615-1.621 0-2.732 1.033-2.798 2.589h1.203c.039-.968.628-1.543 1.595-1.543.916 0 1.452.562 1.452 1.556v.51c-.563-.065-.889-.079-1.295-.079-2.066 0-3.151.706-3.151 2.066 0 1.268.942 2.092 2.38 2.092 1.02 0 1.791-.431 2.222-1.203zm-3.347-2c0-.811.654-1.203 1.975-1.203.34 0 .706.013 1.216.079v.562c0 1.059-.693 1.752-1.805 1.752-.85 0-1.386-.471-1.386-1.19zm7.545 2v-9.387h-1.334v9.387zm4.683.131c1.634 0 2.824-.928 3.164-2.471h-1.307c-.223.902-.902 1.438-1.883 1.438-1.164 0-1.87-.823-1.974-2.235h5.164c.236-2.249-1.137-3.923-3.203-3.923-1.909 0-3.308 1.504-3.308 3.556 0 2.184 1.347 3.635 3.347 3.635zm-.065-6.197c1.072 0 1.765.771 1.83 2.053h-3.752c.144-1.295.863-2.053 1.922-2.053z"/><path d="m89.8277 289.909c0-1.399-.9022-2.105-2.5104-2.432l-1.3859-.274c-.876-.183-1.6474-.497-1.6474-1.386 0-.811.6668-1.53 1.8827-1.53 1.1768 0 1.9874.784 2.0658 1.909h1.4644c-.1177-1.87-1.5951-3.06-3.5432-3.06-1.9482 0-3.3341 1.19-3.3341 2.772 0 1.595 1.2029 2.262 2.5234 2.524l1.3598.261c1.0852.236 1.5951.628 1.5951 1.412 0 .968-.8891 1.53-2.0789 1.53-1.4382 0-2.1965-.771-2.2619-1.961h-1.4643c.1176 1.869 1.4905 3.112 3.7524 3.112 2.275 0 3.5825-1.243 3.5825-2.877zm5.4952 1.464c-.2746.131-.5491.184-.8629.184-.7061 0-1.1637-.34-1.1637-1.295v-3.412h2.092v-1.125h-2.092v-2.053h-1.3205v2.053h-1.5298v1.125h1.5298v3.713c0 1.53.8891 2.223 2.1704 2.223.4184 0 .7714-.066 1.1767-.249zm5.5231 1.282h1.098v-4.446c0-1.647-.994-2.615-2.7067-2.615-1.6212 0-2.7326 1.033-2.7979 2.589h1.2028c.0392-.967.6276-1.543 1.5951-1.543.9157 0 1.4517.563 1.4517 1.556v.51c-.563-.065-.8895-.078-1.2948-.078-2.0658 0-3.151.706-3.151 2.066 0 1.268.9414 2.092 2.3796 2.092 1.0198 0 1.7912-.432 2.2232-1.203zm-3.3476-2.001c0-.81.6537-1.203 1.9743-1.203.3399 0 .7063.014 1.2163.079v.562c0 1.059-.6933 1.752-1.8047 1.752-.8498 0-1.3859-.471-1.3859-1.19zm8.0956 2.001v-5.805h1.935v-1.125h-1.935v-.497c0-.666.366-.954.993-.954.236 0 .471.026.68.118v-1.073c-.261-.104-.575-.17-.967-.17-1.308 0-2.027.733-2.027 2.066v.51h-1.53v1.125h1.53v5.805zm5.273 0v-5.805h1.935v-1.125h-1.935v-.497c0-.666.366-.954.994-.954.235 0 .47.026.68.118v-1.073c-.262-.104-.576-.17-.968-.17-1.307 0-2.027.733-2.027 2.066v.51h-1.529v1.125h1.529v5.805zm11.728-1.255h-4.511v-2.955h4.027v-1.255h-4.027v-2.668h4.42v-1.255h-5.858v9.388h5.949zm5.06-1.752v-1.19h-4.066v1.19zm6.737.941c0-.994-.653-1.595-2.026-1.844l-1.177-.222c-.837-.157-1.19-.418-1.19-.98 0-.602.563-.955 1.399-.955.929 0 1.543.484 1.622 1.321h1.268c-.118-1.425-1.242-2.315-2.903-2.315-1.608 0-2.667.85-2.667 2.066 0 1.046.719 1.7 2.001 1.948l1.124.21c.863.17 1.216.418 1.216.993 0 .654-.615.981-1.543.981-1.059 0-1.752-.536-1.804-1.399h-1.268c.13 1.49 1.215 2.393 3.046 2.393 1.843 0 2.902-.837 2.902-2.197zm7.016 2.066h1.32l2.014-6.93h-1.308l-1.399 5.06-1.542-5.06h-1.308l-1.569 5.047-1.399-5.047h-1.294l2 6.93h1.334l1.582-5.152zm8.391 0h1.098v-4.446c0-1.647-.993-2.615-2.706-2.615-1.621 0-2.733 1.033-2.798 2.589h1.203c.039-.967.627-1.543 1.595-1.543.915 0 1.451.563 1.451 1.556v.51c-.562-.065-.889-.078-1.294-.078-2.066 0-3.151.706-3.151 2.066 0 1.268.941 2.092 2.379 2.092 1.02 0 1.791-.432 2.223-1.203zm-3.347-2.001c0-.81.654-1.203 1.974-1.203.34 0 .706.014 1.216.079v.562c0 1.059-.693 1.752-1.804 1.752-.85 0-1.386-.471-1.386-1.19zm12.827-1.464c0-2.092-1.216-3.596-3.06-3.596-.98 0-1.83.51-2.327 1.399v-1.268h-1.229v9.453h1.32v-3.7c.497.837 1.295 1.308 2.236 1.308 1.857 0 3.06-1.504 3.06-3.596zm-1.373 0c0 1.556-.824 2.419-1.961 2.419-1.112 0-1.962-.889-1.962-2.419 0-1.556.863-2.432 1.962-2.432 1.137 0 1.961.876 1.961 2.432z"/><path d="m61.9595 81.6206v-8.0932h3.0594v-1.2944h-7.5571v1.2944h3.0595v8.0932zm8.0301.1961c2.7195 0 4.7722-2.1311 4.7722-4.903 0-2.7718-2.0527-4.8768-4.7722-4.8768-2.7196 0-4.7723 2.105-4.7723 4.8768 0 2.7719 2.0527 4.903 4.7723 4.903zm0-1.2944c-1.9874 0-3.2818-1.5951-3.2818-3.6086s1.2944-3.5824 3.2818-3.5824c1.9873 0 3.2817 1.5689 3.2817 3.5824s-1.2944 3.6086-3.2817 3.6086zm7.6978 1.0983v-4.3539l3.9355 4.3539h1.8043l-4.2885-4.7853 4.1839-4.6023h-1.6605l-3.9747 4.3408v-4.3408h-1.4382v9.3876zm12.9633-1.2552h-4.5107v-2.9548h4.027v-1.2552h-4.027v-2.6672h4.4192v-1.2552h-5.8574v9.3876h5.9489zm7.9623 1.2552h1.451v-9.3876h-1.3333v7.1388l-4.8246-7.1388h-1.5689v9.3876h1.3336v-7.3349zm9.179 0c2.929 0 4.72-2.0266 4.72-4.733 0-2.7457-1.725-4.6546-4.72-4.6546h-2.968v9.3876zm-1.529-8.1455h1.464c2.17 0 3.321 1.2944 3.321 3.4125 0 2.1573-1.164 3.4909-3.321 3.4909h-1.464zm9.193 8.1455v-9.3876h-1.438v9.3876zm8.899-2.7457c0-1.399-.902-2.105-2.511-2.4319l-1.385-.2745c-.876-.1831-1.648-.4969-1.648-1.386 0-.8106.667-1.5297 1.883-1.5297 1.177 0 1.987.7845 2.066 1.9089h1.464c-.118-1.8697-1.595-3.0595-3.543-3.0595s-3.334 1.1898-3.334 2.7719c0 1.5951 1.203 2.2619 2.523 2.5234l1.36.2615c1.085.2353 1.595.6276 1.595 1.412 0 .9676-.889 1.5298-2.079 1.5298-1.438 0-2.196-.7714-2.262-1.9612h-1.464c.118 1.8697 1.49 3.1118 3.752 3.1118 2.275 0 3.583-1.2421 3.583-2.8765zm5.059 2.7457v-8.0932h3.06v-1.2944h-7.558v1.2944h3.06v8.0932zm5.769 0v-3.5302h1.726l2.34 3.5302h1.726l-2.55-3.7394c1.425-.3399 2.275-1.3728 2.275-2.7195 0-1.8697-1.294-2.9287-3.451-2.9287h-3.504v9.3876zm0-8.1847h1.974c1.334 0 2.092.6014 2.092 1.7258 0 1.1375-.758 1.7259-2.092 1.7259h-1.974zm8.618 8.1847v-9.3876h-1.438v9.3876zm8.677-2.6934c0-1.0721-.628-1.8697-1.791-2.1965.902-.3923 1.438-1.1506 1.438-2.0397 0-1.582-1.137-2.458-3.033-2.458h-3.256v9.3876h3.439c1.948 0 3.203-.9806 3.203-2.6934zm-3.478-5.5436c1.138 0 1.752.536 1.752 1.412s-.614 1.4121-1.752 1.4121h-1.843v-2.8241zm.183 3.9747c1.229 0 1.922.5752 1.922 1.5297 0 .9937-.693 1.582-1.922 1.582h-2.026v-3.1117zm11.991-5.1253h-1.438v6.0536c0 1.3597-.798 2.2357-2.197 2.2357-1.385 0-2.183-.876-2.183-2.2357v-6.0536h-1.438v6.0143c0 2.1574 1.373 3.5694 3.621 3.5694 2.249 0 3.635-1.412 3.635-3.5694zm5.728 9.3876v-8.0932h3.059v-1.2944h-7.557v1.2944h3.059v8.0932zm5.768 0v-9.3876h-1.438v9.3876zm6.258.1961c2.72 0 4.772-2.1311 4.772-4.903 0-2.7718-2.052-4.8768-4.772-4.8768-2.719 0-4.772 2.105-4.772 4.8768 0 2.7719 2.053 4.903 4.772 4.903zm0-1.2944c-1.987 0-3.282-1.5951-3.282-3.6086s1.295-3.5824 3.282-3.5824c1.988 0 3.282 1.5689 3.282 3.5824s-1.294 3.6086-3.282 3.6086zm12.536 1.0983h1.451v-9.3876h-1.334v7.1388l-4.824-7.1388h-1.569v9.3876h1.333v-7.3349z"/><path d="m86.219 203.654c2.1051 0 3.4648-1.112 3.4648-3.086 0-1.961-1.3597-3.033-3.4648-3.033h-3.2556v9.387h1.4383v-3.268zm-.013-4.903c1.2682 0 2.0396.666 2.0396 1.83s-.7714 1.857-2.0396 1.857h-1.8043v-3.687zm6.1323 4.628c0-1.53 1.0852-2.183 2.5757-2.105v-1.373c-1.1375 0-2.1835.602-2.6672 1.556v-1.464h-1.229v6.929h1.3205zm6.4978 3.674c1.9609 0 3.3999-1.543 3.3999-3.595 0-2.053-1.439-3.596-3.3999-3.596-1.9612 0-3.3994 1.543-3.3994 3.596 0 2.052 1.4382 3.595 3.3994 3.595zm0-1.164c-1.1375 0-2.0266-.915-2.0266-2.431 0-1.517.8891-2.419 2.0266-2.419s2.0399.902 2.0399 2.419c0 1.516-.9024 2.431-2.0399 2.431zm6.3539-7.504c0-.51-.392-.876-.955-.876-.562 0-.967.366-.967.876 0 .496.405.876.967.876.563 0 .955-.38.955-.876zm-.301 1.608h-1.32v7.243c0 .798-.38 1.112-.968 1.112-.288 0-.536-.04-.758-.144v1.242c.3.117.627.131.915.131 1.268 0 2.131-.733 2.131-2.315zm4.684 7.06c1.634 0 2.824-.928 3.164-2.471h-1.307c-.223.902-.903 1.438-1.883 1.438-1.164 0-1.87-.823-1.974-2.236h5.164c.235-2.248-1.137-3.922-3.203-3.922-1.909 0-3.308 1.504-3.308 3.556 0 2.184 1.347 3.635 3.347 3.635zm-.065-6.197c1.072 0 1.765.771 1.83 2.052h-3.752c.143-1.294.863-2.052 1.922-2.052zm7.238 6.21c1.739 0 2.968-1.124 3.203-2.955h-1.373c-.156 1.125-.836 1.778-1.817 1.778-1.137 0-1.883-.954-1.883-2.431 0-1.465.746-2.432 1.883-2.432.968 0 1.661.666 1.804 1.778h1.386c-.248-1.804-1.49-2.942-3.203-2.942-1.87 0-3.229 1.504-3.229 3.596 0 2.118 1.333 3.608 3.229 3.608zm8.442-1.425c-.275.131-.549.183-.863.183-.706 0-1.164-.34-1.164-1.294v-3.413h2.092v-1.124h-2.092v-2.053h-1.32v2.053h-1.53v1.124h1.53v3.713c0 1.53.889 2.223 2.17 2.223.418 0 .771-.065 1.177-.248zm3.561-2.183c0 2.078 1.203 3.595 3.073 3.595.98 0 1.817-.497 2.314-1.373v1.242h1.229v-9.387h-1.321v3.648c-.483-.85-1.294-1.321-2.222-1.321-1.87 0-3.073 1.491-3.073 3.596zm1.373 0c0-1.569.811-2.432 1.961-2.432 1.098 0 1.961.85 1.961 2.405 0 1.53-.837 2.445-1.961 2.445-1.15 0-1.961-.876-1.961-2.418zm9.929 3.595c1.634 0 2.824-.928 3.164-2.471h-1.308c-.222.902-.902 1.438-1.882 1.438-1.164 0-1.87-.823-1.975-2.236h5.165c.235-2.248-1.138-3.922-3.203-3.922-1.909 0-3.308 1.504-3.308 3.556 0 2.184 1.346 3.635 3.347 3.635zm-.066-6.197c1.073 0 1.765.771 1.831 2.052h-3.753c.144-1.294.863-2.052 1.922-2.052zm10.17-.863h-1.347l-1.948 5.413-1.922-5.413h-1.425l2.602 6.929h1.438zm1.873 5.988c0-.615-.405-1.033-1.007-1.033-.588 0-1.006.418-1.006 1.033 0 .588.418 1.007 1.006 1.007.602 0 1.007-.419 1.007-1.007z"/><path d="m84.4017 378.387v-9.388h-1.4383v9.388zm5.0027 0c2.9287 0 4.7199-2.027 4.7199-4.733 0-2.746-1.7258-4.655-4.7199-4.655h-2.968v9.388zm-1.5298-8.146h1.4644c2.1704 0 3.321 1.295 3.321 3.413 0 2.157-1.1637 3.491-3.321 3.491h-1.4644zm11.9781 8.342c2.7193 0 4.7723-2.131 4.7723-4.903s-2.053-4.877-4.7723-4.877c-2.7196 0-4.7723 2.105-4.7723 4.877s2.0527 4.903 4.7723 4.903zm0-1.295c-1.9874 0-3.2818-1.595-3.2818-3.608 0-2.014 1.2944-3.583 3.2818-3.583 1.9873 0 3.2813 1.569 3.2813 3.583 0 2.013-1.294 3.608-3.2813 3.608zm5.2503 3.622 5.779-11.911h-1.308l-5.792 11.911zm7.925-2.523v-9.388h-1.438v9.388zm3.473 0v-3.818h3.635v-1.255h-3.635v-3.06h4.262v-1.255h-5.7v9.388zm9.897.196c2.719 0 4.772-2.131 4.772-4.903s-2.053-4.877-4.772-4.877c-2.72 0-4.772 2.105-4.772 4.877s2.052 4.903 4.772 4.903zm0-1.295c-1.988 0-3.282-1.595-3.282-3.608 0-2.014 1.294-3.583 3.282-3.583 1.987 0 3.282 1.569 3.282 3.583 0 2.013-1.295 3.608-3.282 3.608zm5.25 3.622 5.779-11.911h-1.307l-5.792 11.911zm7.925-2.523v-9.388h-1.438v9.388zm6.127.196c2.354 0 4.237-1.569 4.59-3.896h-1.53c-.262 1.516-1.491 2.601-3.047 2.601-1.856 0-3.164-1.503-3.164-3.608 0-2.079 1.308-3.583 3.164-3.583 1.556 0 2.785 1.072 3.047 2.589h1.53c-.353-2.314-2.236-3.883-4.59-3.883-2.615 0-4.641 2.118-4.641 4.877 0 2.772 2.026 4.903 4.641 4.903zm10.307 0c2.72 0 4.773-2.131 4.773-4.903s-2.053-4.877-4.773-4.877c-2.719 0-4.772 2.105-4.772 4.877s2.053 4.903 4.772 4.903zm0-1.295c-1.987 0-3.281-1.595-3.281-3.608 0-2.014 1.294-3.583 3.281-3.583 1.988 0 3.282 1.569 3.282 3.583 0 2.013-1.294 3.608-3.282 3.608z"/><path d="m89.6054 161.362c0-1.072-.6276-1.869-1.7913-2.196.9022-.393 1.4383-1.151 1.4383-2.04 0-1.582-1.1375-2.458-3.0334-2.458h-3.2556v9.388h3.4387c1.9481 0 3.2033-.981 3.2033-2.694zm-3.4779-5.543c1.1375 0 1.752.536 1.752 1.412s-.6145 1.412-1.752 1.412h-1.8435v-2.824zm.1831 3.974c1.229 0 1.9219.576 1.9219 1.53 0 .994-.6929 1.582-1.9219 1.582h-2.0266v-3.112zm7.7502 4.393c1.9612 0 3.3994-1.542 3.3994-3.595s-1.4382-3.596-3.3994-3.596-3.3994 1.543-3.3994 3.596 1.4382 3.595 3.3994 3.595zm0-1.163c-1.1375 0-2.0266-.915-2.0266-2.432s.8891-2.419 2.0266-2.419 2.0396.902 2.0396 2.419-.9021 2.432-2.0396 2.432zm9.0732-1.818c0 1.086-.719 1.818-1.608 1.818-.863 0-1.464-.497-1.464-1.7v-4.197h-1.321v4.459c0 1.778.9675 2.601 2.367 2.601.941 0 1.752-.51 2.118-1.229v1.099h1.229v-6.93h-1.321zm4.475-1.059c0-1.229.758-1.987 1.661-1.987.98 0 1.503.667 1.503 1.857v4.04h1.321v-4.485c0-1.66-.942-2.576-2.367-2.576-.954 0-1.739.51-2.209 1.282v-1.151h-1.229v6.93h1.32zm10.122 2.628c-.274.131-.549.183-.863.183-.706 0-1.163-.34-1.163-1.294v-3.412h2.092v-1.125h-2.092v-2.053h-1.321v2.053h-1.53v1.125h1.53v3.713c0 1.529.889 2.222 2.17 2.222.419 0 .772-.065 1.177-.248zm7.079-5.648h-1.334l-1.87 5.282-2.013-5.282h-1.425l2.732 6.838-.993 2.615h1.438zm10.286 3.465c0-2.092-1.216-3.596-3.06-3.596-.981 0-1.83.51-2.327 1.399v-1.268h-1.229v9.453h1.32v-3.7c.497.837 1.295 1.307 2.236 1.307 1.857 0 3.06-1.503 3.06-3.595zm-1.373 0c0 1.556-.824 2.419-1.961 2.419-1.112 0-1.962-.889-1.962-2.419 0-1.556.863-2.432 1.962-2.432 1.137 0 1.961.876 1.961 2.432zm4.032-.079c0-1.529 1.085-2.183 2.576-2.105v-1.372c-1.138 0-2.184.601-2.668 1.555v-1.464h-1.229v6.93h1.321zm6.498 3.674c1.961 0 3.399-1.542 3.399-3.595s-1.438-3.596-3.399-3.596-3.4 1.543-3.4 3.596 1.439 3.595 3.4 3.595zm0-1.163c-1.138 0-2.027-.915-2.027-2.432s.889-2.419 2.027-2.419c1.137 0 2.039.902 2.039 2.419s-.902 2.432-2.039 2.432zm7.389 3.7c1.962 0 3.125-1.085 3.125-2.903v-6.694h-1.229v1.229c-.47-.876-1.255-1.36-2.249-1.36-1.738 0-2.915 1.386-2.915 3.452 0 2.04 1.229 3.465 2.955 3.465.941 0 1.726-.484 2.118-1.321v1.255c0 1.19-.628 1.831-1.818 1.831-1.072 0-1.699-.523-1.778-1.491h-1.281c.078 1.569 1.255 2.537 3.072 2.537zm-1.935-6.276c0-1.425.72-2.314 1.857-2.314 1.138 0 1.883.915 1.883 2.353 0 1.373-.759 2.275-1.883 2.275-1.151 0-1.857-.876-1.857-2.314zm8.209.065c0-1.529 1.085-2.183 2.576-2.105v-1.372c-1.138 0-2.184.601-2.668 1.555v-1.464h-1.229v6.93h1.321zm7.818 3.544h1.098v-4.446c0-1.647-.994-2.615-2.706-2.615-1.622 0-2.733 1.033-2.798 2.589h1.202c.04-.967.628-1.543 1.596-1.543.915 0 1.451.563 1.451 1.556v.51c-.562-.065-.889-.078-1.295-.078-2.065 0-3.151.706-3.151 2.065 0 1.269.942 2.092 2.38 2.092 1.02 0 1.791-.431 2.223-1.202zm-3.347-2.001c0-.81.653-1.203 1.974-1.203.34 0 .706.013 1.216.079v.562c0 1.059-.693 1.752-1.804 1.752-.85 0-1.386-.471-1.386-1.19zm7.531 2.001v-3.975c0-1.164.719-1.922 1.634-1.922.968 0 1.478.68 1.478 1.83v4.067h1.32v-3.975c0-1.164.733-1.922 1.635-1.922.967 0 1.477.68 1.477 1.83v4.067h1.321v-4.485c0-1.647-.915-2.576-2.341-2.576-1.059 0-1.856.549-2.34 1.439-.314-.916-1.085-1.439-2.105-1.439-.954 0-1.7.484-2.17 1.282v-1.151h-1.229v6.93z"/><path d="m87.2519 335.521h1.2291l2.981-7.192v7.192h1.3336v-9.388h-1.7782l-3.1379 7.622-3.151-7.622h-1.7651v9.388h1.3206v-7.178zm11.6656 0h1.0985v-4.446c0-1.647-.9939-2.615-2.7067-2.615-1.6212 0-2.7326 1.033-2.798 2.589h1.2029c.0392-.968.6276-1.543 1.5951-1.543.9153 0 1.4513.562 1.4513 1.556v.51c-.5622-.065-.8891-.078-1.2944-.078-2.0658 0-3.151.706-3.151 2.065 0 1.269.9414 2.092 2.3796 2.092 1.0198 0 1.7912-.431 2.2227-1.203zm-3.3471-2.001c0-.811.6537-1.203 1.9743-1.203.3399 0 .706.013 1.2159.079v.562c0 1.059-.6929 1.752-1.8043 1.752-.8498 0-1.3859-.471-1.3859-1.19zm7.5316-1.909c0-1.229.758-1.987 1.66-1.987.981 0 1.504.667 1.504 1.856v4.041h1.321v-4.485c0-1.661-.942-2.576-2.367-2.576-.954 0-1.739.51-2.21 1.281v-1.15h-1.229v6.93h1.321zm10.435 3.91h1.098v-4.446c0-1.647-.993-2.615-2.706-2.615-1.621 0-2.733 1.033-2.798 2.589h1.203c.039-.968.627-1.543 1.595-1.543.915 0 1.451.562 1.451 1.556v.51c-.562-.065-.889-.078-1.294-.078-2.066 0-3.151.706-3.151 2.065 0 1.269.941 2.092 2.379 2.092 1.02 0 1.792-.431 2.223-1.203zm-3.347-2.001c0-.811.654-1.203 1.974-1.203.34 0 .706.013 1.216.079v.562c0 1.059-.693 1.752-1.804 1.752-.85 0-1.386-.471-1.386-1.19zm8.983 4.668c1.961 0 3.125-1.085 3.125-2.903v-6.694h-1.229v1.229c-.471-.876-1.255-1.36-2.249-1.36-1.739 0-2.916 1.386-2.916 3.452 0 2.04 1.229 3.465 2.955 3.465.941 0 1.726-.484 2.118-1.321v1.255c0 1.19-.627 1.831-1.817 1.831-1.072 0-1.7-.523-1.778-1.491h-1.282c.079 1.569 1.255 2.537 3.073 2.537zm-1.935-6.276c0-1.425.719-2.314 1.856-2.314 1.138 0 1.883.915 1.883 2.353 0 1.373-.758 2.275-1.883 2.275-1.15 0-1.856-.876-1.856-2.314zm9.738 3.739c1.634 0 2.824-.928 3.164-2.471h-1.307c-.223.902-.902 1.438-1.883 1.438-1.164 0-1.87-.823-1.974-2.235h5.164c.235-2.249-1.137-3.923-3.203-3.923-1.909 0-3.308 1.504-3.308 3.556 0 2.184 1.347 3.635 3.347 3.635zm-.065-6.197c1.072 0 1.765.771 1.83 2.053h-3.752c.144-1.295.863-2.053 1.922-2.053zm5.954 6.067v-3.975c0-1.164.719-1.922 1.634-1.922.968 0 1.477.68 1.477 1.83v4.067h1.321v-3.975c0-1.164.732-1.922 1.634-1.922.968 0 1.478.68 1.478 1.83v4.067h1.32v-4.485c0-1.648-.915-2.576-2.34-2.576-1.059 0-1.857.549-2.34 1.438-.314-.915-1.086-1.438-2.105-1.438-.955 0-1.7.484-2.171 1.281v-1.15h-1.229v6.93zm13.481.13c1.634 0 2.824-.928 3.164-2.471h-1.308c-.222.902-.902 1.438-1.883 1.438-1.163 0-1.869-.823-1.974-2.235h5.165c.235-2.249-1.138-3.923-3.204-3.923-1.909 0-3.308 1.504-3.308 3.556 0 2.184 1.347 3.635 3.348 3.635zm-.066-6.197c1.072 0 1.765.771 1.831 2.053h-3.753c.144-1.295.863-2.053 1.922-2.053zm5.954 2.157c0-1.229.758-1.987 1.661-1.987.98 0 1.503.667 1.503 1.856v4.041h1.321v-4.485c0-1.661-.942-2.576-2.367-2.576-.954 0-1.739.51-2.209 1.281v-1.15h-1.229v6.93h1.32zm10.122 2.628c-.274.131-.549.183-.863.183-.706 0-1.163-.34-1.163-1.294v-3.413h2.092v-1.124h-2.092v-2.053h-1.321v2.053h-1.53v1.124h1.53v3.714c0 1.529.889 2.222 2.17 2.222.419 0 .772-.065 1.177-.248z"/><path d="m89.4223 249.789h1.5298l-3.5694-9.388h-1.5821l-3.5955 9.388h1.4513l.8629-2.328h4.0532zm-2.8633-7.819 1.582 4.328h-3.1902zm4.6897 4.354c0 2.079 1.2029 3.595 3.0726 3.595.9806 0 1.8173-.497 2.3142-1.373v1.243h1.229v-9.388h-1.3206v3.648c-.4837-.85-1.2943-1.321-2.2226-1.321-1.8697 0-3.0726 1.491-3.0726 3.596zm1.3728 0c0-1.569.8107-2.432 1.9612-2.432 1.0983 0 1.9612.85 1.9612 2.406 0 1.529-.8367 2.445-1.9612 2.445-1.1505 0-1.9612-.876-1.9612-2.419zm8.3995 3.465v-3.975c0-1.164.719-1.922 1.634-1.922.968 0 1.477.68 1.477 1.83v4.067h1.321v-3.975c0-1.164.732-1.922 1.634-1.922.968 0 1.478.68 1.478 1.83v4.067h1.32v-4.485c0-1.647-.915-2.576-2.34-2.576-1.059 0-1.857.549-2.34 1.438-.314-.915-1.086-1.438-2.105-1.438-.955 0-1.7.484-2.171 1.282v-1.151h-1.2288v6.93zm12.238-8.538c0-.51-.392-.876-.954-.876s-.968.366-.968.876c0 .497.406.876.968.876s.954-.379.954-.876zm-.287 8.538v-6.93h-1.321v6.93zm3.154-3.91c0-1.229.758-1.987 1.66-1.987.981 0 1.504.667 1.504 1.856v4.041h1.32v-4.485c0-1.661-.941-2.576-2.366-2.576-.955 0-1.739.51-2.21 1.282v-1.151h-1.229v6.93h1.321zm8.029 2.968c0-.614-.405-1.033-1.007-1.033-.588 0-1.006.419-1.006 1.033 0 .589.418 1.007 1.006 1.007.602 0 1.007-.418 1.007-1.007zm7.279-4.092c-.614-.706-.928-1.112-.928-1.7 0-.68.51-1.177 1.19-1.177.64 0 1.203.432 1.268 1.203h1.242c-.026-1.346-1.046-2.262-2.51-2.262-1.451 0-2.537.942-2.537 2.223 0 .628.196 1.111.602 1.661-1.033.496-1.713 1.346-1.713 2.405 0 1.713 1.203 2.811 3.086 2.811.863 0 1.686-.327 2.392-.967l.746.837h1.647l-1.608-1.805c.418-.706.68-1.621.706-2.497h-1.216c-.026.601-.118 1.164-.275 1.621zm-2.118 2.275c0-.719.458-1.268 1.125-1.543l2.405 2.706c-.431.406-1.006.641-1.608.641-1.307 0-1.922-.876-1.922-1.804zm11.721 2.759v-9.388h-1.334v9.388zm4.683.13c1.634 0 2.824-.928 3.164-2.471h-1.308c-.222.902-.902 1.438-1.882 1.438-1.164 0-1.87-.823-1.975-2.235h5.165c.235-2.249-1.138-3.923-3.203-3.923-1.909 0-3.308 1.504-3.308 3.557 0 2.183 1.346 3.634 3.347 3.634zm-.066-6.197c1.073 0 1.766.771 1.831 2.053h-3.752c.143-1.295.862-2.053 1.921-2.053zm7.278 8.734c1.961 0 3.125-1.085 3.125-2.903v-6.694h-1.229v1.229c-.471-.876-1.255-1.36-2.249-1.36-1.739 0-2.916 1.386-2.916 3.452 0 2.04 1.229 3.465 2.955 3.465.942 0 1.726-.484 2.118-1.321v1.255c0 1.19-.627 1.831-1.817 1.831-1.072 0-1.7-.523-1.778-1.491h-1.281c.078 1.569 1.255 2.537 3.072 2.537zm-1.935-6.276c0-1.425.719-2.314 1.857-2.314 1.137 0 1.882.915 1.882 2.353 0 1.373-.758 2.275-1.882 2.275-1.151 0-1.857-.876-1.857-2.314zm11.085 3.609h1.098v-4.446c0-1.647-.993-2.615-2.706-2.615-1.621 0-2.733 1.033-2.798 2.589h1.203c.039-.967.627-1.543 1.595-1.543.915 0 1.451.562 1.451 1.556v.51c-.562-.065-.889-.078-1.294-.078-2.066 0-3.151.706-3.151 2.065 0 1.269.941 2.092 2.379 2.092 1.02 0 1.792-.431 2.223-1.203zm-3.347-2.001c0-.81.654-1.203 1.974-1.203.34 0 .706.013 1.216.079v.562c0 1.059-.693 1.752-1.804 1.752-.85 0-1.386-.471-1.386-1.19zm7.544 2.001v-9.388h-1.333v9.388z"/><path d="m88.6509 421.253v-1.294h-4.2492v-8.093h-1.4383v9.387zm4.0181.131c1.9612 0 3.3995-1.543 3.3995-3.595 0-2.053-1.4383-3.596-3.3995-3.596s-3.3994 1.543-3.3994 3.596c0 2.052 1.4382 3.595 3.3994 3.595zm0-1.163c-1.1375 0-2.0265-.916-2.0265-2.432 0-1.517.889-2.419 2.0265-2.419s2.0397.902 2.0397 2.419c0 1.516-.9022 2.432-2.0397 2.432zm7.478 1.176c1.739 0 2.968-1.124 3.204-2.955h-1.373c-.157 1.125-.837 1.779-1.818 1.779-1.1372 0-1.8824-.955-1.8824-2.432 0-1.465.7452-2.432 1.8824-2.432.968 0 1.661.667 1.805 1.778h1.386c-.249-1.804-1.491-2.942-3.204-2.942-1.8694 0-3.2292 1.504-3.2292 3.596 0 2.118 1.3336 3.608 3.2292 3.608zm5.853-.144v-3.281l3.125 3.281h1.7l-3.504-3.569 3.203-3.36h-1.556l-2.968 3.099v-5.557h-1.32v9.387zm8.272.131c1.634 0 2.824-.928 3.164-2.471h-1.308c-.222.902-.902 1.438-1.882 1.438-1.164 0-1.87-.823-1.975-2.236h5.165c.235-2.248-1.138-3.922-3.204-3.922-1.908 0-3.307 1.504-3.307 3.556 0 2.184 1.346 3.635 3.347 3.635zm-.066-6.197c1.072 0 1.765.771 1.831 2.052h-3.753c.144-1.294.863-2.052 1.922-2.052zm4.009 2.602c0 2.079 1.203 3.595 3.073 3.595.98 0 1.817-.497 2.314-1.373v1.242h1.229v-9.387h-1.321v3.648c-.483-.85-1.294-1.321-2.222-1.321-1.87 0-3.073 1.491-3.073 3.596zm1.373 0c0-1.569.811-2.432 1.961-2.432 1.099 0 1.961.85 1.961 2.405 0 1.53-.836 2.445-1.961 2.445-1.15 0-1.961-.876-1.961-2.418zm13.72 2.183c-.274.131-.549.183-.863.183-.706 0-1.163-.34-1.163-1.294v-3.413h2.092v-1.124h-2.092v-2.053h-1.321v2.053h-1.529v1.124h1.529v3.713c0 1.53.889 2.223 2.171 2.223.418 0 .771-.065 1.176-.248zm4.037 1.412c1.961 0 3.4-1.543 3.4-3.595 0-2.053-1.439-3.596-3.4-3.596s-3.399 1.543-3.399 3.596c0 2.052 1.438 3.595 3.399 3.595zm0-1.163c-1.137 0-2.026-.916-2.026-2.432 0-1.517.889-2.419 2.026-2.419 1.138 0 2.04.902 2.04 2.419 0 1.516-.902 2.432-2.04 2.432zm6.066 1.032v-3.281l3.125 3.281h1.7l-3.504-3.569 3.203-3.36h-1.556l-2.968 3.099v-5.557h-1.32v9.387zm8.272.131c1.634 0 2.824-.928 3.164-2.471h-1.308c-.222.902-.902 1.438-1.883 1.438-1.163 0-1.869-.823-1.974-2.236h5.165c.235-2.248-1.138-3.922-3.204-3.922-1.908 0-3.307 1.504-3.307 3.556 0 2.184 1.346 3.635 3.347 3.635zm-.066-6.197c1.072 0 1.765.771 1.831 2.052h-3.753c.144-1.294.863-2.052 1.922-2.052zm5.954 2.157c0-1.229.759-1.987 1.661-1.987.98 0 1.503.667 1.503 1.856v4.04h1.321v-4.484c0-1.661-.942-2.576-2.367-2.576-.954 0-1.739.51-2.209 1.281v-1.15h-1.229v6.929h1.32z"/></g><path d="m73.7004 120.061c0-3.554-1.1022-7.017-3.1488-9.893l-13.3382 9.893z" fill="#7e32f1"/><path d="m73.7004 205.794c0-3.554-1.1022-7.017-3.1488-9.893l-13.3382 9.893z" fill="#fff21a"/><path d="m73.7004 291.526c0-3.554-1.1022-7.017-3.1488-9.892l-13.3382 9.892z" fill="#b62a18"/><path d="m73.7004 334.392c0-3.554-1.1022-7.017-3.1488-9.892l-13.3382 9.892z" fill="#2cfafc"/><path d="m73.7004 162.927c0-3.554-1.1022-7.017-3.1488-9.892l-13.3382 9.892z" fill="#01681c"/><path d="m73.7004 248.66c0-3.554-1.1022-7.017-3.1488-9.892l-13.3382 9.892z" fill="#3af49a"/><path d="m73.7004 377.258c0-3.554-1.1022-7.016-3.1488-9.892l-13.3382 9.892z" fill="#0f4469"/><path d="m73.7004 420.125c0-3.554-1.1022-7.017-3.1488-9.893l-13.3382 9.893z" fill="#ff9f41"/></svg>