<svg fill="none" height="32" viewBox="0 0 33 32" width="33" xmlns="http://www.w3.org/2000/svg"><path d="m28.8 8.286c-.882.39067-1.8307.65133-2.8314.77467 1.0174-.604 1.8-1.56734 2.1674-2.70534-.952.558-2.0067.968-3.1287 1.184-.896-.95-2.174-1.53933-3.59-1.53933-2.72 0-4.9247 2.18533-4.9247 4.88 0 .3813.0447.7527.1287 1.1133-4.092-.2053-7.72133-2.15063-10.14933-5.10263-.42666.72133-.66666 1.566-.66666 2.45733 0 1.694.86733 3.1853 2.19 4.064-.80734-.0247-1.56734-.2493-2.23267-.6093v.0573c0 2.3673 1.698 4.3387 3.94867 4.7873-.41134.1127-.846.1754-1.294.1754-.318 0-.628-.036-.928-.09.62666 1.9346 2.44466 3.3486 4.59869 3.3906-1.6854 1.3067-3.80803 2.0894-6.11603 2.0894-.39866 0-.78866-.0227-1.174-.0694 2.18067 1.3807 4.77 2.19 7.54933 2.19 9.0567 0 14.0113-7.4373 14.0113-13.8893 0-.2113-.0066-.422-.0166-.63.9666-.6827 1.8-1.544 2.458-2.528z" fill="#949494"/></svg>