<svg fill="none" height="48" viewBox="0 0 48 48" width="48" xmlns="http://www.w3.org/2000/svg" xmlns:xlink="http://www.w3.org/1999/xlink"><linearGradient id="a" gradientUnits="userSpaceOnUse" x1="-3.23316" x2="58.3738" y1="10.5205" y2="32.8007"><stop offset=".00800497" stop-color="#38dbff"/><stop offset="1" stop-color="#243aff"/></linearGradient><circle cx="24" cy="24" fill="url(#a)" r="24"/><path d="m36 16.286c-.882.3907-1.8306.6513-2.8313.7747 1.0173-.604 1.8-1.5674 2.1673-2.7054-.952.558-2.0066.968-3.1286 1.184-.896-.95-2.174-1.5393-3.59-1.5393-2.72 0-4.9247 2.1853-4.9247 4.88 0 .3813.0447.7527.1287 1.1133-4.092-.2053-7.7214-2.1506-10.1494-5.1026-.4266.7213-.6666 1.566-.6666 2.4573 0 1.694.8673 3.1853 2.19 4.064-.8074-.0247-1.5674-.2493-2.2327-.6093v.0573c0 2.3673 1.698 4.3387 3.9487 4.7873-.4114.1127-.846.1754-1.294.1754-.318 0-.628-.036-.928-.09.6266 1.9346 2.4446 3.3486 4.5986 3.3906-1.6853 1.3067-3.808 2.0894-6.116 2.0894-.3986 0-.7886-.0227-1.174-.0694 2.1807 1.3807 4.77 2.19 7.5494 2.19 9.0566 0 14.0113-7.4373 14.0113-13.8893 0-.2113-.0067-.422-.0167-.63.9667-.6827 1.8-1.544 2.458-2.528z" fill="#fff"/></svg>