<svg fill="none" height="61" viewBox="0 0 61 61" width="61" xmlns="http://www.w3.org/2000/svg" xmlns:xlink="http://www.w3.org/1999/xlink"><linearGradient id="a"><stop offset=".00800497" stop-color="#38dbff"/><stop offset="1" stop-color="#243aff"/></linearGradient><linearGradient id="b" gradientUnits="userSpaceOnUse" x1="5.9263" x2="47.3776" xlink:href="#a" y1="13.6387" y2="44.3487"/><linearGradient id="c" gradientUnits="userSpaceOnUse" x1="5.52981" x2="46.9811" xlink:href="#a" y1="36.0137" y2="66.7237"/><linearGradient id="d" gradientUnits="userSpaceOnUse" x1="19.7506" x2="48.0138" xlink:href="#a" y1="18.7937" y2="23.4398"/><path d="m53.1432 16.4027v10.1687h-10.6262v-3.66h4.2273c-2.8609-6.1122-9.0646-10.3456-16.2443-10.3456-9.8881 0-17.934 8.0459-17.934 17.934h-3.65999c0-11.9072 9.68679-21.59404 21.59399-21.59404 8.1862 0 15.3293 4.58114 18.9832 11.32164v-3.8247z" fill="url(#b)"/><path d="m8.50952 45.3779v-10.1687h10.62618v3.66h-4.2273c2.8609 6.1122 9.0646 10.3456 16.2443 10.3456 9.8881 0 17.934-8.0459 17.934-17.934h3.66c0 11.9072-9.6868 21.594-21.594 21.594-8.1862 0-15.3293-4.5811-18.9832-11.3216v3.8247z" fill="url(#c)"/><path d="m32.1901 46.0197v-2.6118c4.5789-.3547 7.3197-3.0956 7.3197-6.9328 0-3.289-2.2894-5.1269-6.0943-5.9331l-3.2246-.6771c-1.451-.2902-2.7731-.9674-2.7731-2.4507 0-1.6767 1.3866-2.7408 3.4503-2.7408 2.2249 0 3.7404 1.4188 3.8694 3.547h4.4821c-.2902-3.9339-3.0633-6.5781-7.0295-7.094v-2.7086h-2.9343v2.7086c-3.7727.5482-6.3845 3.1601-6.3845 6.6425 0 3.8695 2.6763 5.3527 5.8041 6.0621l3.289.6772c1.6445.3547 2.7731 1.1608 2.7731 2.5474 0 1.7734-1.709 2.773-3.9339 2.773-2.6764 0-4.1919-1.4187-4.2564-3.7082h-4.4821c.2902 3.9662 2.9343 6.6748 7.1907 7.223v2.6763z" fill="url(#d)"/></svg>