<svg width="29" height="29" viewBox="0 0 29 29" fill="none" xmlns="http://www.w3.org/2000/svg">
<path d="M14.6434 28.2809C22.2181 28.2809 28.3585 22.1404 28.3585 14.5658C28.3585 6.99115 22.2181 0.850685 14.6434 0.850685C7.06878 0.850685 0.928314 6.99115 0.928314 14.5658C0.928314 22.1404 7.06878 28.2809 14.6434 28.2809Z" fill="#FD3832"/>
<path fill-rule="evenodd" clip-rule="evenodd" d="M8.91603 19.3245C8.37182 19.1463 8.00438 18.7886 7.80813 18.2486C7.32934 16.9305 7.18737 11.4147 8.11016 10.3291C8.4261 9.95744 8.83113 9.74031 9.31549 9.68881C11.8027 9.42158 19.4898 9.45916 20.3764 9.77789C20.8955 9.9644 21.263 10.304 21.4634 10.8245C21.9881 12.1872 22.0062 17.1462 21.3938 18.4587C21.2282 18.8151 20.9582 19.0656 20.6144 19.2465C19.6874 19.7337 10.1367 19.7281 8.91603 19.3245ZM12.866 16.7398C14.3623 15.9646 15.8446 15.1949 17.3464 14.4169C15.8432 13.6319 14.3609 12.8594 12.866 12.08C12.866 13.6374 12.866 15.1796 12.866 16.7398Z" fill="white"/>
</svg>
