<svg fill="none" height="48" viewBox="0 0 48 48" width="48" xmlns="http://www.w3.org/2000/svg" xmlns:xlink="http://www.w3.org/1999/xlink"><linearGradient id="a"><stop offset=".00800497" stop-color="#38dbff"/><stop offset="1" stop-color="#243aff"/></linearGradient><linearGradient id="b" gradientUnits="userSpaceOnUse" x1="-3.23316" x2="58.3738" xlink:href="#a" y1="10.5205" y2="32.8007"/><linearGradient id="c" gradientUnits="userSpaceOnUse" x1="8.86606" x2="40.3161" xlink:href="#a" y1="18.3836" y2="33.5867"/><circle cx="24" cy="24" fill="url(#b)" r="24"/><path d="m36.8001 30.6c-.2667 1.4-1.4 2.4667-2.8 2.6667-2.2.3333-5.8667.7333-10 .7333-4.0667 0-7.7334-.4-10-.7333-1.4-.2-2.5334-1.2667-2.8-2.6667-.2667-1.5333-.5334-3.8-.5334-6.6s.2667-5.0667.5334-6.6c.2666-1.4 1.4-2.4667 2.8-2.6667 2.2-.3333 5.8666-.7333 10-.7333 4.1333 0 7.7333.4 10 .7333 1.4.2 2.5333 1.2667 2.8 2.6667.2666 1.5333.6 3.8.6 6.6-.0667 2.8-.3334 5.0667-.6 6.6z" fill="url(#c)"/><path d="m21.3333 28.6663v-9.3333l8 4.6667z" fill="#fff"/></svg>