<svg fill="none" height="32" viewBox="0 0 33 32" width="33" xmlns="http://www.w3.org/2000/svg"><path d="m29.2 22.6c-.2667 1.4-1.4 2.4667-2.8 2.6667-2.2.3333-5.8667.7333-10 .7333-4.0667 0-7.73332-.4-9.99999-.7333-1.4-.2-2.53333-1.2667-2.8-2.6667-.26666-1.5333-.53333-3.8-.53333-6.6s.26667-5.0667.53333-6.6c.26667-1.4 1.4-2.46667 2.8-2.66667 2.2-.33333 5.86669-.73333 9.99999-.73333s7.7333.4 10 .73333c1.4.2 2.5333 1.26667 2.8 2.66667.2667 1.5333.6 3.8.6 6.6-.0667 2.8-.3333 5.0667-.6 6.6z" fill="#949494"/><path d="m13.7334 20.6667v-9.3334l8 4.6667z" fill="#fff"/></svg>